<?xml version="1.0" standalone="yes"?>

<svg version="1.1" viewBox="0.0 0.0 936.0 356.0" fill="none" stroke="none" stroke-linecap="square" stroke-miterlimit="10" xmlns="http://www.w3.org/2000/svg" xmlns:xlink="http://www.w3.org/1999/xlink"><clipPath id="p.0"><path d="m0 0l936.0 0l0 356.0l-936.0 0l0 -356.0z" clip-rule="nonzero"></path></clipPath><g clip-path="url(#p.0)"><path fill="#000000" fill-opacity="0.0" d="m0 0l936.6772 0l0 356.61417l-936.6772 0z" fill-rule="nonzero"></path><path fill="#000000" fill-opacity="0.0" d="m19.183727 129.06178l0 0c0 -5.7143097 4.6323586 -10.346672 10.3466625 -10.346672l146.86572 0c2.74411 0 5.375824 1.0900955 7.3161926 3.0304718c1.9403839 1.9403763 3.0304718 4.57209 3.0304718 7.3162003l0 41.385406c0 5.7143097 -4.6323547 10.346664 -10.346664 10.346664l-146.86572 0c-5.714304 0 -10.3466625 -4.6323547 -10.3466625 -10.346664z" fill-rule="nonzero"></path><path stroke="#000000" stroke-width="2.0" stroke-linejoin="round" stroke-linecap="butt" d="m19.183727 129.06178l0 0c0 -5.7143097 4.6323586 -10.346672 10.3466625 -10.346672l146.86572 0c2.74411 0 5.375824 1.0900955 7.3161926 3.0304718c1.9403839 1.9403763 3.0304718 4.57209 3.0304718 7.3162003l0 41.385406c0 5.7143097 -4.6323547 10.346664 -10.346664 10.346664l-146.86572 0c-5.714304 0 -10.3466625 -4.6323547 -10.3466625 -10.346664z" fill-rule="nonzero"></path><path fill="#000000" d="m79.784744 152.54948q0 -2.859375 1.484375 -4.671875q1.484375 -1.8125 4.484375 -1.8125q2.8125 0 4.328125 1.59375q1.53125 1.59375 1.53125 4.53125q0 1.078125 -0.203125 1.90625q-0.203125 0.828125 -0.75 1.40625q-0.53125 0.5625 -1.34375 0.5625q-0.703125 0 -1.21875 -0.359375q-0.515625 -0.359375 -0.625 -0.875q-0.5625 0.546875 -1.0625 0.8125q-0.5 0.25 -1.28125 0.25q-1.0625 0 -1.71875 -0.5q-0.65625 -0.5 -0.65625 -1.5625q0 -1.21875 0.921875 -1.6875q0.9375 -0.46875 2.796875 -0.46875l0.828125 0l0 -0.359375q0 -0.828125 -0.453125 -1.21875q-0.4375 -0.390625 -1.40625 -0.390625q-0.734375 0 -1.25 0.234375q-0.5 0.234375 -0.5625 0.234375q-0.171875 0 -0.28125 -0.171875q-0.109375 -0.1875 -0.109375 -0.359375q0 -0.375 0.75 -0.65625q0.765625 -0.28125 1.640625 -0.28125q1.25 0 1.96875 0.640625q0.71875 0.640625 0.71875 1.796875l0 3.15625q0.0625 0.421875 0.375 0.6875q0.3125 0.265625 0.703125 0.265625q1.265625 0 1.265625 -2.921875q0 -2.578125 -1.234375 -3.953125q-1.234375 -1.375 -3.703125 -1.375q-1.375 0 -2.375 0.453125q-0.984375 0.4375 -1.546875 1.234375q-0.5625 0.796875 -0.828125 1.75q-0.25 0.953125 -0.25 2.09375q0 1.0625 0.21875 1.953125q0.234375 0.890625 0.734375 1.640625q0.515625 0.75 1.390625 1.171875q0.890625 0.4375 2.078125 0.4375q1.0 0 1.828125 -0.296875q0.84375 -0.296875 0.859375 -0.296875q0.171875 0 0.28125 0.140625q0.109375 0.15625 0.109375 0.28125q0 0.40625 -1.046875 0.734375q-1.03125 0.328125 -2.15625 0.328125q-2.203125 0 -3.71875 -1.546875q-1.515625 -1.546875 -1.515625 -4.53125zm4.03125 1.28125q0 0.625 0.390625 0.9375q0.40625 0.296875 1.0625 0.296875q0.890625 0 1.46875 -0.5q0.59375 -0.5 0.59375 -1.0625l0 -1.046875l-0.78125 0q-1.359375 0 -2.046875 0.28125q-0.6875 0.265625 -0.6875 1.09375zm9.529755 2.34375l0 -13.546875q0 -0.1875 0.15625 -0.3125q0.171875 -0.140625 0.4375 -0.140625q0.28125 0 0.453125 0.140625q0.1875 0.125 0.1875 0.3125l0 6.390625q0.3125 -0.609375 0.96875 -1.015625q0.65625 -0.421875 1.53125 -0.421875q1.375 0 2.359375 1.046875q1.0 1.03125 1.0 2.5l0 5.046875q0 0.234375 -0.1875 0.375q-0.171875 0.125 -0.4375 0.125q-0.21875 0 -0.421875 -0.125q-0.1875 -0.140625 -0.1875 -0.375l0 -5.046875q0 -0.9375 -0.703125 -1.671875q-0.703125 -0.75 -1.640625 -0.75q-0.90625 0 -1.59375 0.671875q-0.6875 0.671875 -0.6875 1.75l0 5.046875q0 0.203125 -0.203125 0.359375q-0.1875 0.140625 -0.4375 0.140625q-0.234375 0 -0.421875 -0.140625q-0.171875 -0.15625 -0.171875 -0.359375zm8.9097595 -2.984375l0 -2.125q0 -1.421875 1.0625 -2.453125q1.0625 -1.03125 2.5625 -1.03125q1.4375 0 2.484375 0.984375q1.0625 0.984375 1.0625 2.46875q0 0.53125 -0.125 0.859375q-0.109375 0.3125 -0.390625 0.453125q-0.28125 0.125 -0.515625 0.171875q-0.21875 0.03125 -0.609375 0.03125l-4.296875 0l0 0.703125q0 1.125 0.796875 1.796875q0.8125 0.671875 2.09375 0.671875q0.640625 0 1.125 -0.1875q0.484375 -0.1875 0.734375 -0.375q0.265625 -0.1875 0.421875 -0.1875q0.203125 0 0.359375 0.203125q0.171875 0.1875 0.171875 0.375q0 0.40625 -0.828125 0.84375q-0.8125 0.421875 -2.03125 0.421875q-1.796875 0 -2.9375 -1.0q-1.140625 -1.0 -1.140625 -2.625zm1.234375 -1.546875l3.796875 0q0.5625 0 0.75 -0.125q0.203125 -0.125 0.203125 -0.53125q0 -0.9375 -0.6875 -1.65625q-0.671875 -0.734375 -1.6875 -0.734375q-0.984375 0 -1.6875 0.6875q-0.6875 0.6875 -0.6875 1.640625l0 0.71875zm7.013321 2.65625q0 -1.46875 1.125 -2.03125q1.140625 -0.578125 3.3125 -0.578125l0.96875 0l0 -0.453125q0 -1.046875 -0.5625 -1.8125q-0.546875 -0.765625 -1.6875 -0.765625q-0.75 0 -1.375 0.28125q-0.609375 0.265625 -0.65625 0.265625q-0.21875 0 -0.359375 -0.203125q-0.125 -0.21875 -0.125 -0.453125q0 -0.375 0.8125 -0.671875q0.8125 -0.296875 1.75 -0.296875q1.78125 0 2.609375 1.03125q0.828125 1.03125 0.828125 2.625l0 4.9375q0 0.21875 -0.171875 0.359375q-0.171875 0.140625 -0.4375 0.140625q-0.25 0 -0.421875 -0.140625q-0.15625 -0.140625 -0.15625 -0.359375l0 -0.828125q-1.265625 1.46875 -2.859375 1.46875q-1.140625 0 -1.875 -0.640625q-0.71875 -0.640625 -0.71875 -1.875zm1.25 -0.109375q0 0.796875 0.453125 1.1875q0.453125 0.390625 1.1875 0.390625q0.890625 0 1.703125 -0.65625q0.8125 -0.671875 0.8125 -1.34375l0 -1.21875l-0.796875 0q-0.765625 0 -1.296875 0.0625q-0.515625 0.046875 -1.03125 0.203125q-0.5 0.15625 -0.765625 0.5q-0.265625 0.34375 -0.265625 0.875zm7.2183075 -1.0l0 -2.0625q0 -1.46875 0.984375 -2.5q1.0 -1.046875 2.40625 -1.046875q0.875 0 1.53125 0.421875q0.65625 0.40625 0.984375 1.015625l0 -6.390625q0 -0.1875 0.1875 -0.3125q0.1875 -0.140625 0.453125 -0.140625q0.265625 0 0.421875 0.140625q0.171875 0.125 0.171875 0.3125l0 13.546875q0 0.203125 -0.171875 0.359375q-0.171875 0.140625 -0.421875 0.140625q-0.21875 0 -0.40625 -0.140625q-0.171875 -0.15625 -0.171875 -0.359375l0 -0.828125q-0.328125 0.609375 -1.046875 1.046875q-0.703125 0.421875 -1.5625 0.421875q-1.34375 0 -2.359375 -1.09375q-1.0 -1.09375 -1.0 -2.53125zm1.234375 0q0 0.953125 0.703125 1.71875q0.703125 0.765625 1.65625 0.765625q0.90625 0 1.609375 -0.6875q0.703125 -0.6875 0.703125 -1.203125l0 -2.65625q0 -1.078125 -0.703125 -1.75q-0.6875 -0.671875 -1.59375 -0.671875q-0.96875 0 -1.671875 0.75q-0.703125 0.734375 -0.703125 1.671875l0 2.0625z" fill-rule="nonzero"></path><path fill="#000000" fill-opacity="0.0" d="m76.381004 291.13654l53.16535 0l0 44.031494l-53.16535 0z" fill-rule="nonzero"></path><path fill="#000000" d="m85.64663 309.54092q0 -0.21875 0.25 -0.390625q0.25 -0.1875 0.515625 -0.1875q0.359375 0 0.4375 0.265625l2.59375 6.984375l2.453125 -6.984375q0.109375 -0.265625 0.421875 -0.265625q0.25 0 0.5 0.1875q0.25 0.171875 0.25 0.40625q0 0.125 -0.03125 0.15625l-2.9375 7.984375l-0.34375 0.921875q-0.09375 0.25 -0.375 0.890625q-0.28125 0.65625 -0.46875 0.9375l-0.484375 0.765625q-0.328125 0.46875 -0.625 0.671875q-0.296875 0.21875 -0.71875 0.390625q-0.40625 0.1875 -0.84375 0.1875q-0.578125 0 -0.578125 -0.546875q0 -0.578125 0.390625 -0.578125q0.859375 0 1.609375 -1.0625q0.765625 -1.046875 1.140625 -2.59375l-3.09375 -7.96875q-0.0625 -0.09375 -0.0625 -0.171875zm8.757507 -3.359375q-0.234375 -0.25 -0.234375 -0.5625q0 -0.328125 0.234375 -0.546875q0.25 -0.234375 0.625 -0.234375q0.328125 0 0.5625 0.234375q0.25 0.21875 0.25 0.546875q0 0.3125 -0.25 0.5625q-0.234375 0.234375 -0.5625 0.234375q-0.375 0 -0.625 -0.234375zm0.015625 11.375l0 -8.03125q0 -0.1875 0.15625 -0.3125q0.171875 -0.140625 0.4375 -0.140625q0.28125 0 0.453125 0.140625q0.1875 0.125 0.1875 0.3125l0 8.03125q0 0.203125 -0.203125 0.359375q-0.1875 0.140625 -0.4375 0.140625q-0.234375 0 -0.421875 -0.140625q-0.171875 -0.15625 -0.171875 -0.359375zm3.2195892 -2.984375l0 -2.125q0 -1.421875 1.0625 -2.453125q1.0625 -1.03125 2.5625 -1.03125q1.4375 0 2.484375 0.984375q1.0625 0.984375 1.0625 2.46875q0 0.53125 -0.125 0.859375q-0.109375 0.3125 -0.390625 0.453125q-0.28125 0.125 -0.515625 0.171875q-0.21875 0.03125 -0.609375 0.03125l-4.296875 0l0 0.703125q0 1.125 0.796875 1.796875q0.8125 0.671875 2.09375 0.671875q0.640625 0 1.125 -0.1875q0.484375 -0.1875 0.734375 -0.375q0.265625 -0.1875 0.421875 -0.1875q0.203125 0 0.359375 0.203125q0.171875 0.1875 0.171875 0.375q0 0.40625 -0.828125 0.84375q-0.8125 0.421875 -2.03125 0.421875q-1.796875 0 -2.9375 -1.0q-1.140625 -1.0 -1.140625 -2.625zm1.234375 -1.546875l3.796875 0q0.5625 0 0.75 -0.125q0.203125 -0.125 0.203125 -0.53125q0 -0.9375 -0.6875 -1.65625q-0.671875 -0.734375 -1.6875 -0.734375q-0.984375 0 -1.6875 0.6875q-0.6875 0.6875 -0.6875 1.640625l0 0.71875zm7.794571 4.53125l0 -13.546875q0 -0.1875 0.171875 -0.3125q0.171875 -0.140625 0.4375 -0.140625q0.265625 0 0.4375 0.140625q0.1875 0.125 0.1875 0.3125l0 13.546875q0 0.203125 -0.1875 0.359375q-0.171875 0.140625 -0.4375 0.140625q-0.25 0 -0.4375 -0.140625q-0.171875 -0.15625 -0.171875 -0.359375zm3.377472 -2.984375l0 -2.0625q0 -1.46875 0.984375 -2.5q1.0 -1.046875 2.40625 -1.046875q0.875 0 1.53125 0.421875q0.65625 0.40625 0.984375 1.015625l0 -6.390625q0 -0.1875 0.1875 -0.3125q0.1875 -0.140625 0.453125 -0.140625q0.265625 0 0.421875 0.140625q0.171875 0.125 0.171875 0.3125l0 13.546875q0 0.203125 -0.171875 0.359375q-0.171875 0.140625 -0.421875 0.140625q-0.21875 0 -0.40625 -0.140625q-0.171875 -0.15625 -0.171875 -0.359375l0 -0.828125q-0.328125 0.609375 -1.046875 1.046875q-0.703125 0.421875 -1.5625 0.421875q-1.34375 0 -2.359375 -1.09375q-1.0 -1.09375 -1.0 -2.53125zm1.234375 0q0 0.953125 0.703125 1.71875q0.703125 0.765625 1.65625 0.765625q0.90625 0 1.609375 -0.6875q0.703125 -0.6875 0.703125 -1.203125l0 -2.65625q0 -1.078125 -0.703125 -1.75q-0.6875 -0.671875 -1.59375 -0.671875q-0.96875 0 -1.671875 0.75q-0.703125 0.734375 -0.703125 1.671875l0 2.0625z" fill-rule="nonzero"></path><path fill="#000000" fill-opacity="0.0" d="m102.963684 291.13654l-4.272461E-4 -110.34268" fill-rule="nonzero"></path><path stroke="#000000" stroke-width="2.0" stroke-linejoin="round" stroke-linecap="butt" stroke-dasharray="2.0,6.0" d="m102.963684 291.13654l-3.8146973E-4 -98.34268" fill-rule="evenodd"></path><path fill="#000000" stroke="#000000" stroke-width="2.0" stroke-linecap="butt" d="m106.26677 192.79385l-3.303505 -9.076187l-3.3034286 9.076202z" fill-rule="evenodd"></path><path fill="#000000" fill-opacity="0.0" d="m309.3826 129.06178l0 0c0 -5.7143097 4.6323547 -10.346672 10.34668 -10.346672l146.86572 0c2.74411 0 5.375824 1.0900955 7.3161926 3.0304718c1.9403687 1.9403763 3.0304565 4.57209 3.0304565 7.3162003l0 41.385406c0 5.7143097 -4.6323547 10.346664 -10.346649 10.346664l-146.86572 0c-5.714325 0 -10.34668 -4.6323547 -10.34668 -10.346664z" fill-rule="nonzero"></path><path stroke="#000000" stroke-width="2.0" stroke-linejoin="round" stroke-linecap="butt" d="m309.3826 129.06178l0 0c0 -5.7143097 4.6323547 -10.346672 10.34668 -10.346672l146.86572 0c2.74411 0 5.375824 1.0900955 7.3161926 3.0304718c1.9403687 1.9403763 3.0304565 4.57209 3.0304565 7.3162003l0 41.385406c0 5.7143097 -4.6323547 10.346664 -10.346649 10.346664l-146.86572 0c-5.714325 0 -10.34668 -4.6323547 -10.34668 -10.346664z" fill-rule="nonzero"></path><path fill="#000000" fill-opacity="0.0" d="m599.5815 129.06178l0 0c0 -5.7143097 4.6323853 -10.346672 10.34668 -10.346672l146.86572 0c2.7440796 0 5.3757935 1.0900955 7.316223 3.0304718c1.9403687 1.9403763 3.0304565 4.57209 3.0304565 7.3162003l0 41.385406c0 5.7143097 -4.6323853 10.346664 -10.34668 10.346664l-146.86572 0c-5.7142944 0 -10.34668 -4.6323547 -10.34668 -10.346664z" fill-rule="nonzero"></path><path stroke="#000000" stroke-width="2.0" stroke-linejoin="round" stroke-linecap="butt" d="m599.5815 129.06178l0 0c0 -5.7143097 4.6323853 -10.346672 10.34668 -10.346672l146.86572 0c2.7440796 0 5.3757935 1.0900955 7.316223 3.0304718c1.9403687 1.9403763 3.0304565 4.57209 3.0304565 7.3162003l0 41.385406c0 5.7143097 -4.6323853 10.346664 -10.34668 10.346664l-146.86572 0c-5.7142944 0 -10.34668 -4.6323547 -10.34668 -10.346664z" fill-rule="nonzero"></path><path fill="#000000" fill-opacity="0.0" d="m186.74278 149.75449l122.63982 0" fill-rule="nonzero"></path><path stroke="#000000" stroke-width="2.0" stroke-linejoin="round" stroke-linecap="butt" d="m186.74278 149.75449l110.63982 0" fill-rule="evenodd"></path><path fill="#000000" stroke="#000000" stroke-width="2.0" stroke-linecap="butt" d="m297.3826 153.05795l9.076202 -3.3034668l-9.076202 -3.3034668z" fill-rule="evenodd"></path><path fill="#000000" fill-opacity="0.0" d="m476.94165 149.75449l122.63983 0" fill-rule="nonzero"></path><path stroke="#000000" stroke-width="2.0" stroke-linejoin="round" stroke-linecap="butt" d="m476.94168 149.75449l110.6398 0" fill-rule="evenodd"></path><path fill="#000000" stroke="#000000" stroke-width="2.0" stroke-linecap="butt" d="m587.5815 153.05795l9.076172 -3.3034668l-9.076172 -3.3034668z" fill-rule="evenodd"></path><path fill="#000000" fill-opacity="0.0" d="m767.14056 149.75449l153.22833 0" fill-rule="nonzero"></path><path stroke="#000000" stroke-width="2.0" stroke-linejoin="round" stroke-linecap="butt" d="m767.14056 149.75449l141.2284 0" fill-rule="evenodd"></path><path fill="#000000" stroke="#000000" stroke-width="2.0" stroke-linecap="butt" d="m908.36896 153.05795l9.076172 -3.3034668l-9.076172 -3.3034668z" fill-rule="evenodd"></path><path fill="#000000" fill-opacity="0.0" d="m186.7664 118.71391l70.55119 0l0 31.02362l-70.55119 0z" fill-rule="nonzero"></path><path fill="#000000" d="m196.2664 140.35266q0 -0.203125 0.09375 -0.34375q0.109375 -0.15625 0.28125 -0.15625l2.09375 0l0.453125 -3.03125l-1.828125 0q-0.453125 0 -0.453125 -0.5q0 -0.46875 0.375 -0.46875l2.09375 0l0.546875 -3.484375q0.0625 -0.28125 0.484375 -0.28125q0.609375 0 0.609375 0.546875l-0.515625 3.21875l2.40625 0l0.546875 -3.484375q0.0625 -0.28125 0.484375 -0.28125q0.609375 0 0.609375 0.546875l-0.515625 3.21875l1.859375 0q0.171875 0 0.328125 0.140625q0.15625 0.125 0.15625 0.328125q0 0.1875 -0.125 0.34375q-0.125 0.15625 -0.28125 0.15625l-2.09375 0l-0.484375 3.03125l1.859375 0q0.171875 0 0.3125 0.15625q0.15625 0.140625 0.15625 0.34375q0 0.1875 -0.125 0.328125q-0.125 0.140625 -0.265625 0.140625l-2.109375 0l-0.59375 3.78125q-0.09375 0.390625 -0.53125 0.390625q-0.25 0 -0.421875 -0.140625q-0.171875 -0.15625 -0.171875 -0.421875l0.546875 -3.609375l-2.375 0l-0.578125 3.765625q-0.015625 0.1875 -0.1875 0.296875q-0.15625 0.109375 -0.328125 0.109375q-0.25 0 -0.421875 -0.140625q-0.171875 -0.15625 -0.171875 -0.421875l0.53125 -3.609375l-1.796875 0q-0.453125 0 -0.453125 -0.46875zm3.578125 -0.5l2.40625 0l0.46875 -3.03125l-2.390625 0l-0.484375 3.03125zm8.001602 5.28125l0 -8.03125q0 -0.203125 0.15625 -0.328125q0.171875 -0.125 0.453125 -0.125q0.21875 0 0.390625 0.140625q0.171875 0.125 0.171875 0.3125l0 0.875q0.328125 -0.609375 0.984375 -1.015625q0.671875 -0.421875 1.5625 -0.421875q1.359375 0 2.359375 1.046875q1.015625 1.03125 1.015625 2.5l0 5.046875q0 0.234375 -0.1875 0.375q-0.1875 0.125 -0.4375 0.125q-0.21875 0 -0.421875 -0.125q-0.1875 -0.140625 -0.1875 -0.375l0 -5.046875q0 -0.9375 -0.703125 -1.671875q-0.703125 -0.75 -1.671875 -0.75q-0.890625 0 -1.578125 0.671875q-0.671875 0.671875 -0.671875 1.75l0 5.046875q0 0.203125 -0.203125 0.359375q-0.1875 0.140625 -0.421875 0.140625q-0.28125 0 -0.453125 -0.140625q-0.15625 -0.15625 -0.15625 -0.359375zm8.9097595 -2.984375l0 -2.125q0 -1.421875 1.0625 -2.453125q1.0625 -1.03125 2.5625 -1.03125q1.4375 0 2.484375 0.984375q1.0625 0.984375 1.0625 2.46875q0 0.53125 -0.125 0.859375q-0.109375 0.3125 -0.390625 0.453125q-0.28125 0.125 -0.515625 0.171875q-0.21875 0.03125 -0.609375 0.03125l-4.296875 0l0 0.703125q0 1.125 0.796875 1.796875q0.8125 0.671875 2.09375 0.671875q0.640625 0 1.125 -0.1875q0.484375 -0.1875 0.734375 -0.375q0.265625 -0.1875 0.421875 -0.1875q0.203125 0 0.359375 0.203125q0.171875 0.1875 0.171875 0.375q0 0.40625 -0.828125 0.84375q-0.8125 0.421875 -2.03125 0.421875q-1.796875 0 -2.9375 -1.0q-1.140625 -1.0 -1.140625 -2.625zm1.234375 -1.546875l3.796875 0q0.5625 0 0.75 -0.125q0.203125 -0.125 0.203125 -0.53125q0 -0.9375 -0.6875 -1.65625q-0.671875 -0.734375 -1.6875 -0.734375q-0.984375 0 -1.6875 0.6875q-0.6875 0.6875 -0.6875 1.640625l0 0.71875zm6.919571 4.5625q0 -0.125 0.078125 -0.265625l2.53125 -3.8125l-2.46875 -3.6875q-0.09375 -0.1875 -0.09375 -0.234375q0 -0.234375 0.25 -0.421875q0.265625 -0.203125 0.5 -0.203125q0.265625 0 0.390625 0.1875l2.234375 3.46875l2.265625 -3.46875q0.109375 -0.1875 0.359375 -0.1875q0.25 0 0.5 0.203125q0.265625 0.1875 0.265625 0.421875q0 0.09375 -0.09375 0.234375l-2.5 3.6875l2.546875 3.8125q0.078125 0.109375 0.078125 0.265625q0 0.203125 -0.234375 0.40625q-0.234375 0.203125 -0.5 0.203125q-0.25 0 -0.359375 -0.203125l-2.328125 -3.546875l-2.296875 3.546875q-0.125 0.203125 -0.390625 0.203125q-0.234375 0 -0.484375 -0.203125q-0.25 -0.203125 -0.25 -0.40625zm8.336563 -2.328125l0 -10.015625q0 -0.1875 0.1875 -0.3125q0.1875 -0.140625 0.421875 -0.140625q0.25 0 0.4375 0.140625q0.1875 0.125 0.1875 0.3125l0 3.828125l2.453125 0q0.1875 0 0.3125 0.15625q0.125 0.140625 0.125 0.359375q0 0.203125 -0.125 0.359375q-0.125 0.140625 -0.3125 0.140625l-2.453125 0l0 5.171875q0 0.9375 0.390625 1.3125q0.390625 0.359375 1.375 0.359375l0.53125 0q0.25 0 0.40625 0.171875q0.171875 0.15625 0.171875 0.390625q0 0.21875 -0.171875 0.390625q-0.15625 0.171875 -0.40625 0.171875l-0.53125 0q-3.0 0 -3.0 -2.796875z" fill-rule="nonzero"></path><path fill="#000000" fill-opacity="0.0" d="m476.96588 118.72441l67.08661 0l0 31.02362l-67.08661 0z" fill-rule="nonzero"></path><path fill="#000000" d="m486.46588 140.36316q0 -0.203125 0.09375 -0.34375q0.109375 -0.15625 0.28125 -0.15625l2.09375 0l0.453125 -3.03125l-1.828125 0q-0.453125 0 -0.453125 -0.5q0 -0.46875 0.375 -0.46875l2.09375 0l0.546875 -3.484375q0.0625 -0.28125 0.484375 -0.28125q0.609375 0 0.609375 0.546875l-0.515625 3.21875l2.40625 0l0.546875 -3.484375q0.0625 -0.28125 0.484375 -0.28125q0.609375 0 0.609375 0.546875l-0.515625 3.21875l1.859375 0q0.171875 0 0.328125 0.140625q0.15625 0.125 0.15625 0.328125q0 0.1875 -0.125 0.34375q-0.125 0.15625 -0.28125 0.15625l-2.09375 0l-0.484375 3.03125l1.859375 0q0.171875 0 0.3125 0.15625q0.15625 0.140625 0.15625 0.34375q0 0.1875 -0.125 0.328125q-0.125 0.140625 -0.265625 0.140625l-2.109375 0l-0.59375 3.78125q-0.09375 0.390625 -0.53125 0.390625q-0.25 0 -0.421875 -0.140625q-0.171875 -0.15625 -0.171875 -0.421875l0.546875 -3.609375l-2.375 0l-0.578125 3.765625q-0.015625 0.1875 -0.1875 0.296875q-0.15625 0.109375 -0.328125 0.109375q-0.25 0 -0.421875 -0.140625q-0.171875 -0.15625 -0.171875 -0.421875l0.53125 -3.609375l-1.796875 0q-0.453125 0 -0.453125 -0.46875zm3.578125 -0.5l2.40625 0l0.46875 -3.03125l-2.390625 0l-0.484375 3.03125zm8.001587 5.28125l0 -8.03125q0 -0.203125 0.15625 -0.328125q0.171875 -0.125 0.453125 -0.125q0.21875 0 0.390625 0.140625q0.171875 0.125 0.171875 0.3125l0 0.875q0.328125 -0.609375 0.984375 -1.015625q0.671875 -0.421875 1.5625 -0.421875q1.359375 0 2.359375 1.046875q1.015625 1.03125 1.015625 2.5l0 5.046875q0 0.234375 -0.1875 0.375q-0.1875 0.125 -0.4375 0.125q-0.21875 0 -0.421875 -0.125q-0.1875 -0.140625 -0.1875 -0.375l0 -5.046875q0 -0.9375 -0.703125 -1.671875q-0.703125 -0.75 -1.671875 -0.75q-0.890625 0 -1.578125 0.671875q-0.671875 0.671875 -0.671875 1.75l0 5.046875q0 0.203125 -0.203125 0.359375q-0.1875 0.140625 -0.421875 0.140625q-0.28125 0 -0.453125 -0.140625q-0.15625 -0.15625 -0.15625 -0.359375zm8.9097595 -2.984375l0 -2.125q0 -1.421875 1.0625 -2.453125q1.0625 -1.03125 2.5625 -1.03125q1.4375305 0 2.4844055 0.984375q1.0625 0.984375 1.0625 2.46875q0 0.53125 -0.125 0.859375q-0.109375 0.3125 -0.390625 0.453125q-0.28125 0.125 -0.515625 0.171875q-0.21875 0.03125 -0.609375 0.03125l-4.2969055 0l0 0.703125q0 1.125 0.796875 1.796875q0.8125 0.671875 2.09375 0.671875q0.640625 0 1.1250305 -0.1875q0.484375 -0.1875 0.734375 -0.375q0.265625 -0.1875 0.421875 -0.1875q0.203125 0 0.359375 0.203125q0.171875 0.1875 0.171875 0.375q0 0.40625 -0.828125 0.84375q-0.8125 0.421875 -2.0312805 0.421875q-1.796875 0 -2.9375 -1.0q-1.140625 -1.0 -1.140625 -2.625zm1.234375 -1.546875l3.796875 0q0.5625305 0 0.7500305 -0.125q0.203125 -0.125 0.203125 -0.53125q0 -0.9375 -0.6875 -1.65625q-0.6719055 -0.734375 -1.6875305 -0.734375q-0.984375 0 -1.6875 0.6875q-0.6875 0.6875 -0.6875 1.640625l0 0.71875zm6.919586 4.5625q0 -0.125 0.078125 -0.265625l2.53125 -3.8125l-2.46875 -3.6875q-0.09375 -0.1875 -0.09375 -0.234375q0 -0.234375 0.25 -0.421875q0.265625 -0.203125 0.5 -0.203125q0.265625 0 0.390625 0.1875l2.234375 3.46875l2.265625 -3.46875q0.109375 -0.1875 0.359375 -0.1875q0.25 0 0.5 0.203125q0.265625 0.1875 0.265625 0.421875q0 0.09375 -0.09375 0.234375l-2.5 3.6875l2.546875 3.8125q0.078125 0.109375 0.078125 0.265625q0 0.203125 -0.234375 0.40625q-0.234375 0.203125 -0.5 0.203125q-0.25 0 -0.359375 -0.203125l-2.328125 -3.546875l-2.296875 3.546875q-0.125 0.203125 -0.390625 0.203125q-0.234375 0 -0.484375 -0.203125q-0.25 -0.203125 -0.25 -0.40625zm8.336548 -2.328125l0 -10.015625q0 -0.1875 0.1875 -0.3125q0.1875 -0.140625 0.421875 -0.140625q0.25 0 0.4375 0.140625q0.1875 0.125 0.1875 0.3125l0 3.828125l2.453125 0q0.1875 0 0.3125 0.15625q0.125 0.140625 0.125 0.359375q0 0.203125 -0.125 0.359375q-0.125 0.140625 -0.3125 0.140625l-2.453125 0l0 5.171875q0 0.9375 0.390625 1.3125q0.390625 0.359375 1.375 0.359375l0.53125 0q0.25 0 0.40625 0.171875q0.171875 0.15625 0.171875 0.390625q0 0.21875 -0.171875 0.390625q-0.15625 0.171875 -0.40625 0.171875l-0.53125 0q-3.0 0 -3.0 -2.796875z" fill-rule="nonzero"></path><path fill="#000000" fill-opacity="0.0" d="m767.16534 118.72441l67.08661 0l0 31.02362l-67.08661 0z" fill-rule="nonzero"></path><path fill="#000000" d="m776.66534 140.36316q0 -0.203125 0.09375 -0.34375q0.109375 -0.15625 0.28125 -0.15625l2.09375 0l0.453125 -3.03125l-1.828125 0q-0.453125 0 -0.453125 -0.5q0 -0.46875 0.375 -0.46875l2.09375 0l0.546875 -3.484375q0.0625 -0.28125 0.484375 -0.28125q0.609375 0 0.609375 0.546875l-0.515625 3.21875l2.40625 0l0.546875 -3.484375q0.0625 -0.28125 0.484375 -0.28125q0.609375 0 0.609375 0.546875l-0.515625 3.21875l1.859375 0q0.171875 0 0.328125 0.140625q0.15625 0.125 0.15625 0.328125q0 0.1875 -0.125 0.34375q-0.125 0.15625 -0.28125 0.15625l-2.09375 0l-0.484375 3.03125l1.859375 0q0.171875 0 0.3125 0.15625q0.15625 0.140625 0.15625 0.34375q0 0.1875 -0.125 0.328125q-0.125 0.140625 -0.265625 0.140625l-2.109375 0l-0.59375 3.78125q-0.09375 0.390625 -0.53125 0.390625q-0.25 0 -0.421875 -0.140625q-0.171875 -0.15625 -0.171875 -0.421875l0.546875 -3.609375l-2.375 0l-0.578125 3.765625q-0.015625 0.1875 -0.1875 0.296875q-0.15625 0.109375 -0.328125 0.109375q-0.25 0 -0.421875 -0.140625q-0.171875 -0.15625 -0.171875 -0.421875l0.53125 -3.609375l-1.796875 0q-0.453125 0 -0.453125 -0.46875zm3.578125 -0.5l2.40625 0l0.46875 -3.03125l-2.390625 0l-0.484375 3.03125zm8.001587 5.28125l0 -8.03125q0 -0.203125 0.15625 -0.328125q0.171875 -0.125 0.453125 -0.125q0.21875 0 0.390625 0.140625q0.171875 0.125 0.171875 0.3125l0 0.875q0.328125 -0.609375 0.984375 -1.015625q0.671875 -0.421875 1.5625 -0.421875q1.359375 0 2.359375 1.046875q1.015625 1.03125 1.015625 2.5l0 5.046875q0 0.234375 -0.1875 0.375q-0.1875 0.125 -0.4375 0.125q-0.21875 0 -0.421875 -0.125q-0.1875 -0.140625 -0.1875 -0.375l0 -5.046875q0 -0.9375 -0.703125 -1.671875q-0.703125 -0.75 -1.671875 -0.75q-0.890625 0 -1.578125 0.671875q-0.671875 0.671875 -0.671875 1.75l0 5.046875q0 0.203125 -0.203125 0.359375q-0.1875 0.140625 -0.421875 0.140625q-0.28125 0 -0.453125 -0.140625q-0.15625 -0.15625 -0.15625 -0.359375zm8.90979 -2.984375l0 -2.125q0 -1.421875 1.0625 -2.453125q1.0625 -1.03125 2.5625 -1.03125q1.4375 0 2.484375 0.984375q1.0625 0.984375 1.0625 2.46875q0 0.53125 -0.125 0.859375q-0.109375 0.3125 -0.390625 0.453125q-0.28125 0.125 -0.515625 0.171875q-0.21875 0.03125 -0.609375 0.03125l-4.296875 0l0 0.703125q0 1.125 0.796875 1.796875q0.8125 0.671875 2.09375 0.671875q0.640625 0 1.125 -0.1875q0.484375 -0.1875 0.734375 -0.375q0.265625 -0.1875 0.421875 -0.1875q0.203125 0 0.359375 0.203125q0.171875 0.1875 0.171875 0.375q0 0.40625 -0.828125 0.84375q-0.8125 0.421875 -2.03125 0.421875q-1.796875 0 -2.9375 -1.0q-1.140625 -1.0 -1.140625 -2.625zm1.234375 -1.546875l3.796875 0q0.5625 0 0.75 -0.125q0.203125 -0.125 0.203125 -0.53125q0 -0.9375 -0.6875 -1.65625q-0.671875 -0.734375 -1.6875 -0.734375q-0.984375 0 -1.6875 0.6875q-0.6875 0.6875 -0.6875 1.640625l0 0.71875zm6.9195557 4.5625q0 -0.125 0.078125 -0.265625l2.53125 -3.8125l-2.46875 -3.6875q-0.09375 -0.1875 -0.09375 -0.234375q0 -0.234375 0.25 -0.421875q0.265625 -0.203125 0.5 -0.203125q0.265625 0 0.390625 0.1875l2.234375 3.46875l2.265625 -3.46875q0.109375 -0.1875 0.359375 -0.1875q0.25 0 0.5 0.203125q0.265625 0.1875 0.265625 0.421875q0 0.09375 -0.09375 0.234375l-2.5 3.6875l2.546875 3.8125q0.078125 0.109375 0.078125 0.265625q0 0.203125 -0.234375 0.40625q-0.234375 0.203125 -0.5 0.203125q-0.25 0 -0.359375 -0.203125l-2.328125 -3.546875l-2.296875 3.546875q-0.125 0.203125 -0.390625 0.203125q-0.234375 0 -0.484375 -0.203125q-0.25 -0.203125 -0.25 -0.40625zm8.336548 -2.328125l0 -10.015625q0 -0.1875 0.1875 -0.3125q0.1875 -0.140625 0.421875 -0.140625q0.25 0 0.4375 0.140625q0.1875 0.125 0.1875 0.3125l0 3.828125l2.453125 0q0.1875 0 0.3125 0.15625q0.125 0.140625 0.125 0.359375q0 0.203125 -0.125 0.359375q-0.125 0.140625 -0.3125 0.140625l-2.453125 0l0 5.171875q0 0.9375 0.390625 1.3125q0.390625 0.359375 1.375 0.359375l0.53125 0q0.25 0 0.40625 0.171875q0.171875 0.15625 0.171875 0.390625q0 0.21875 -0.171875 0.390625q-0.15625 0.171875 -0.40625 0.171875l-0.53125 0q-3.0 0 -3.0 -2.796875z" fill-rule="nonzero"></path><path fill="#000000" fill-opacity="0.0" d="m366.58047 291.1234l53.165375 0l0 44.031494l-53.165375 0z" fill-rule="nonzero"></path><path fill="#000000" d="m375.8461 309.5278q0 -0.21875 0.25 -0.390625q0.25 -0.1875 0.515625 -0.1875q0.359375 0 0.4375 0.265625l2.59375 6.984375l2.453125 -6.984375q0.109375 -0.265625 0.421875 -0.265625q0.25 0 0.5 0.1875q0.25 0.171875 0.25 0.40625q0 0.125 -0.03125 0.15625l-2.9375 7.984375l-0.34375 0.921875q-0.09375 0.25 -0.375 0.890625q-0.28125 0.65625 -0.46875 0.9375l-0.484375 0.765625q-0.328125 0.46875 -0.625 0.671875q-0.296875 0.21875 -0.71875 0.390625q-0.40625 0.1875 -0.84375 0.1875q-0.578125 0 -0.578125 -0.546875q0 -0.578125 0.390625 -0.578125q0.859375 0 1.609375 -1.0625q0.765625 -1.046875 1.140625 -2.59375l-3.09375 -7.96875q-0.0625 -0.09375 -0.0625 -0.171875zm8.757507 -3.359375q-0.234375 -0.25 -0.234375 -0.5625q0 -0.328125 0.234375 -0.546875q0.25 -0.234375 0.625 -0.234375q0.328125 0 0.5625 0.234375q0.25 0.21875 0.25 0.546875q0 0.3125 -0.25 0.5625q-0.234375 0.234375 -0.5625 0.234375q-0.375 0 -0.625 -0.234375zm0.015625 11.375l0 -8.03125q0 -0.1875 0.15625 -0.3125q0.171875 -0.140625 0.4375 -0.140625q0.28125 0 0.453125 0.140625q0.1875 0.125 0.1875 0.3125l0 8.03125q0 0.203125 -0.203125 0.359375q-0.1875 0.140625 -0.4375 0.140625q-0.234375 0 -0.421875 -0.140625q-0.171875 -0.15625 -0.171875 -0.359375zm3.2196045 -2.984375l0 -2.125q0 -1.421875 1.0625 -2.453125q1.0625 -1.03125 2.5625 -1.03125q1.4375 0 2.484375 0.984375q1.0625 0.984375 1.0625 2.46875q0 0.53125 -0.125 0.859375q-0.109375 0.3125 -0.390625 0.453125q-0.28125 0.125 -0.515625 0.171875q-0.21875 0.03125 -0.609375 0.03125l-4.296875 0l0 0.703125q0 1.125 0.796875 1.796875q0.8125 0.671875 2.09375 0.671875q0.640625 0 1.125 -0.1875q0.484375 -0.1875 0.734375 -0.375q0.265625 -0.1875 0.421875 -0.1875q0.203125 0 0.359375 0.203125q0.171875 0.1875 0.171875 0.375q0 0.40625 -0.828125 0.84375q-0.8125 0.421875 -2.03125 0.421875q-1.796875 0 -2.9375 -1.0q-1.140625 -1.0 -1.140625 -2.625zm1.234375 -1.546875l3.796875 0q0.5625 0 0.75 -0.125q0.203125 -0.125 0.203125 -0.53125q0 -0.9375 -0.6875 -1.65625q-0.671875 -0.734375 -1.6875 -0.734375q-0.984375 0 -1.6875 0.6875q-0.6875 0.6875 -0.6875 1.640625l0 0.71875zm7.7945557 4.53125l0 -13.546875q0 -0.1875 0.171875 -0.3125q0.171875 -0.140625 0.4375 -0.140625q0.265625 0 0.4375 0.140625q0.1875 0.125 0.1875 0.3125l0 13.546875q0 0.203125 -0.1875 0.359375q-0.171875 0.140625 -0.4375 0.140625q-0.25 0 -0.4375 -0.140625q-0.171875 -0.15625 -0.171875 -0.359375zm3.377472 -2.984375l0 -2.0625q0 -1.46875 0.984375 -2.5q1.0 -1.046875 2.40625 -1.046875q0.875 0 1.53125 0.421875q0.65625 0.40625 0.984375 1.015625l0 -6.390625q0 -0.1875 0.1875 -0.3125q0.1875 -0.140625 0.453125 -0.140625q0.265625 0 0.421875 0.140625q0.171875 0.125 0.171875 0.3125l0 13.546875q0 0.203125 -0.171875 0.359375q-0.171875 0.140625 -0.421875 0.140625q-0.21875 0 -0.40625 -0.140625q-0.171875 -0.15625 -0.171875 -0.359375l0 -0.828125q-0.328125 0.609375 -1.046875 1.046875q-0.703125 0.421875 -1.5625 0.421875q-1.34375 0 -2.359375 -1.09375q-1.0 -1.09375 -1.0 -2.53125zm1.234375 0q0 0.953125 0.703125 1.71875q0.703125 0.765625 1.65625 0.765625q0.90625 0 1.609375 -0.6875q0.703125 -0.6875 0.703125 -1.203125l0 -2.65625q0 -1.078125 -0.703125 -1.75q-0.6875 -0.671875 -1.59375 -0.671875q-0.96875 0 -1.671875 0.75q-0.703125 0.734375 -0.703125 1.671875l0 2.0625z" fill-rule="nonzero"></path><path fill="#000000" fill-opacity="0.0" d="m393.16315 291.1234l0 -110.3307" fill-rule="nonzero"></path><path stroke="#000000" stroke-width="2.0" stroke-linejoin="round" stroke-linecap="butt" stroke-dasharray="2.0,6.0" d="m393.16318 291.1234l0 -98.3307" fill-rule="evenodd"></path><path fill="#000000" stroke="#000000" stroke-width="2.0" stroke-linecap="butt" d="m396.46664 192.79271l-3.3034668 -9.076187l-3.3034668 9.076187z" fill-rule="evenodd"></path><path fill="#000000" fill-opacity="0.0" d="m656.77997 291.1234l53.165344 0l0 44.031494l-53.165344 0z" fill-rule="nonzero"></path><path fill="#000000" d="m666.0456 309.5278q0 -0.21875 0.25 -0.390625q0.25 -0.1875 0.515625 -0.1875q0.359375 0 0.4375 0.265625l2.59375 6.984375l2.453125 -6.984375q0.109375 -0.265625 0.421875 -0.265625q0.25 0 0.5 0.1875q0.25 0.171875 0.25 0.40625q0 0.125 -0.03125 0.15625l-2.9375 7.984375l-0.34375 0.921875q-0.09375 0.25 -0.375 0.890625q-0.28125 0.65625 -0.46875 0.9375l-0.484375 0.765625q-0.328125 0.46875 -0.625 0.671875q-0.296875 0.21875 -0.71875 0.390625q-0.40625 0.1875 -0.84375 0.1875q-0.578125 0 -0.578125 -0.546875q0 -0.578125 0.390625 -0.578125q0.859375 0 1.609375 -1.0625q0.765625 -1.046875 1.140625 -2.59375l-3.09375 -7.96875q-0.0625 -0.09375 -0.0625 -0.171875zm8.757507 -3.359375q-0.234375 -0.25 -0.234375 -0.5625q0 -0.328125 0.234375 -0.546875q0.25 -0.234375 0.625 -0.234375q0.328125 0 0.5625 0.234375q0.25 0.21875 0.25 0.546875q0 0.3125 -0.25 0.5625q-0.234375 0.234375 -0.5625 0.234375q-0.375 0 -0.625 -0.234375zm0.015625 11.375l0 -8.03125q0 -0.1875 0.15625 -0.3125q0.171875 -0.140625 0.4375 -0.140625q0.28125 0 0.453125 0.140625q0.1875 0.125 0.1875 0.3125l0 8.03125q0 0.203125 -0.203125 0.359375q-0.1875 0.140625 -0.4375 0.140625q-0.234375 0 -0.421875 -0.140625q-0.171875 -0.15625 -0.171875 -0.359375zm3.2196045 -2.984375l0 -2.125q0 -1.421875 1.0625 -2.453125q1.0625 -1.03125 2.5625 -1.03125q1.4375 0 2.484375 0.984375q1.0625 0.984375 1.0625 2.46875q0 0.53125 -0.125 0.859375q-0.109375 0.3125 -0.390625 0.453125q-0.28125 0.125 -0.515625 0.171875q-0.21875 0.03125 -0.609375 0.03125l-4.296875 0l0 0.703125q0 1.125 0.796875 1.796875q0.8125 0.671875 2.09375 0.671875q0.640625 0 1.125 -0.1875q0.484375 -0.1875 0.734375 -0.375q0.265625 -0.1875 0.421875 -0.1875q0.203125 0 0.359375 0.203125q0.171875 0.1875 0.171875 0.375q0 0.40625 -0.828125 0.84375q-0.8125 0.421875 -2.03125 0.421875q-1.796875 0 -2.9375 -1.0q-1.140625 -1.0 -1.140625 -2.625zm1.234375 -1.546875l3.796875 0q0.5625 0 0.75 -0.125q0.203125 -0.125 0.203125 -0.53125q0 -0.9375 -0.6875 -1.65625q-0.671875 -0.734375 -1.6875 -0.734375q-0.984375 0 -1.6875 0.6875q-0.6875 0.6875 -0.6875 1.640625l0 0.71875zm7.7945557 4.53125l0 -13.546875q0 -0.1875 0.171875 -0.3125q0.171875 -0.140625 0.4375 -0.140625q0.265625 0 0.4375 0.140625q0.1875 0.125 0.1875 0.3125l0 13.546875q0 0.203125 -0.1875 0.359375q-0.171875 0.140625 -0.4375 0.140625q-0.25 0 -0.4375 -0.140625q-0.171875 -0.15625 -0.171875 -0.359375zm3.3774414 -2.984375l0 -2.0625q0 -1.46875 0.984375 -2.5q1.0 -1.046875 2.40625 -1.046875q0.875 0 1.53125 0.421875q0.65625 0.40625 0.984375 1.015625l0 -6.390625q0 -0.1875 0.1875 -0.3125q0.1875 -0.140625 0.453125 -0.140625q0.265625 0 0.421875 0.140625q0.171875 0.125 0.171875 0.3125l0 13.546875q0 0.203125 -0.171875 0.359375q-0.171875 0.140625 -0.421875 0.140625q-0.21875 0 -0.40625 -0.140625q-0.171875 -0.15625 -0.171875 -0.359375l0 -0.828125q-0.328125 0.609375 -1.046875 1.046875q-0.703125 0.421875 -1.5625 0.421875q-1.34375 0 -2.359375 -1.09375q-1.0 -1.09375 -1.0 -2.53125zm1.234375 0q0 0.953125 0.703125 1.71875q0.703125 0.765625 1.65625 0.765625q0.90625 0 1.609375 -0.6875q0.703125 -0.6875 0.703125 -1.203125l0 -2.65625q0 -1.078125 -0.703125 -1.75q-0.6875 -0.671875 -1.59375 -0.671875q-0.96875 0 -1.671875 0.75q-0.703125 0.734375 -0.703125 1.671875l0 2.0625z" fill-rule="nonzero"></path><path fill="#000000" fill-opacity="0.0" d="m683.3626 291.1234l0 -110.3307" fill-rule="nonzero"></path><path stroke="#000000" stroke-width="2.0" stroke-linejoin="round" stroke-linecap="butt" stroke-dasharray="2.0,6.0" d="m683.3627 291.1234l0 -98.3307" fill-rule="evenodd"></path><path fill="#000000" stroke="#000000" stroke-width="2.0" stroke-linecap="butt" d="m686.66614 192.79271l-3.3034668 -9.076187l-3.3034668 9.076187z" fill-rule="evenodd"></path><path fill="#000000" fill-opacity="0.0" d="m284.38846 103.82736l0 0c0 -16.206482 13.137939 -29.344421 29.344421 -29.344421l158.41351 0c7.7826233 0 15.2464905 3.0916367 20.749634 8.59478c5.5031433 5.5031433 8.594788 12.9670105 8.594788 20.749641l0 117.374146c0 16.206482 -13.137939 29.344421 -29.344421 29.344421l-158.41351 0l0 0c-16.206482 0 -29.344421 -13.137939 -29.344421 -29.344421z" fill-rule="nonzero"></path><path stroke="#000000" stroke-width="1.0" stroke-linejoin="round" stroke-linecap="butt" stroke-dasharray="1.0,3.0" d="m284.38846 103.82736l0 0c0 -16.206482 13.137939 -29.344421 29.344421 -29.344421l158.41351 0c7.7826233 0 15.2464905 3.0916367 20.749634 8.59478c5.5031433 5.5031433 8.594788 12.9670105 8.594788 20.749641l0 117.374146c0 16.206482 -13.137939 29.344421 -29.344421 29.344421l-158.41351 0l0 0c-16.206482 0 -29.344421 -13.137939 -29.344421 -29.344421z" fill-rule="nonzero"></path></g></svg>

