<?xml version="1.0" standalone="yes"?>

<svg version="1.1" viewBox="0.0 0.0 960.0 720.0" fill="none" stroke="none" stroke-linecap="square" stroke-miterlimit="10" xmlns="http://www.w3.org/2000/svg" xmlns:xlink="http://www.w3.org/1999/xlink"><clipPath id="p.0"><path d="m0 0l960.0 0l0 720.0l-960.0 0l0 -720.0z" clip-rule="nonzero"></path></clipPath><g clip-path="url(#p.0)"><path fill="#000000" fill-opacity="0.0" d="m0 0l960.0 0l0 720.0l-960.0 0z" fill-rule="nonzero"></path><path fill="#000000" fill-opacity="0.0" d="m37.238846 261.75687l0 0c0 -6.5927734 5.344486 -11.937256 11.937244 -11.937256l169.41685 0c3.1659546 0 6.20224 1.2576752 8.440903 3.496338c2.2386627 2.238678 3.496338 5.2749634 3.496338 8.440918l0 47.74756c0 6.592743 -5.3444824 11.937225 -11.937241 11.937225l-169.41685 0c-6.592758 0 -11.937244 -5.3444824 -11.937244 -11.937225z" fill-rule="nonzero"></path><path stroke="#000000" stroke-width="2.0" stroke-linejoin="round" stroke-linecap="butt" d="m37.238846 261.75687l0 0c0 -6.5927734 5.344486 -11.937256 11.937244 -11.937256l169.41685 0c3.1659546 0 6.20224 1.2576752 8.440903 3.496338c2.2386627 2.238678 3.496338 5.2749634 3.496338 8.440918l0 47.74756c0 6.592743 -5.3444824 11.937225 -11.937241 11.937225l-169.41685 0c-6.592758 0 -11.937244 -5.3444824 -11.937244 -11.937225z" fill-rule="nonzero"></path><path fill="#000000" fill-opacity="0.0" d="m706.69257 261.75687l0 0c0 -6.5927734 5.3444824 -11.937256 11.937256 -11.937256l169.41681 0c3.1659546 0 6.2022705 1.2576752 8.440918 3.496338c2.2387085 2.238678 3.496338 5.2749634 3.496338 8.440918l0 47.74756c0 6.592743 -5.3444824 11.937225 -11.937256 11.937225l-169.41681 0c-6.5927734 0 -11.937256 -5.3444824 -11.937256 -11.937225z" fill-rule="nonzero"></path><path stroke="#000000" stroke-width="2.0" stroke-linejoin="round" stroke-linecap="butt" d="m706.69257 261.75687l0 0c0 -6.5927734 5.3444824 -11.937256 11.937256 -11.937256l169.41681 0c3.1659546 0 6.2022705 1.2576752 8.440918 3.496338c2.2387085 2.238678 3.496338 5.2749634 3.496338 8.440918l0 47.74756c0 6.592743 -5.3444824 11.937225 -11.937256 11.937225l-169.41681 0c-6.5927734 0 -11.937256 -5.3444824 -11.937256 -11.937225z" fill-rule="nonzero"></path><path fill="#000000" fill-opacity="0.0" d="m371.9657 134.88918l0 0c0 -6.592758 5.3444824 -11.937248 11.937256 -11.937248l169.41687 0c3.1659546 0 6.2022095 1.2576675 8.440857 3.496338c2.2387085 2.2386703 3.496338 5.2749557 3.496338 8.44091l0 47.74756c0 6.592758 -5.3444824 11.937241 -11.937195 11.937241l-169.41687 0c-6.5927734 0 -11.937256 -5.3444824 -11.937256 -11.937241z" fill-rule="nonzero"></path><path stroke="#000000" stroke-width="2.0" stroke-linejoin="round" stroke-linecap="butt" d="m371.9657 134.88918l0 0c0 -6.592758 5.3444824 -11.937248 11.937256 -11.937248l169.41687 0c3.1659546 0 6.2022095 1.2576675 8.440857 3.496338c2.2387085 2.2386703 3.496338 5.2749557 3.496338 8.44091l0 47.74756c0 6.592758 -5.3444824 11.937241 -11.937195 11.937241l-169.41687 0c-6.5927734 0 -11.937256 -5.3444824 -11.937256 -11.937241z" fill-rule="nonzero"></path><path fill="#000000" d="m448.5648 162.88608l0 -10.015625q0 -0.1875 0.1875 -0.3125q0.1875 -0.140625 0.421875 -0.140625q0.25 0 0.4375 0.140625q0.1875 0.125 0.1875 0.3125l0 3.828125l2.453125 0q0.1875 0 0.3125 0.15625q0.125 0.140625 0.125 0.359375q0 0.203125 -0.125 0.359375q-0.125 0.140625 -0.3125 0.140625l-2.453125 0l0 5.171875q0 0.9375 0.390625 1.3125q0.390625 0.359375 1.375 0.359375l0.53125 0q0.25 0 0.40625 0.171875q0.171875 0.15625 0.171875 0.390625q0 0.21875 -0.171875 0.390625q-0.15625 0.171875 -0.40625 0.171875l-0.53125 0q-3.0 0 -3.0 -2.796875zm4.947174 0.421875q0 -1.46875 1.125 -2.03125q1.140625 -0.578125 3.3125 -0.578125l0.96875 0l0 -0.453125q0 -1.046875 -0.5625 -1.8125q-0.546875 -0.765625 -1.6875 -0.765625q-0.75 0 -1.375 0.28125q-0.609375 0.265625 -0.65625 0.265625q-0.21875 0 -0.359375 -0.203125q-0.125 -0.21875 -0.125 -0.453125q0 -0.375 0.8125 -0.671875q0.8125 -0.296875 1.75 -0.296875q1.78125 0 2.609375 1.03125q0.828125 1.03125 0.828125 2.625l0 4.9375q0 0.21875 -0.171875 0.359375q-0.171875 0.140625 -0.4375 0.140625q-0.25 0 -0.421875 -0.140625q-0.15625 -0.140625 -0.15625 -0.359375l0 -0.828125q-1.265625 1.46875 -2.859375 1.46875q-1.140625 0 -1.875 -0.640625q-0.71875 -0.640625 -0.71875 -1.875zm1.25 -0.109375q0 0.796875 0.453125 1.1875q0.453125 0.390625 1.1875 0.390625q0.890625 0 1.703125 -0.65625q0.8125 -0.671875 0.8125 -1.34375l0 -1.21875l-0.796875 0q-0.765625 0 -1.296875 0.0625q-0.515625 0.046875 -1.03125 0.203125q-0.5 0.15625 -0.765625 0.5q-0.265625 0.34375 -0.265625 0.875zm7.562042 1.984375l0 -8.03125q0 -0.1875 0.15625 -0.3125q0.171875 -0.140625 0.453125 -0.140625q0.234375 0 0.40625 0.140625q0.171875 0.125 0.171875 0.3125l0 0.9375q0.34375 -0.640625 1.0 -1.0625q0.671875 -0.4375 1.546875 -0.4375l0.671875 0q0.1875 0 0.328125 0.171875q0.15625 0.15625 0.15625 0.390625q0 0.234375 -0.15625 0.40625q-0.140625 0.15625 -0.328125 0.15625l-0.671875 0q-0.984375 0 -1.75 0.78125q-0.75 0.765625 -0.75 2.0l0 4.6875q0 0.203125 -0.1875 0.359375q-0.171875 0.140625 -0.4375 0.140625q-0.25 0 -0.4375 -0.140625q-0.171875 -0.15625 -0.171875 -0.359375zm5.440857 2.375q0 -1.421875 1.625 -2.0625q-1.046875 -0.359375 -1.046875 -1.3125q0 -0.859375 0.953125 -1.375q-1.046875 -0.875 -1.046875 -2.390625l0 -0.71875q0 -1.390625 0.890625 -2.25q0.90625 -0.859375 2.375 -0.859375q1.328125 0 2.21875 0.796875q0.28125 -0.5625 0.640625 -0.875q0.375 -0.328125 0.71875 -0.328125q0.265625 0 0.40625 0.15625q0.15625 0.140625 0.15625 0.34375q0 0.34375 -0.328125 0.40625q-0.65625 0.140625 -1.0625 0.828125q0.53125 0.703125 0.53125 1.78125l0 0.71875q0 1.375 -0.9375 2.265625q-0.921875 0.890625 -2.359375 0.890625q-0.78125 0 -1.46875 -0.328125q-0.59375 0.328125 -0.59375 0.75q0 0.390625 0.4375 0.609375q0.4375 0.203125 1.09375 0.265625q0.65625 0.046875 1.421875 0.171875q0.78125 0.125 1.4375 0.3125q0.65625 0.1875 1.09375 0.703125q0.4375 0.515625 0.4375 1.328125q0 1.296875 -1.03125 2.0q-1.03125 0.703125 -2.703125 0.703125q-1.703125 0 -2.78125 -0.6875q-1.078125 -0.671875 -1.078125 -1.84375zm1.203125 -0.109375q0 0.78125 0.703125 1.25q0.71875 0.484375 1.9375 0.484375q1.203125 0 1.875 -0.484375q0.671875 -0.46875 0.671875 -1.265625q0 -0.375 -0.1875 -0.671875q-0.1875 -0.28125 -0.453125 -0.4375q-0.25 -0.140625 -0.671875 -0.265625q-0.421875 -0.109375 -0.734375 -0.15625q-0.3125 -0.03125 -0.78125 -0.0625l-0.671875 -0.078125q-1.6875 0.53125 -1.6875 1.6875zm0.46875 -7.046875q0 0.984375 0.5625 1.609375q0.5625 0.625 1.53125 0.625q0.9375 0 1.484375 -0.625q0.5625 -0.625 0.5625 -1.59375l0 -0.71875q0 -0.953125 -0.5625 -1.5625q-0.546875 -0.625 -1.5 -0.625q-0.953125 0 -1.515625 0.625q-0.5625 0.609375 -0.5625 1.5625l0 0.703125zm7.151367 1.796875l0 -2.125q0 -1.421875 1.0625 -2.453125q1.0625 -1.03125 2.5625 -1.03125q1.4375 0 2.484375 0.984375q1.0625 0.984375 1.0625 2.46875q0 0.53125 -0.125 0.859375q-0.109375 0.3125 -0.390625 0.453125q-0.28125 0.125 -0.515625 0.171875q-0.21875 0.03125 -0.609375 0.03125l-4.296875 0l0 0.703125q0 1.125 0.796875 1.796875q0.8125 0.671875 2.09375 0.671875q0.640625 0 1.125 -0.1875q0.484375 -0.1875 0.734375 -0.375q0.265625 -0.1875 0.421875 -0.1875q0.203125 0 0.359375 0.203125q0.171875 0.1875 0.171875 0.375q0 0.40625 -0.828125 0.84375q-0.8125 0.421875 -2.03125 0.421875q-1.796875 0 -2.9375 -1.0q-1.140625 -1.0 -1.140625 -2.625zm1.234375 -1.546875l3.796875 0q0.5625 0 0.75 -0.125q0.203125 -0.125 0.203125 -0.53125q0 -0.9375 -0.6875 -1.65625q-0.671875 -0.734375 -1.6875 -0.734375q-0.984375 0 -1.6875 0.6875q-0.6875 0.6875 -0.6875 1.640625l0 0.71875zm7.607086 2.234375l0 -10.015625q0 -0.1875 0.1875 -0.3125q0.1875 -0.140625 0.421875 -0.140625q0.25 0 0.4375 0.140625q0.1875 0.125 0.1875 0.3125l0 3.828125l2.453125 0q0.1875 0 0.3125 0.15625q0.125 0.140625 0.125 0.359375q0 0.203125 -0.125 0.359375q-0.125 0.140625 -0.3125 0.140625l-2.453125 0l0 5.171875q0 0.9375 0.390625 1.3125q0.390625 0.359375 1.375 0.359375l0.53125 0q0.25 0 0.40625 0.171875q0.171875 0.15625 0.171875 0.390625q0 0.21875 -0.171875 0.390625q-0.15625 0.171875 -0.40625 0.171875l-0.53125 0q-3.0 0 -3.0 -2.796875z" fill-rule="nonzero"></path><path fill="#000000" fill-opacity="0.0" d="m230.53018 285.63065l476.16238 0" fill-rule="nonzero"></path><path stroke="#000000" stroke-width="2.0" stroke-linejoin="round" stroke-linecap="butt" d="m230.53018 285.63065l464.16238 0" fill-rule="evenodd"></path><path fill="#000000" stroke="#000000" stroke-width="2.0" stroke-linecap="butt" d="m694.69257 288.9341l9.076233 -3.3034668l-9.076233 -3.3034668z" fill-rule="evenodd"></path><path fill="#000000" fill-opacity="0.0" d="m371.9657 261.7553l0 0c0 -6.592758 5.3444824 -11.937241 11.937256 -11.937241l169.41687 0c3.1659546 0 6.2022095 1.2576752 8.440857 3.496338c2.2387085 2.2386627 3.496338 5.274948 3.496338 8.440903l0 47.74756c0 6.5927734 -5.3444824 11.937256 -11.937195 11.937256l-169.41687 0c-6.5927734 0 -11.937256 -5.3444824 -11.937256 -11.937256z" fill-rule="nonzero"></path><path stroke="#000000" stroke-width="2.0" stroke-linejoin="round" stroke-linecap="butt" stroke-dasharray="8.0,6.0,2.0,6.0" d="m371.9657 261.7553l0 0c0 -6.592758 5.3444824 -11.937241 11.937256 -11.937241l169.41687 0c3.1659546 0 6.2022095 1.2576752 8.440857 3.496338c2.2387085 2.2386627 3.496338 5.274948 3.496338 8.440903l0 47.74756c0 6.5927734 -5.3444824 11.937256 -11.937195 11.937256l-169.41687 0c-6.5927734 0 -11.937256 -5.3444824 -11.937256 -11.937256z" fill-rule="nonzero"></path><path fill="#000000" d="m448.5648 289.75223l0 -10.015625q0 -0.1875 0.1875 -0.3125q0.1875 -0.140625 0.421875 -0.140625q0.25 0 0.4375 0.140625q0.1875 0.125 0.1875 0.3125l0 3.828125l2.453125 0q0.1875 0 0.3125 0.15625q0.125 0.140625 0.125 0.359375q0 0.203125 -0.125 0.359375q-0.125 0.140625 -0.3125 0.140625l-2.453125 0l0 5.171875q0 0.9375 0.390625 1.3125q0.390625 0.359375 1.375 0.359375l0.53125 0q0.25 0 0.40625 0.171875q0.171875 0.15625 0.171875 0.390625q0 0.21875 -0.171875 0.390625q-0.15625 0.171875 -0.40625 0.171875l-0.53125 0q-3.0 0 -3.0 -2.796875zm4.947174 0.421875q0 -1.46875 1.125 -2.03125q1.140625 -0.578125 3.3125 -0.578125l0.96875 0l0 -0.453125q0 -1.046875 -0.5625 -1.8125q-0.546875 -0.765625 -1.6875 -0.765625q-0.75 0 -1.375 0.28125q-0.609375 0.265625 -0.65625 0.265625q-0.21875 0 -0.359375 -0.203125q-0.125 -0.21875 -0.125 -0.453125q0 -0.375 0.8125 -0.671875q0.8125 -0.296875 1.75 -0.296875q1.78125 0 2.609375 1.03125q0.828125 1.03125 0.828125 2.625l0 4.9375q0 0.21875 -0.171875 0.359375q-0.171875 0.140625 -0.4375 0.140625q-0.25 0 -0.421875 -0.140625q-0.15625 -0.140625 -0.15625 -0.359375l0 -0.828125q-1.265625 1.46875 -2.859375 1.46875q-1.140625 0 -1.875 -0.640625q-0.71875 -0.640625 -0.71875 -1.875zm1.25 -0.109375q0 0.796875 0.453125 1.1875q0.453125 0.390625 1.1875 0.390625q0.890625 0 1.703125 -0.65625q0.8125 -0.671875 0.8125 -1.34375l0 -1.21875l-0.796875 0q-0.765625 0 -1.296875 0.0625q-0.515625 0.046875 -1.03125 0.203125q-0.5 0.15625 -0.765625 0.5q-0.265625 0.34375 -0.265625 0.875zm7.562042 1.984375l0 -8.03125q0 -0.1875 0.15625 -0.3125q0.171875 -0.140625 0.453125 -0.140625q0.234375 0 0.40625 0.140625q0.171875 0.125 0.171875 0.3125l0 0.9375q0.34375 -0.640625 1.0 -1.0625q0.671875 -0.4375 1.546875 -0.4375l0.671875 0q0.1875 0 0.328125 0.171875q0.15625 0.15625 0.15625 0.390625q0 0.234375 -0.15625 0.40625q-0.140625 0.15625 -0.328125 0.15625l-0.671875 0q-0.984375 0 -1.75 0.78125q-0.75 0.765625 -0.75 2.0l0 4.6875q0 0.203125 -0.1875 0.359375q-0.171875 0.140625 -0.4375 0.140625q-0.25 0 -0.4375 -0.140625q-0.171875 -0.15625 -0.171875 -0.359375zm5.440857 2.375q0 -1.421875 1.625 -2.0625q-1.046875 -0.359375 -1.046875 -1.3125q0 -0.859375 0.953125 -1.375q-1.046875 -0.875 -1.046875 -2.390625l0 -0.71875q0 -1.390625 0.890625 -2.25q0.90625 -0.859375 2.375 -0.859375q1.328125 0 2.21875 0.796875q0.28125 -0.5625 0.640625 -0.875q0.375 -0.328125 0.71875 -0.328125q0.265625 0 0.40625 0.15625q0.15625 0.140625 0.15625 0.34375q0 0.34375 -0.328125 0.40625q-0.65625 0.140625 -1.0625 0.828125q0.53125 0.703125 0.53125 1.78125l0 0.71875q0 1.375 -0.9375 2.265625q-0.921875 0.890625 -2.359375 0.890625q-0.78125 0 -1.46875 -0.328125q-0.59375 0.328125 -0.59375 0.75q0 0.390625 0.4375 0.609375q0.4375 0.203125 1.09375 0.265625q0.65625 0.046875 1.421875 0.171875q0.78125 0.125 1.4375 0.3125q0.65625 0.1875 1.09375 0.703125q0.4375 0.515625 0.4375 1.328125q0 1.296875 -1.03125 2.0q-1.03125 0.703125 -2.703125 0.703125q-1.703125 0 -2.78125 -0.6875q-1.078125 -0.671875 -1.078125 -1.84375zm1.203125 -0.109375q0 0.78125 0.703125 1.25q0.71875 0.484375 1.9375 0.484375q1.203125 0 1.875 -0.484375q0.671875 -0.46875 0.671875 -1.265625q0 -0.375 -0.1875 -0.671875q-0.1875 -0.28125 -0.453125 -0.4375q-0.25 -0.140625 -0.671875 -0.265625q-0.421875 -0.109375 -0.734375 -0.15625q-0.3125 -0.03125 -0.78125 -0.0625l-0.671875 -0.078125q-1.6875 0.53125 -1.6875 1.6875zm0.46875 -7.046875q0 0.984375 0.5625 1.609375q0.5625 0.625 1.53125 0.625q0.9375 0 1.484375 -0.625q0.5625 -0.625 0.5625 -1.59375l0 -0.71875q0 -0.953125 -0.5625 -1.5625q-0.546875 -0.625 -1.5 -0.625q-0.953125 0 -1.515625 0.625q-0.5625 0.609375 -0.5625 1.5625l0 0.703125zm7.151367 1.796875l0 -2.125q0 -1.421875 1.0625 -2.453125q1.0625 -1.03125 2.5625 -1.03125q1.4375 0 2.484375 0.984375q1.0625 0.984375 1.0625 2.46875q0 0.53125 -0.125 0.859375q-0.109375 0.3125 -0.390625 0.453125q-0.28125 0.125 -0.515625 0.171875q-0.21875 0.03125 -0.609375 0.03125l-4.296875 0l0 0.703125q0 1.125 0.796875 1.796875q0.8125 0.671875 2.09375 0.671875q0.640625 0 1.125 -0.1875q0.484375 -0.1875 0.734375 -0.375q0.265625 -0.1875 0.421875 -0.1875q0.203125 0 0.359375 0.203125q0.171875 0.1875 0.171875 0.375q0 0.40625 -0.828125 0.84375q-0.8125 0.421875 -2.03125 0.421875q-1.796875 0 -2.9375 -1.0q-1.140625 -1.0 -1.140625 -2.625zm1.234375 -1.546875l3.796875 0q0.5625 0 0.75 -0.125q0.203125 -0.125 0.203125 -0.53125q0 -0.9375 -0.6875 -1.65625q-0.671875 -0.734375 -1.6875 -0.734375q-0.984375 0 -1.6875 0.6875q-0.6875 0.6875 -0.6875 1.640625l0 0.71875zm7.607086 2.234375l0 -10.015625q0 -0.1875 0.1875 -0.3125q0.1875 -0.140625 0.421875 -0.140625q0.25 0 0.4375 0.140625q0.1875 0.125 0.1875 0.3125l0 3.828125l2.453125 0q0.1875 0 0.3125 0.15625q0.125 0.140625 0.125 0.359375q0 0.203125 -0.125 0.359375q-0.125 0.140625 -0.3125 0.140625l-2.453125 0l0 5.171875q0 0.9375 0.390625 1.3125q0.390625 0.359375 1.375 0.359375l0.53125 0q0.25 0 0.40625 0.171875q0.171875 0.15625 0.171875 0.390625q0 0.21875 -0.171875 0.390625q-0.15625 0.171875 -0.40625 0.171875l-0.53125 0q-3.0 0 -3.0 -2.796875z" fill-rule="nonzero"></path><path fill="#000000" fill-opacity="0.0" d="m468.6114 249.81807l0 -55.244095" fill-rule="nonzero"></path><path stroke="#000000" stroke-width="2.0" stroke-linejoin="round" stroke-linecap="butt" stroke-dasharray="8.0,6.0,2.0,6.0" d="m468.6114 249.81808l0 -43.244095" fill-rule="evenodd"></path><path fill="#000000" stroke="#000000" stroke-width="2.0" stroke-linecap="butt" d="m471.91486 206.57399l-3.3034668 -9.076202l-3.3034668 9.076202z" fill-rule="evenodd"></path><path fill="#000000" fill-opacity="0.0" d="m48.627296 589.2739l0 0c0 -6.5927734 5.344486 -11.937256 11.937248 -11.937256l169.41684 0c3.1659546 0 6.20224 1.2576904 8.440918 3.496338c2.2386627 2.2386475 3.496338 5.2749634 3.496338 8.440918l0 47.74756c0 6.5927734 -5.3444977 11.937256 -11.937256 11.937256l-169.41684 0c-6.592762 0 -11.937248 -5.3444824 -11.937248 -11.937256z" fill-rule="nonzero"></path><path stroke="#000000" stroke-width="2.0" stroke-linejoin="round" stroke-linecap="butt" stroke-dasharray="8.0,6.0,2.0,6.0" d="m48.627296 589.2739l0 0c0 -6.5927734 5.344486 -11.937256 11.937248 -11.937256l169.41684 0c3.1659546 0 6.20224 1.2576904 8.440918 3.496338c2.2386627 2.2386475 3.496338 5.2749634 3.496338 8.440918l0 47.74756c0 6.5927734 -5.3444977 11.937256 -11.937256 11.937256l-169.41684 0c-6.592762 0 -11.937248 -5.3444824 -11.937248 -11.937256z" fill-rule="nonzero"></path><path fill="#000000" d="m122.09445 615.9427q0 -2.859375 1.484375 -4.671875q1.484375 -1.8125 4.484375 -1.8125q2.8125 0 4.328125 1.59375q1.53125 1.59375 1.53125 4.53125q0 1.078125 -0.203125 1.90625q-0.203125 0.828125 -0.75 1.40625q-0.53125 0.5625 -1.34375 0.5625q-0.703125 0 -1.21875 -0.359375q-0.515625 -0.359375 -0.625 -0.875q-0.5625 0.546875 -1.0625 0.8125q-0.5 0.25 -1.28125 0.25q-1.0625 0 -1.71875 -0.5q-0.65625 -0.5 -0.65625 -1.5625q0 -1.21875 0.921875 -1.6875q0.9375 -0.46875 2.796875 -0.46875l0.828125 0l0 -0.359375q0 -0.828125 -0.453125 -1.21875q-0.4375 -0.390625 -1.40625 -0.390625q-0.734375 0 -1.25 0.234375q-0.5 0.234375 -0.5625 0.234375q-0.171875 0 -0.28125 -0.171875q-0.109375 -0.1875 -0.109375 -0.359375q0 -0.375 0.75 -0.65625q0.765625 -0.28125 1.640625 -0.28125q1.25 0 1.96875 0.640625q0.71875 0.640625 0.71875 1.796875l0 3.15625q0.0625 0.421875 0.375 0.6875q0.3125 0.265625 0.703125 0.265625q1.265625 0 1.265625 -2.921875q0 -2.578125 -1.234375 -3.953125q-1.234375 -1.375 -3.703125 -1.375q-1.375 0 -2.375 0.453125q-0.984375 0.4375 -1.546875 1.234375q-0.5625 0.796875 -0.828125 1.75q-0.25 0.953125 -0.25 2.09375q0 1.0625 0.21875 1.953125q0.234375 0.890625 0.734375 1.640625q0.515625 0.75 1.390625 1.171875q0.890625 0.4375 2.078125 0.4375q1.0 0 1.828125 -0.296875q0.84375 -0.296875 0.859375 -0.296875q0.171875 0 0.28125 0.140625q0.109375 0.15625 0.109375 0.28125q0 0.40625 -1.046875 0.734375q-1.03125 0.328125 -2.15625 0.328125q-2.203125 0 -3.71875 -1.546875q-1.515625 -1.546875 -1.515625 -4.53125zm4.03125 1.28125q0 0.625 0.390625 0.9375q0.40625 0.296875 1.0625 0.296875q0.890625 0 1.46875 -0.5q0.59375 -0.5 0.59375 -1.0625l0 -1.046875l-0.78125 0q-1.359375 0 -2.046875 0.28125q-0.6875 0.265625 -0.6875 1.09375zm9.529755 2.34375l0 -13.546875q0 -0.1875 0.15625 -0.3125q0.171875 -0.140625 0.4375 -0.140625q0.28125 0 0.453125 0.140625q0.1875 0.125 0.1875 0.3125l0 6.390625q0.3125 -0.609375 0.96875 -1.015625q0.65625 -0.421875 1.53125 -0.421875q1.375 0 2.359375 1.046875q1.0 1.03125 1.0 2.5l0 5.046875q0 0.234375 -0.1875 0.375q-0.171875 0.125 -0.4375 0.125q-0.21875 0 -0.421875 -0.125q-0.1875 -0.140625 -0.1875 -0.375l0 -5.046875q0 -0.9375 -0.703125 -1.671875q-0.703125 -0.75 -1.640625 -0.75q-0.90625 0 -1.59375 0.671875q-0.6875 0.671875 -0.6875 1.75l0 5.046875q0 0.203125 -0.203125 0.359375q-0.1875 0.140625 -0.4375 0.140625q-0.234375 0 -0.421875 -0.140625q-0.171875 -0.15625 -0.171875 -0.359375zm8.9097595 -2.984375l0 -2.125q0 -1.421875 1.0625 -2.453125q1.0625 -1.03125 2.5625 -1.03125q1.4375 0 2.484375 0.984375q1.0625 0.984375 1.0625 2.46875q0 0.53125 -0.125 0.859375q-0.109375 0.3125 -0.390625 0.453125q-0.28125 0.125 -0.515625 0.171875q-0.21875 0.03125 -0.609375 0.03125l-4.296875 0l0 0.703125q0 1.125 0.796875 1.796875q0.8125 0.671875 2.09375 0.671875q0.640625 0 1.125 -0.1875q0.484375 -0.1875 0.734375 -0.375q0.265625 -0.1875 0.421875 -0.1875q0.203125 0 0.359375 0.203125q0.171875 0.1875 0.171875 0.375q0 0.40625 -0.828125 0.84375q-0.8125 0.421875 -2.03125 0.421875q-1.796875 0 -2.9375 -1.0q-1.140625 -1.0 -1.140625 -2.625zm1.234375 -1.546875l3.796875 0q0.5625 0 0.75 -0.125q0.203125 -0.125 0.203125 -0.53125q0 -0.9375 -0.6875 -1.65625q-0.671875 -0.734375 -1.6875 -0.734375q-0.984375 0 -1.6875 0.6875q-0.6875 0.6875 -0.6875 1.640625l0 0.71875zm7.013321 2.65625q0 -1.46875 1.125 -2.03125q1.140625 -0.578125 3.3125 -0.578125l0.96875 0l0 -0.453125q0 -1.046875 -0.5625 -1.8125q-0.546875 -0.765625 -1.6875 -0.765625q-0.75 0 -1.375 0.28125q-0.609375 0.265625 -0.65625 0.265625q-0.21875 0 -0.359375 -0.203125q-0.125 -0.21875 -0.125 -0.453125q0 -0.375 0.8125 -0.671875q0.8125 -0.296875 1.75 -0.296875q1.78125 0 2.609375 1.03125q0.828125 1.03125 0.828125 2.625l0 4.9375q0 0.21875 -0.171875 0.359375q-0.171875 0.140625 -0.4375 0.140625q-0.25 0 -0.421875 -0.140625q-0.15625 -0.140625 -0.15625 -0.359375l0 -0.828125q-1.265625 1.46875 -2.859375 1.46875q-1.140625 0 -1.875 -0.640625q-0.71875 -0.640625 -0.71875 -1.875zm1.25 -0.109375q0 0.796875 0.453125 1.1875q0.453125 0.390625 1.1875 0.390625q0.890625 0 1.703125 -0.65625q0.8125 -0.671875 0.8125 -1.34375l0 -1.21875l-0.796875 0q-0.765625 0 -1.296875 0.0625q-0.515625 0.046875 -1.03125 0.203125q-0.5 0.15625 -0.765625 0.5q-0.265625 0.34375 -0.265625 0.875zm7.2183075 -1.0l0 -2.0625q0 -1.46875 0.984375 -2.5q1.0 -1.046875 2.40625 -1.046875q0.875 0 1.53125 0.421875q0.65625 0.40625 0.984375 1.015625l0 -6.390625q0 -0.1875 0.1875 -0.3125q0.1875 -0.140625 0.453125 -0.140625q0.265625 0 0.421875 0.140625q0.171875 0.125 0.171875 0.3125l0 13.546875q0 0.203125 -0.171875 0.359375q-0.171875 0.140625 -0.421875 0.140625q-0.21875 0 -0.40625 -0.140625q-0.171875 -0.15625 -0.171875 -0.359375l0 -0.828125q-0.328125 0.609375 -1.046875 1.046875q-0.703125 0.421875 -1.5625 0.421875q-1.34375 0 -2.359375 -1.09375q-1.0 -1.09375 -1.0 -2.53125zm1.234375 0q0 0.953125 0.703125 1.71875q0.703125 0.765625 1.65625 0.765625q0.90625 0 1.609375 -0.6875q0.703125 -0.6875 0.703125 -1.203125l0 -2.65625q0 -1.078125 -0.703125 -1.75q-0.6875 -0.671875 -1.59375 -0.671875q-0.96875 0 -1.671875 0.75q-0.703125 0.734375 -0.703125 1.671875l0 2.0625z" fill-rule="nonzero"></path><path fill="#000000" fill-opacity="0.0" d="m718.081 589.2739l0 0c0 -6.5927734 5.3445435 -11.937256 11.937256 -11.937256l169.41687 0c3.1659546 0 6.2022095 1.2576904 8.440918 3.496338c2.2386475 2.2386475 3.496338 5.2749634 3.496338 8.440918l0 47.74756c0 6.5927734 -5.3444824 11.937256 -11.937256 11.937256l-169.41687 0c-6.5927124 0 -11.937256 -5.3444824 -11.937256 -11.937256z" fill-rule="nonzero"></path><path stroke="#000000" stroke-width="2.0" stroke-linejoin="round" stroke-linecap="butt" d="m718.081 589.2739l0 0c0 -6.5927734 5.3445435 -11.937256 11.937256 -11.937256l169.41687 0c3.1659546 0 6.2022095 1.2576904 8.440918 3.496338c2.2386475 2.2386475 3.496338 5.2749634 3.496338 8.440918l0 47.74756c0 6.5927734 -5.3444824 11.937256 -11.937256 11.937256l-169.41687 0c-6.5927124 0 -11.937256 -5.3444824 -11.937256 -11.937256z" fill-rule="nonzero"></path><path fill="#000000" fill-opacity="0.0" d="m383.35416 589.2724l0 0c0 -6.5927734 5.3444824 -11.937256 11.937256 -11.937256l169.41684 0c3.1659546 0 6.2022095 1.2576294 8.440918 3.496338c2.2386475 2.2386475 3.496338 5.2749634 3.496338 8.440918l0 47.74756c0 6.5927124 -5.3444824 11.937195 -11.937256 11.937195l-169.41684 0c-6.5927734 0 -11.937256 -5.3444824 -11.937256 -11.937195z" fill-rule="nonzero"></path><path stroke="#000000" stroke-width="2.0" stroke-linejoin="round" stroke-linecap="butt" d="m383.35416 589.2724l0 0c0 -6.5927734 5.3444824 -11.937256 11.937256 -11.937256l169.41684 0c3.1659546 0 6.2022095 1.2576294 8.440918 3.496338c2.2386475 2.2386475 3.496338 5.2749634 3.496338 8.440918l0 47.74756c0 6.5927124 -5.3444824 11.937195 -11.937256 11.937195l-169.41684 0c-6.5927734 0 -11.937256 -5.3444824 -11.937256 -11.937195z" fill-rule="nonzero"></path><path fill="#000000" fill-opacity="0.0" d="m241.91864 613.1477l141.43552 -0.0015258789" fill-rule="nonzero"></path><path stroke="#000000" stroke-width="2.0" stroke-linejoin="round" stroke-linecap="butt" d="m241.91864 613.1477l129.43552 -0.0014038086" fill-rule="evenodd"></path><path fill="#000000" stroke="#000000" stroke-width="2.0" stroke-linecap="butt" d="m371.35422 616.44977l9.076141 -3.3035889l-9.076233 -3.3033447z" fill-rule="evenodd"></path><path fill="#000000" fill-opacity="0.0" d="m576.6455 613.1462l141.43549 0.0015258789" fill-rule="nonzero"></path><path stroke="#000000" stroke-width="2.0" stroke-linejoin="round" stroke-linecap="butt" d="m576.6455 613.1462l129.43555 0.0014038086" fill-rule="evenodd"></path><path fill="#000000" stroke="#000000" stroke-width="2.0" stroke-linecap="butt" d="m706.081 616.451l9.076233 -3.3033447l-9.076172 -3.3035889z" fill-rule="evenodd"></path><path fill="#000000" fill-opacity="0.0" d="m15.871391 550.9219l0 0c0 -17.183472 13.929981 -31.113464 31.113483 -31.113464l196.57617 0c8.251816 0 16.165665 3.2780151 22.000565 9.112915c5.8349 5.8349 9.112915 13.748718 9.112915 22.00055l0 124.450195c0 17.183533 -13.929962 31.113464 -31.11348 31.113464l-196.57617 0c-17.183502 0 -31.113483 -13.929932 -31.113483 -31.113464z" fill-rule="nonzero"></path><path stroke="#000000" stroke-width="1.0" stroke-linejoin="round" stroke-linecap="butt" stroke-dasharray="1.0,3.0" d="m15.871391 550.9219l0 0c0 -17.183472 13.929981 -31.113464 31.113483 -31.113464l196.57617 0c8.251816 0 16.165665 3.2780151 22.000565 9.112915c5.8349 5.8349 9.112915 13.748718 9.112915 22.00055l0 124.450195c0 17.183533 -13.929962 31.113464 -31.11348 31.113464l-196.57617 0c-17.183502 0 -31.113483 -13.929932 -31.113483 -31.113464z" fill-rule="nonzero"></path><path fill="#000000" d="m82.75869 663.19196q-0.234375 -0.25 -0.234375 -0.5625q0 -0.328125 0.234375 -0.546875q0.25 -0.234375 0.625 -0.234375q0.328125 0 0.5625 0.234375q0.25 0.21875 0.25 0.546875q0 0.3125 -0.25 0.5625q-0.234375 0.234375 -0.5625 0.234375q-0.375 0 -0.625 -0.234375zm0.015625 11.375l0 -8.03125q0 -0.1875 0.15625 -0.3125q0.171875 -0.140625 0.4375 -0.140625q0.28125 0 0.453125 0.140625q0.1875 0.125 0.1875 0.3125l0 8.03125q0 0.203125 -0.203125 0.359375q-0.1875 0.140625 -0.4375 0.140625q-0.234375 0 -0.421875 -0.140625q-0.171875 -0.15625 -0.171875 -0.359375zm3.5633392 0.03125l0 -10.53125q0 -1.421875 1.0 -2.453125q1.015625 -1.046875 2.375 -1.046875l0.46875 0q0.234375 0 0.390625 0.171875q0.15625 0.171875 0.15625 0.40625q0 0.21875 -0.15625 0.390625q-0.15625 0.15625 -0.390625 0.15625l-0.3125 0q-0.96875 0 -1.625 0.671875q-0.65625 0.671875 -0.671875 1.609375l0 2.109375l2.71875 0q0.1875 0 0.3125 0.15625q0.125 0.140625 0.125 0.328125q0 0.234375 -0.125 0.390625q-0.125 0.140625 -0.3125 0.140625l-2.71875 0l0 7.5q0 0.203125 -0.203125 0.34375q-0.1875 0.125 -0.453125 0.125q-0.25 0 -0.421875 -0.125q-0.15625 -0.140625 -0.15625 -0.34375zm9.374527 -2.328125l0 -10.015625q0 -0.1875 0.1875 -0.3125q0.1875 -0.140625 0.421875 -0.140625q0.25 0 0.4375 0.140625q0.1875 0.125 0.1875 0.3125l0 3.828125l2.453125 0q0.1875 0 0.3125 0.15625q0.125 0.140625 0.125 0.359375q0 0.203125 -0.125 0.359375q-0.125 0.140625 -0.3125 0.140625l-2.453125 0l0 5.171875q0 0.9375 0.390625 1.3125q0.390625 0.359375 1.375 0.359375l0.53125 0q0.25 0 0.40625 0.171875q0.171875 0.15625 0.171875 0.390625q0 0.21875 -0.171875 0.390625q-0.15625 0.171875 -0.40625 0.171875l-0.53125 0q-3.0 0 -3.0 -2.796875zm4.947159 0.421875q0 -1.46875 1.125 -2.03125q1.140625 -0.578125 3.3125 -0.578125l0.96875 0l0 -0.453125q0 -1.046875 -0.5625 -1.8125q-0.546875 -0.765625 -1.6875 -0.765625q-0.75 0 -1.375 0.28125q-0.609375 0.265625 -0.65625 0.265625q-0.21875 0 -0.359375 -0.203125q-0.125 -0.21875 -0.125 -0.453125q0 -0.375 0.8125 -0.671875q0.8125 -0.296875 1.75 -0.296875q1.78125 0 2.609375 1.03125q0.828125 1.03125 0.828125 2.625l0 4.9375q0 0.21875 -0.171875 0.359375q-0.171875 0.140625 -0.4375 0.140625q-0.25 0 -0.421875 -0.140625q-0.15625 -0.140625 -0.15625 -0.359375l0 -0.828125q-1.265625 1.46875 -2.859375 1.46875q-1.140625 0 -1.875 -0.640625q-0.71875 -0.640625 -0.71875 -1.875zm1.25 -0.109375q0 0.796875 0.453125 1.1875q0.453125 0.390625 1.1875 0.390625q0.890625 0 1.703125 -0.65625q0.8125 -0.671875 0.8125 -1.34375l0 -1.21875l-0.796875 0q-0.765625 0 -1.296875 0.0625q-0.515625 0.046875 -1.03125 0.203125q-0.5 0.15625 -0.765625 0.5q-0.265625 0.34375 -0.265625 0.875zm7.5620575 1.984375l0 -8.03125q0 -0.1875 0.15625 -0.3125q0.171875 -0.140625 0.453125 -0.140625q0.234375 0 0.40625 0.140625q0.171875 0.125 0.171875 0.3125l0 0.9375q0.34375 -0.640625 1.0 -1.0625q0.671875 -0.4375 1.546875 -0.4375l0.671875 0q0.1875 0 0.328125 0.171875q0.15625 0.15625 0.15625 0.390625q0 0.234375 -0.15625 0.40625q-0.140625 0.15625 -0.328125 0.15625l-0.671875 0q-0.984375 0 -1.75 0.78125q-0.75 0.765625 -0.75 2.0l0 4.6875q0 0.203125 -0.1875 0.359375q-0.171875 0.140625 -0.4375 0.140625q-0.25 0 -0.4375 -0.140625q-0.171875 -0.15625 -0.171875 -0.359375zm5.4408417 2.375q0 -1.421875 1.625 -2.0625q-1.046875 -0.359375 -1.046875 -1.3125q0 -0.859375 0.953125 -1.375q-1.046875 -0.875 -1.046875 -2.390625l0 -0.71875q0 -1.390625 0.890625 -2.25q0.90625 -0.859375 2.375 -0.859375q1.328125 0 2.21875 0.796875q0.28125 -0.5625 0.640625 -0.875q0.375 -0.328125 0.71875 -0.328125q0.265625 0 0.40625 0.15625q0.15625 0.140625 0.15625 0.34375q0 0.34375 -0.328125 0.40625q-0.65625 0.140625 -1.0625 0.828125q0.53125 0.703125 0.53125 1.78125l0 0.71875q0 1.375 -0.9375 2.265625q-0.921875 0.890625 -2.359375 0.890625q-0.78125 0 -1.46875 -0.328125q-0.59375 0.328125 -0.59375 0.75q0 0.390625 0.4375 0.609375q0.4375 0.203125 1.09375 0.265625q0.65625 0.046875 1.421875 0.171875q0.78125 0.125 1.4375 0.3125q0.65625 0.1875 1.09375 0.703125q0.4375 0.515625 0.4375 1.328125q0 1.296875 -1.03125 2.0q-1.03125 0.703125 -2.703125 0.703125q-1.703125 0 -2.78125 -0.6875q-1.078125 -0.671875 -1.078125 -1.84375zm1.203125 -0.109375q0 0.78125 0.703125 1.25q0.71875 0.484375 1.9375 0.484375q1.203125 0 1.875 -0.484375q0.671875 -0.46875 0.671875 -1.265625q0 -0.375 -0.1875 -0.671875q-0.1875 -0.28125 -0.453125 -0.4375q-0.25 -0.140625 -0.671875 -0.265625q-0.421875 -0.109375 -0.734375 -0.15625q-0.3125 -0.03125 -0.78125 -0.0625l-0.671875 -0.078125q-1.6875 0.53125 -1.6875 1.6875zm0.46875 -7.046875q0 0.984375 0.5625 1.609375q0.5625 0.625 1.53125 0.625q0.9375 0 1.484375 -0.625q0.5625 -0.625 0.5625 -1.59375l0 -0.71875q0 -0.953125 -0.5625 -1.5625q-0.546875 -0.625 -1.5 -0.625q-0.953125 0 -1.515625 0.625q-0.5625 0.609375 -0.5625 1.5625l0 0.703125zm7.1513824 1.796875l0 -2.125q0 -1.421875 1.0625 -2.453125q1.0625 -1.03125 2.5625 -1.03125q1.4374924 0 2.4843674 0.984375q1.0625 0.984375 1.0625 2.46875q0 0.53125 -0.125 0.859375q-0.109375 0.3125 -0.390625 0.453125q-0.28125 0.125 -0.515625 0.171875q-0.21875 0.03125 -0.609375 0.03125l-4.2968674 0l0 0.703125q0 1.125 0.796875 1.796875q0.8125 0.671875 2.09375 0.671875q0.6406174 0 1.1249924 -0.1875q0.484375 -0.1875 0.734375 -0.375q0.265625 -0.1875 0.421875 -0.1875q0.203125 0 0.359375 0.203125q0.171875 0.1875 0.171875 0.375q0 0.40625 -0.828125 0.84375q-0.8125 0.421875 -2.0312424 0.421875q-1.796875 0 -2.9375 -1.0q-1.140625 -1.0 -1.140625 -2.625zm1.234375 -1.546875l3.7968674 0q0.5625 0 0.75 -0.125q0.203125 -0.125 0.203125 -0.53125q0 -0.9375 -0.6875 -1.65625q-0.671875 -0.734375 -1.6874924 -0.734375q-0.984375 0 -1.6875 0.6875q-0.6875 0.6875 -0.6875 1.640625l0 0.71875zm7.6070633 2.234375l0 -10.015625q0 -0.1875 0.1875 -0.3125q0.1875 -0.140625 0.421875 -0.140625q0.25 0 0.4375 0.140625q0.1875 0.125 0.1875 0.3125l0 3.828125l2.453125 0q0.1875 0 0.3125 0.15625q0.125 0.140625 0.125 0.359375q0 0.203125 -0.125 0.359375q-0.125 0.140625 -0.3125 0.140625l-2.453125 0l0 5.171875q0 0.9375 0.390625 1.3125q0.390625 0.359375 1.375 0.359375l0.53125 0q0.25 0 0.40625 0.171875q0.171875 0.15625 0.171875 0.390625q0 0.21875 -0.171875 0.390625q-0.15625 0.171875 -0.40625 0.171875l-0.53125 0q-3.0 0 -3.0 -2.796875zm9.365906 -0.359375q0 -0.21875 0.125 -0.375q0.140625 -0.171875 0.328125 -0.171875l4.8125 0q0.1875 0 0.328125 0.171875q0.140625 0.15625 0.140625 0.390625q0 0.21875 -0.140625 0.375q-0.140625 0.15625 -0.328125 0.15625l-4.8125 0q-0.203125 0 -0.328125 -0.140625q-0.125 -0.15625 -0.125 -0.40625zm0 -3.859375q0 -0.21875 0.125 -0.375q0.140625 -0.171875 0.328125 -0.171875l4.8125 0q0.1875 0 0.328125 0.171875q0.140625 0.15625 0.140625 0.390625q0 0.21875 -0.140625 0.390625q-0.140625 0.15625 -0.328125 0.15625l-4.8125 0q-0.203125 0 -0.328125 -0.15625q-0.125 -0.15625 -0.125 -0.40625zm8.096817 3.859375q0 -0.21875 0.125 -0.375q0.140625 -0.171875 0.328125 -0.171875l4.8125153 0q0.1875 0 0.328125 0.171875q0.140625 0.15625 0.140625 0.390625q0 0.21875 -0.140625 0.375q-0.140625 0.15625 -0.328125 0.15625l-4.8125153 0q-0.203125 0 -0.328125 -0.140625q-0.125 -0.15625 -0.125 -0.40625zm0 -3.859375q0 -0.21875 0.125 -0.375q0.140625 -0.171875 0.328125 -0.171875l4.8125153 0q0.1875 0 0.328125 0.171875q0.140625 0.15625 0.140625 0.390625q0 0.21875 -0.140625 0.390625q-0.140625 0.15625 -0.328125 0.15625l-4.8125153 0q-0.203125 0 -0.328125 -0.15625q-0.125 -0.15625 -0.125 -0.40625zm11.578079 2.890625q0 -2.859375 1.484375 -4.671875q1.484375 -1.8125 4.484375 -1.8125q2.8125 0 4.328125 1.59375q1.53125 1.59375 1.53125 4.53125q0 1.078125 -0.203125 1.90625q-0.203125 0.828125 -0.75 1.40625q-0.53125 0.5625 -1.34375 0.5625q-0.703125 0 -1.21875 -0.359375q-0.515625 -0.359375 -0.625 -0.875q-0.5625 0.546875 -1.0625 0.8125q-0.5 0.25 -1.28125 0.25q-1.0625 0 -1.71875 -0.5q-0.65625 -0.5 -0.65625 -1.5625q0 -1.21875 0.921875 -1.6875q0.9375 -0.46875 2.796875 -0.46875l0.828125 0l0 -0.359375q0 -0.828125 -0.453125 -1.21875q-0.4375 -0.390625 -1.40625 -0.390625q-0.734375 0 -1.25 0.234375q-0.5 0.234375 -0.5625 0.234375q-0.171875 0 -0.28125 -0.171875q-0.109375 -0.1875 -0.109375 -0.359375q0 -0.375 0.75 -0.65625q0.765625 -0.28125 1.640625 -0.28125q1.25 0 1.96875 0.640625q0.71875 0.640625 0.71875 1.796875l0 3.15625q0.0625 0.421875 0.375 0.6875q0.3125 0.265625 0.703125 0.265625q1.265625 0 1.265625 -2.921875q0 -2.578125 -1.234375 -3.953125q-1.234375 -1.375 -3.703125 -1.375q-1.375 0 -2.375 0.453125q-0.984375 0.4375 -1.546875 1.234375q-0.5625 0.796875 -0.828125 1.75q-0.25 0.953125 -0.25 2.09375q0 1.0625 0.21875 1.953125q0.234375 0.890625 0.734375 1.640625q0.515625 0.75 1.390625 1.171875q0.890625 0.4375 2.078125 0.4375q1.0 0 1.828125 -0.296875q0.84375 -0.296875 0.859375 -0.296875q0.171875 0 0.28125 0.140625q0.109375 0.15625 0.109375 0.28125q0 0.40625 -1.046875 0.734375q-1.03125 0.328125 -2.15625 0.328125q-2.203125 0 -3.71875 -1.546875q-1.515625 -1.546875 -1.515625 -4.53125zm4.03125 1.28125q0 0.625 0.390625 0.9375q0.40625 0.296875 1.0625 0.296875q0.890625 0 1.46875 -0.5q0.59375 -0.5 0.59375 -1.0625l0 -1.046875l-0.78125 0q-1.359375 0 -2.046875 0.28125q-0.6875 0.265625 -0.6875 1.09375zm9.529755 2.34375l0 -13.546875q0 -0.1875 0.15625 -0.3125q0.171875 -0.140625 0.4375 -0.140625q0.28125 0 0.453125 0.140625q0.1875 0.125 0.1875 0.3125l0 6.390625q0.3125 -0.609375 0.96875 -1.015625q0.65625 -0.421875 1.53125 -0.421875q1.375 0 2.359375 1.046875q1.0 1.03125 1.0 2.5l0 5.046875q0 0.234375 -0.1875 0.375q-0.171875 0.125 -0.4375 0.125q-0.21875 0 -0.421875 -0.125q-0.1875 -0.140625 -0.1875 -0.375l0 -5.046875q0 -0.9375 -0.703125 -1.671875q-0.703125 -0.75 -1.640625 -0.75q-0.90625 0 -1.59375 0.671875q-0.6875 0.671875 -0.6875 1.75l0 5.046875q0 0.203125 -0.203125 0.359375q-0.1875 0.140625 -0.4375 0.140625q-0.234375 0 -0.421875 -0.140625q-0.171875 -0.15625 -0.171875 -0.359375zm8.9097595 -2.984375l0 -2.125q0 -1.421875 1.0625 -2.453125q1.0625 -1.03125 2.5625 -1.03125q1.4375 0 2.484375 0.984375q1.0625 0.984375 1.0625 2.46875q0 0.53125 -0.125 0.859375q-0.109375 0.3125 -0.390625 0.453125q-0.28125 0.125 -0.515625 0.171875q-0.21875 0.03125 -0.609375 0.03125l-4.296875 0l0 0.703125q0 1.125 0.796875 1.796875q0.8125 0.671875 2.09375 0.671875q0.640625 0 1.125 -0.1875q0.484375 -0.1875 0.734375 -0.375q0.265625 -0.1875 0.421875 -0.1875q0.203125 0 0.359375 0.203125q0.171875 0.1875 0.171875 0.375q0 0.40625 -0.828125 0.84375q-0.8125 0.421875 -2.03125 0.421875q-1.796875 0 -2.9375 -1.0q-1.140625 -1.0 -1.140625 -2.625zm1.234375 -1.546875l3.796875 0q0.5625 0 0.75 -0.125q0.203125 -0.125 0.203125 -0.53125q0 -0.9375 -0.6875 -1.65625q-0.671875 -0.734375 -1.6875 -0.734375q-0.984375 0 -1.6875 0.6875q-0.6875 0.6875 -0.6875 1.640625l0 0.71875zm7.0133057 2.65625q0 -1.46875 1.125 -2.03125q1.140625 -0.578125 3.3125 -0.578125l0.96875 0l0 -0.453125q0 -1.046875 -0.5625 -1.8125q-0.546875 -0.765625 -1.6875 -0.765625q-0.75 0 -1.375 0.28125q-0.609375 0.265625 -0.65625 0.265625q-0.21875 0 -0.359375 -0.203125q-0.125 -0.21875 -0.125 -0.453125q0 -0.375 0.8125 -0.671875q0.8125 -0.296875 1.75 -0.296875q1.78125 0 2.609375 1.03125q0.828125 1.03125 0.828125 2.625l0 4.9375q0 0.21875 -0.171875 0.359375q-0.171875 0.140625 -0.4375 0.140625q-0.25 0 -0.421875 -0.140625q-0.15625 -0.140625 -0.15625 -0.359375l0 -0.828125q-1.265625 1.46875 -2.859375 1.46875q-1.140625 0 -1.875 -0.640625q-0.71875 -0.640625 -0.71875 -1.875zm1.25 -0.109375q0 0.796875 0.453125 1.1875q0.453125 0.390625 1.1875 0.390625q0.890625 0 1.703125 -0.65625q0.8125 -0.671875 0.8125 -1.34375l0 -1.21875l-0.796875 0q-0.765625 0 -1.296875 0.0625q-0.515625 0.046875 -1.03125 0.203125q-0.5 0.15625 -0.765625 0.5q-0.265625 0.34375 -0.265625 0.875zm7.2183228 -1.0l0 -2.0625q0 -1.46875 0.984375 -2.5q1.0 -1.046875 2.40625 -1.046875q0.875 0 1.53125 0.421875q0.65625 0.40625 0.984375 1.015625l0 -6.390625q0 -0.1875 0.1875 -0.3125q0.1875 -0.140625 0.453125 -0.140625q0.265625 0 0.421875 0.140625q0.171875 0.125 0.171875 0.3125l0 13.546875q0 0.203125 -0.171875 0.359375q-0.171875 0.140625 -0.421875 0.140625q-0.21875 0 -0.40625 -0.140625q-0.171875 -0.15625 -0.171875 -0.359375l0 -0.828125q-0.328125 0.609375 -1.046875 1.046875q-0.703125 0.421875 -1.5625 0.421875q-1.34375 0 -2.359375 -1.09375q-1.0 -1.09375 -1.0 -2.53125zm1.234375 0q0 0.953125 0.703125 1.71875q0.703125 0.765625 1.65625 0.765625q0.90625 0 1.609375 -0.6875q0.703125 -0.6875 0.703125 -1.203125l0 -2.65625q0 -1.078125 -0.703125 -1.75q-0.6875 -0.671875 -1.59375 -0.671875q-0.96875 0 -1.671875 0.75q-0.703125 0.734375 -0.703125 1.671875l0 2.0625z" fill-rule="nonzero"></path><path fill="#000000" d="m73.04716 692.94196q0 -2.859375 1.484375 -4.671875q1.484375 -1.8125 4.484375 -1.8125q2.8125 0 4.328125 1.59375q1.53125 1.59375 1.53125 4.53125q0 1.078125 -0.203125 1.90625q-0.203125 0.828125 -0.75 1.40625q-0.53125 0.5625 -1.34375 0.5625q-0.703125 0 -1.21875 -0.359375q-0.515625 -0.359375 -0.625 -0.875q-0.5625 0.546875 -1.0625 0.8125q-0.5 0.25 -1.28125 0.25q-1.0625 0 -1.71875 -0.5q-0.65625 -0.5 -0.65625 -1.5625q0 -1.21875 0.921875 -1.6875q0.9375 -0.46875 2.796875 -0.46875l0.828125 0l0 -0.359375q0 -0.828125 -0.453125 -1.21875q-0.4375 -0.390625 -1.40625 -0.390625q-0.734375 0 -1.25 0.234375q-0.5 0.234375 -0.5625 0.234375q-0.171875 0 -0.28125 -0.171875q-0.109375 -0.1875 -0.109375 -0.359375q0 -0.375 0.75 -0.65625q0.765625 -0.28125 1.640625 -0.28125q1.25 0 1.96875 0.640625q0.71875 0.640625 0.71875 1.796875l0 3.15625q0.0625 0.421875 0.375 0.6875q0.3125 0.265625 0.703125 0.265625q1.265625 0 1.265625 -2.921875q0 -2.578125 -1.234375 -3.953125q-1.234375 -1.375 -3.703125 -1.375q-1.375 0 -2.375 0.453125q-0.984375 0.4375 -1.546875 1.234375q-0.5625 0.796875 -0.828125 1.75q-0.25 0.953125 -0.25 2.09375q0 1.0625 0.21875 1.953125q0.234375 0.890625 0.734375 1.640625q0.515625 0.75 1.390625 1.171875q0.890625 0.4375 2.078125 0.4375q1.0 0 1.828125 -0.296875q0.84375 -0.296875 0.859375 -0.296875q0.171875 0 0.28125 0.140625q0.109375 0.15625 0.109375 0.28125q0 0.40625 -1.046875 0.734375q-1.03125 0.328125 -2.15625 0.328125q-2.203125 0 -3.71875 -1.546875q-1.515625 -1.546875 -1.515625 -4.53125zm4.03125 1.28125q0 0.625 0.390625 0.9375q0.40625 0.296875 1.0625 0.296875q0.890625 0 1.46875 -0.5q0.59375 -0.5 0.59375 -1.0625l0 -1.046875l-0.78125 0q-1.359375 0 -2.046875 0.28125q-0.6875 0.265625 -0.6875 1.09375zm9.529755 2.34375l0 -13.546875q0 -0.1875 0.15625 -0.3125q0.171875 -0.140625 0.4375 -0.140625q0.28125 0 0.453125 0.140625q0.1875 0.125 0.1875 0.3125l0 6.390625q0.3125 -0.609375 0.96875 -1.015625q0.65625 -0.421875 1.53125 -0.421875q1.375 0 2.359375 1.046875q1.0 1.03125 1.0 2.5l0 5.046875q0 0.234375 -0.1875 0.375q-0.171875 0.125 -0.4375 0.125q-0.21875 0 -0.421875 -0.125q-0.1875 -0.140625 -0.1875 -0.375l0 -5.046875q0 -0.9375 -0.703125 -1.671875q-0.703125 -0.75 -1.640625 -0.75q-0.90625 0 -1.59375 0.671875q-0.6875 0.671875 -0.6875 1.75l0 5.046875q0 0.203125 -0.203125 0.359375q-0.1875 0.140625 -0.4375 0.140625q-0.234375 0 -0.421875 -0.140625q-0.171875 -0.15625 -0.171875 -0.359375zm8.9097595 -2.984375l0 -2.125q0 -1.421875 1.0625 -2.453125q1.0625 -1.03125 2.5625 -1.03125q1.4375 0 2.484375 0.984375q1.0625 0.984375 1.0625 2.46875q0 0.53125 -0.125 0.859375q-0.109375 0.3125 -0.390625 0.453125q-0.28125 0.125 -0.515625 0.171875q-0.21875 0.03125 -0.609375 0.03125l-4.296875 0l0 0.703125q0 1.125 0.796875 1.796875q0.8125 0.671875 2.09375 0.671875q0.640625 0 1.125 -0.1875q0.484375 -0.1875 0.734375 -0.375q0.265625 -0.1875 0.421875 -0.1875q0.203125 0 0.359375 0.203125q0.171875 0.1875 0.171875 0.375q0 0.40625 -0.828125 0.84375q-0.8125 0.421875 -2.03125 0.421875q-1.796875 0 -2.9375 -1.0q-1.140625 -1.0 -1.140625 -2.625zm1.234375 -1.546875l3.796875 0q0.5625 0 0.75 -0.125q0.203125 -0.125 0.203125 -0.53125q0 -0.9375 -0.6875 -1.65625q-0.671875 -0.734375 -1.6875 -0.734375q-0.984375 0 -1.6875 0.6875q-0.6875 0.6875 -0.6875 1.640625l0 0.71875zm7.013321 2.65625q0 -1.46875 1.125 -2.03125q1.140625 -0.578125 3.3125 -0.578125l0.96875 0l0 -0.453125q0 -1.046875 -0.5625 -1.8125q-0.546875 -0.765625 -1.6875 -0.765625q-0.75 0 -1.375 0.28125q-0.609375 0.265625 -0.65625 0.265625q-0.21875 0 -0.359375 -0.203125q-0.125 -0.21875 -0.125 -0.453125q0 -0.375 0.8125 -0.671875q0.8125 -0.296875 1.75 -0.296875q1.78125 0 2.609375 1.03125q0.828125 1.03125 0.828125 2.625l0 4.9375q0 0.21875 -0.171875 0.359375q-0.171875 0.140625 -0.4375 0.140625q-0.25 0 -0.421875 -0.140625q-0.15625 -0.140625 -0.15625 -0.359375l0 -0.828125q-1.265625 1.46875 -2.859375 1.46875q-1.140625 0 -1.875 -0.640625q-0.71875 -0.640625 -0.71875 -1.875zm1.25 -0.109375q0 0.796875 0.453125 1.1875q0.453125 0.390625 1.1875 0.390625q0.890625 0 1.703125 -0.65625q0.8125 -0.671875 0.8125 -1.34375l0 -1.21875l-0.796875 0q-0.765625 0 -1.296875 0.0625q-0.515625 0.046875 -1.03125 0.203125q-0.5 0.15625 -0.765625 0.5q-0.265625 0.34375 -0.265625 0.875zm7.2183075 -1.0l0 -2.0625q0 -1.46875 0.984375 -2.5q1.0 -1.046875 2.40625 -1.046875q0.875 0 1.53125 0.421875q0.65625 0.40625 0.984375 1.015625l0 -6.390625q0 -0.1875 0.1875 -0.3125q0.1875 -0.140625 0.453125 -0.140625q0.265625 0 0.421875 0.140625q0.171875 0.125 0.171875 0.3125l0 13.546875q0 0.203125 -0.171875 0.359375q-0.171875 0.140625 -0.421875 0.140625q-0.21875 0 -0.40625 -0.140625q-0.171875 -0.15625 -0.171875 -0.359375l0 -0.828125q-0.328125 0.609375 -1.046875 1.046875q-0.703125 0.421875 -1.5625 0.421875q-1.34375 0 -2.359375 -1.09375q-1.0 -1.09375 -1.0 -2.53125zm1.234375 0q0 0.953125 0.703125 1.71875q0.703125 0.765625 1.65625 0.765625q0.90625 0 1.609375 -0.6875q0.703125 -0.6875 0.703125 -1.203125l0 -2.65625q0 -1.078125 -0.703125 -1.75q-0.6875 -0.671875 -1.59375 -0.671875q-0.96875 0 -1.671875 0.75q-0.703125 0.734375 -0.703125 1.671875l0 2.0625zm11.9171295 0.328125q0 -0.21875 0.125 -0.375q0.140625 -0.171875 0.328125 -0.171875l4.8124924 0q0.1875 0 0.328125 0.171875q0.140625 0.15625 0.140625 0.390625q0 0.21875 -0.140625 0.375q-0.140625 0.15625 -0.328125 0.15625l-4.8124924 0q-0.203125 0 -0.328125 -0.140625q-0.125 -0.15625 -0.125 -0.40625zm0 -3.859375q0 -0.21875 0.125 -0.375q0.140625 -0.171875 0.328125 -0.171875l4.8124924 0q0.1875 0 0.328125 0.171875q0.140625 0.15625 0.140625 0.390625q0 0.21875 -0.140625 0.390625q-0.140625 0.15625 -0.328125 0.15625l-4.8124924 0q-0.203125 0 -0.328125 -0.15625q-0.125 -0.15625 -0.125 -0.40625zm11.578056 2.890625q0 -2.859375 1.484375 -4.671875q1.484375 -1.8125 4.484375 -1.8125q2.8125 0 4.328125 1.59375q1.53125 1.59375 1.53125 4.53125q0 1.078125 -0.203125 1.90625q-0.203125 0.828125 -0.75 1.40625q-0.53125 0.5625 -1.34375 0.5625q-0.703125 0 -1.21875 -0.359375q-0.515625 -0.359375 -0.625 -0.875q-0.5625 0.546875 -1.0625 0.8125q-0.5 0.25 -1.28125 0.25q-1.0625 0 -1.71875 -0.5q-0.65625 -0.5 -0.65625 -1.5625q0 -1.21875 0.921875 -1.6875q0.9375 -0.46875 2.796875 -0.46875l0.828125 0l0 -0.359375q0 -0.828125 -0.453125 -1.21875q-0.4375 -0.390625 -1.40625 -0.390625q-0.734375 0 -1.25 0.234375q-0.5 0.234375 -0.5625 0.234375q-0.171875 0 -0.28125 -0.171875q-0.109375 -0.1875 -0.109375 -0.359375q0 -0.375 0.75 -0.65625q0.765625 -0.28125 1.640625 -0.28125q1.25 0 1.96875 0.640625q0.71875 0.640625 0.71875 1.796875l0 3.15625q0.0625 0.421875 0.375 0.6875q0.3125 0.265625 0.703125 0.265625q1.265625 0 1.265625 -2.921875q0 -2.578125 -1.234375 -3.953125q-1.234375 -1.375 -3.703125 -1.375q-1.375 0 -2.375 0.453125q-0.984375 0.4375 -1.546875 1.234375q-0.5625 0.796875 -0.828125 1.75q-0.25 0.953125 -0.25 2.09375q0 1.0625 0.21875 1.953125q0.234375 0.890625 0.734375 1.640625q0.515625 0.75 1.390625 1.171875q0.890625 0.4375 2.078125 0.4375q1.0 0 1.828125 -0.296875q0.84375 -0.296875 0.859375 -0.296875q0.171875 0 0.28125 0.140625q0.109375 0.15625 0.109375 0.28125q0 0.40625 -1.046875 0.734375q-1.03125 0.328125 -2.15625 0.328125q-2.203125 0 -3.71875 -1.546875q-1.515625 -1.546875 -1.515625 -4.53125zm4.03125 1.28125q0 0.625 0.390625 0.9375q0.40625 0.296875 1.0625 0.296875q0.890625 0 1.46875 -0.5q0.59375 -0.5 0.59375 -1.0625l0 -1.046875l-0.78125 0q-1.359375 0 -2.046875 0.28125q-0.6875 0.265625 -0.6875 1.09375zm9.529755 2.34375l0 -13.546875q0 -0.1875 0.15625 -0.3125q0.171875 -0.140625 0.4375 -0.140625q0.28125 0 0.453125 0.140625q0.1875 0.125 0.1875 0.3125l0 6.390625q0.3125 -0.609375 0.96875 -1.015625q0.65626526 -0.421875 1.5312653 -0.421875q1.375 0 2.359375 1.046875q1.0 1.03125 1.0 2.5l0 5.046875q0 0.234375 -0.1875 0.375q-0.171875 0.125 -0.4375 0.125q-0.21875 0 -0.421875 -0.125q-0.1875 -0.140625 -0.1875 -0.375l0 -5.046875q0 -0.9375 -0.703125 -1.671875q-0.703125 -0.75 -1.640625 -0.75q-0.90625 0 -1.5937653 0.671875q-0.6875 0.671875 -0.6875 1.75l0 5.046875q0 0.203125 -0.203125 0.359375q-0.1875 0.140625 -0.4375 0.140625q-0.234375 0 -0.421875 -0.140625q-0.171875 -0.15625 -0.171875 -0.359375zm8.909775 -2.984375l0 -2.125q0 -1.421875 1.0625 -2.453125q1.0625 -1.03125 2.5625 -1.03125q1.4375 0 2.484375 0.984375q1.0625 0.984375 1.0625 2.46875q0 0.53125 -0.125 0.859375q-0.109375 0.3125 -0.390625 0.453125q-0.28125 0.125 -0.515625 0.171875q-0.21875 0.03125 -0.609375 0.03125l-4.296875 0l0 0.703125q0 1.125 0.796875 1.796875q0.8125 0.671875 2.09375 0.671875q0.640625 0 1.125 -0.1875q0.484375 -0.1875 0.734375 -0.375q0.265625 -0.1875 0.421875 -0.1875q0.203125 0 0.359375 0.203125q0.171875 0.1875 0.171875 0.375q0 0.40625 -0.828125 0.84375q-0.8125 0.421875 -2.03125 0.421875q-1.796875 0 -2.9375 -1.0q-1.140625 -1.0 -1.140625 -2.625zm1.234375 -1.546875l3.796875 0q0.5625 0 0.75 -0.125q0.203125 -0.125 0.203125 -0.53125q0 -0.9375 -0.6875 -1.65625q-0.671875 -0.734375 -1.6875 -0.734375q-0.984375 0 -1.6875 0.6875q-0.6875 0.6875 -0.6875 1.640625l0 0.71875zm7.0133057 2.65625q0 -1.46875 1.125 -2.03125q1.140625 -0.578125 3.3125 -0.578125l0.96875 0l0 -0.453125q0 -1.046875 -0.5625 -1.8125q-0.546875 -0.765625 -1.6875 -0.765625q-0.75 0 -1.375 0.28125q-0.609375 0.265625 -0.65625 0.265625q-0.21875 0 -0.359375 -0.203125q-0.125 -0.21875 -0.125 -0.453125q0 -0.375 0.8125 -0.671875q0.8125 -0.296875 1.75 -0.296875q1.78125 0 2.609375 1.03125q0.828125 1.03125 0.828125 2.625l0 4.9375q0 0.21875 -0.171875 0.359375q-0.171875 0.140625 -0.4375 0.140625q-0.25 0 -0.421875 -0.140625q-0.15625 -0.140625 -0.15625 -0.359375l0 -0.828125q-1.265625 1.46875 -2.859375 1.46875q-1.140625 0 -1.875 -0.640625q-0.71875 -0.640625 -0.71875 -1.875zm1.25 -0.109375q0 0.796875 0.453125 1.1875q0.453125 0.390625 1.1875 0.390625q0.890625 0 1.703125 -0.65625q0.8125 -0.671875 0.8125 -1.34375l0 -1.21875l-0.796875 0q-0.765625 0 -1.296875 0.0625q-0.515625 0.046875 -1.03125 0.203125q-0.5 0.15625 -0.765625 0.5q-0.265625 0.34375 -0.265625 0.875zm7.2183228 -1.0l0 -2.0625q0 -1.46875 0.984375 -2.5q1.0 -1.046875 2.40625 -1.046875q0.875 0 1.53125 0.421875q0.65625 0.40625 0.984375 1.015625l0 -6.390625q0 -0.1875 0.1875 -0.3125q0.1875 -0.140625 0.453125 -0.140625q0.265625 0 0.421875 0.140625q0.171875 0.125 0.171875 0.3125l0 13.546875q0 0.203125 -0.171875 0.359375q-0.171875 0.140625 -0.421875 0.140625q-0.21875 0 -0.40625 -0.140625q-0.171875 -0.15625 -0.171875 -0.359375l0 -0.828125q-0.328125 0.609375 -1.046875 1.046875q-0.703125 0.421875 -1.5625 0.421875q-1.34375 0 -2.359375 -1.09375q-1.0 -1.09375 -1.0 -2.53125zm1.234375 0q0 0.953125 0.703125 1.71875q0.703125 0.765625 1.65625 0.765625q0.90625 0 1.609375 -0.6875q0.703125 -0.6875 0.703125 -1.203125l0 -2.65625q0 -1.078125 -0.703125 -1.75q-0.6875 -0.671875 -1.59375 -0.671875q-0.96875 0 -1.671875 0.75q-0.703125 0.734375 -0.703125 1.671875l0 2.0625zm7.7015076 2.71875q0 -0.375 0.234375 -0.625q0.25 -0.265625 0.640625 -0.265625q0.328125 0 0.578125 0.265625q0.265625 0.265625 0.265625 0.625q0 0.34375 -0.265625 0.609375q-0.25 0.265625 -0.578125 0.265625q-0.390625 0 -0.640625 -0.25q-0.234375 -0.265625 -0.234375 -0.625zm3.627716 0.265625l0 -8.03125q0 -0.203125 0.15625 -0.328125q0.171875 -0.125 0.453125 -0.125q0.21875 0 0.390625 0.140625q0.171875 0.125 0.171875 0.3125l0 0.875q0.328125 -0.609375 0.984375 -1.015625q0.671875 -0.421875 1.5625 -0.421875q1.359375 0 2.359375 1.046875q1.015625 1.03125 1.015625 2.5l0 5.046875q0 0.234375 -0.1875 0.375q-0.1875 0.125 -0.4375 0.125q-0.21875 0 -0.421875 -0.125q-0.1875 -0.140625 -0.1875 -0.375l0 -5.046875q0 -0.9375 -0.703125 -1.671875q-0.703125 -0.75 -1.671875 -0.75q-0.890625 0 -1.578125 0.671875q-0.671875 0.671875 -0.671875 1.75l0 5.046875q0 0.203125 -0.203125 0.359375q-0.1875 0.140625 -0.421875 0.140625q-0.28125 0 -0.453125 -0.140625q-0.15625 -0.15625 -0.15625 -0.359375zm8.9097595 -2.984375l0 -2.125q0 -1.421875 1.0625 -2.453125q1.0625 -1.03125 2.5625 -1.03125q1.4375 0 2.484375 0.984375q1.0625 0.984375 1.0625 2.46875q0 0.53125 -0.125 0.859375q-0.109375 0.3125 -0.390625 0.453125q-0.28125 0.125 -0.515625 0.171875q-0.21875 0.03125 -0.609375 0.03125l-4.296875 0l0 0.703125q0 1.125 0.796875 1.796875q0.8125 0.671875 2.09375 0.671875q0.640625 0 1.125 -0.1875q0.484375 -0.1875 0.734375 -0.375q0.265625 -0.1875 0.421875 -0.1875q0.203125 0 0.359375 0.203125q0.171875 0.1875 0.171875 0.375q0 0.40625 -0.828125 0.84375q-0.8125 0.421875 -2.03125 0.421875q-1.796875 0 -2.9375 -1.0q-1.140625 -1.0 -1.140625 -2.625zm1.234375 -1.546875l3.796875 0q0.5625 0 0.75 -0.125q0.203125 -0.125 0.203125 -0.53125q0 -0.9375 -0.6875 -1.65625q-0.671875 -0.734375 -1.6875 -0.734375q-0.984375 0 -1.6875 0.6875q-0.6875 0.6875 -0.6875 1.640625l0 0.71875zm6.9195557 4.5625q0 -0.125 0.078125 -0.265625l2.53125 -3.8125l-2.46875 -3.6875q-0.09375 -0.1875 -0.09375 -0.234375q0 -0.234375 0.25 -0.421875q0.265625 -0.203125 0.5 -0.203125q0.265625 0 0.390625 0.1875l2.234375 3.46875l2.265625 -3.46875q0.109375 -0.1875 0.359375 -0.1875q0.25 0 0.5 0.203125q0.265625 0.1875 0.265625 0.421875q0 0.09375 -0.09375 0.234375l-2.5 3.6875l2.546875 3.8125q0.078125 0.109375 0.078125 0.265625q0 0.203125 -0.234375 0.40625q-0.234375 0.203125 -0.5 0.203125q-0.25 0 -0.359375 -0.203125l-2.328125 -3.546875l-2.296875 3.546875q-0.125 0.203125 -0.390625 0.203125q-0.234375 0 -0.484375 -0.203125q-0.25 -0.203125 -0.25 -0.40625zm8.336578 -2.328125l0 -10.015625q0 -0.1875 0.1875 -0.3125q0.1875 -0.140625 0.421875 -0.140625q0.25 0 0.4375 0.140625q0.1875 0.125 0.1875 0.3125l0 3.828125l2.453125 0q0.1875 0 0.3125 0.15625q0.125 0.140625 0.125 0.359375q0 0.203125 -0.125 0.359375q-0.125 0.140625 -0.3125 0.140625l-2.453125 0l0 5.171875q0 0.9375 0.390625 1.3125q0.390625 0.359375 1.375 0.359375l0.53125 0q0.25 0 0.40625 0.171875q0.171875 0.15625 0.171875 0.390625q0 0.21875 -0.171875 0.390625q-0.15625 0.171875 -0.40625 0.171875l-0.53125 0q-3.0 0 -3.0 -2.796875z" fill-rule="nonzero"></path></g></svg>

