<?xml version="1.0" standalone="yes"?>

<svg version="1.1" viewBox="0.0 0.0 960.0 720.0" fill="none" stroke="none" stroke-linecap="square" stroke-miterlimit="10" xmlns="http://www.w3.org/2000/svg" xmlns:xlink="http://www.w3.org/1999/xlink"><clipPath id="p.0"><path d="m0 0l960.0 0l0 720.0l-960.0 0l0 -720.0z" clip-rule="nonzero"></path></clipPath><g clip-path="url(#p.0)"><path fill="#000000" fill-opacity="0.0" d="m0 0l960.0 0l0 720.0l-960.0 0z" fill-rule="nonzero"></path><path fill="#000000" fill-opacity="0.0" d="m333.58728 77.14804l0 0c0 -29.293419 23.74701 -53.04043 53.040436 -53.04043l252.81674 0c14.0672 0 27.558289 5.588173 37.50525 15.535185c9.9470215 9.94701 15.535217 23.43805 15.535217 37.505245l0 212.15536c0 29.293427 -23.74701 53.040436 -53.040466 53.040436l-252.81674 0c-29.293427 0 -53.040436 -23.74701 -53.040436 -53.040436z" fill-rule="nonzero"></path><path stroke="#000000" stroke-width="1.0" stroke-linejoin="round" stroke-linecap="butt" stroke-dasharray="1.0,3.0" d="m333.58728 77.14804l0 0c0 -29.293419 23.74701 -53.04043 53.040436 -53.04043l252.81674 0c14.0672 0 27.558289 5.588173 37.50525 15.535185c9.9470215 9.94701 15.535217 23.43805 15.535217 37.505245l0 212.15536c0 29.293427 -23.74701 53.040436 -53.040466 53.040436l-252.81674 0c-29.293427 0 -53.040436 -23.74701 -53.040436 -53.040436z" fill-rule="nonzero"></path><path fill="#000000" d="m455.2978 277.27072q-0.234375 -0.25 -0.234375 -0.5625q0 -0.328125 0.234375 -0.546875q0.25 -0.234375 0.625 -0.234375q0.328125 0 0.5625 0.234375q0.25 0.21875 0.25 0.546875q0 0.3125 -0.25 0.5625q-0.234375 0.234375 -0.5625 0.234375q-0.375 0 -0.625 -0.234375zm0.015625 11.375l0 -8.03125q0 -0.1875 0.15625 -0.3125q0.171875 -0.140625 0.4375 -0.140625q0.28125 0 0.453125 0.140625q0.1875 0.125 0.1875 0.3125l0 8.03125q0 0.203125 -0.203125 0.359375q-0.1875 0.140625 -0.4375 0.140625q-0.234375 0 -0.421875 -0.140625q-0.171875 -0.15625 -0.171875 -0.359375zm3.5633545 0.03125l0 -10.53125q0 -1.421875 1.0 -2.453125q1.015625 -1.046875 2.375 -1.046875l0.46875 0q0.234375 0 0.390625 0.171875q0.15625 0.171875 0.15625 0.40625q0 0.21875 -0.15625 0.390625q-0.15625 0.15625 -0.390625 0.15625l-0.3125 0q-0.96875 0 -1.625 0.671875q-0.65625 0.671875 -0.671875 1.609375l0 2.109375l2.71875 0q0.1875 0 0.3125 0.15625q0.125 0.140625 0.125 0.328125q0 0.234375 -0.125 0.390625q-0.125 0.140625 -0.3125 0.140625l-2.71875 0l0 7.5q0 0.203125 -0.203125 0.34375q-0.1875 0.125 -0.453125 0.125q-0.25 0 -0.421875 -0.125q-0.15625 -0.140625 -0.15625 -0.34375zm9.374512 -2.328125l0 -10.015625q0 -0.1875 0.1875 -0.3125q0.1875 -0.140625 0.421875 -0.140625q0.25 0 0.4375 0.140625q0.1875 0.125 0.1875 0.3125l0 3.828125l2.453125 0q0.1875 0 0.3125 0.15625q0.125 0.140625 0.125 0.359375q0 0.203125 -0.125 0.359375q-0.125 0.140625 -0.3125 0.140625l-2.453125 0l0 5.171875q0 0.9375 0.390625 1.3125q0.390625 0.359375 1.375 0.359375l0.53125 0q0.25 0 0.40625 0.171875q0.171875 0.15625 0.171875 0.390625q0 0.21875 -0.171875 0.390625q-0.15625 0.171875 -0.40625 0.171875l-0.53125 0q-3.0 0 -3.0 -2.796875zm5.587799 2.296875l0 -13.546875q0 -0.1875 0.15625 -0.3125q0.171875 -0.140625 0.4375 -0.140625q0.28125 0 0.453125 0.140625q0.1875 0.125 0.1875 0.3125l0 6.390625q0.3125 -0.609375 0.96875 -1.015625q0.65625 -0.421875 1.53125 -0.421875q1.375 0 2.359375 1.046875q1.0 1.03125 1.0 2.5l0 5.046875q0 0.234375 -0.1875 0.375q-0.171875 0.125 -0.4375 0.125q-0.21875 0 -0.421875 -0.125q-0.1875 -0.140625 -0.1875 -0.375l0 -5.046875q0 -0.9375 -0.703125 -1.671875q-0.703125 -0.75 -1.640625 -0.75q-0.90625 0 -1.59375 0.671875q-0.6875 0.671875 -0.6875 1.75l0 5.046875q0 0.203125 -0.203125 0.359375q-0.1875 0.140625 -0.4375 0.140625q-0.234375 0 -0.421875 -0.140625q-0.171875 -0.15625 -0.171875 -0.359375zm9.2378845 -11.375q-0.234375 -0.25 -0.234375 -0.5625q0 -0.328125 0.234375 -0.546875q0.25 -0.234375 0.625 -0.234375q0.328125 0 0.5625 0.234375q0.25 0.21875 0.25 0.546875q0 0.3125 -0.25 0.5625q-0.234375 0.234375 -0.5625 0.234375q-0.375 0 -0.625 -0.234375zm0.015625 11.375l0 -8.03125q0 -0.1875 0.15625 -0.3125q0.171875 -0.140625 0.4375 -0.140625q0.28125 0 0.453125 0.140625q0.1875 0.125 0.1875 0.3125l0 8.03125q0 0.203125 -0.203125 0.359375q-0.1875 0.140625 -0.4375 0.140625q-0.234375 0 -0.421875 -0.140625q-0.171875 -0.15625 -0.171875 -0.359375zm2.985199 -0.734375q0 -0.1875 0.125 -0.375q0.140625 -0.203125 0.3125 -0.203125q0.140625 0 0.421875 0.21875q0.28125 0.21875 0.8125 0.453125q0.53125 0.234375 1.28125 0.234375q1.0 0 1.46875 -0.375q0.484375 -0.390625 0.484375 -0.984375q0 -0.671875 -0.484375 -1.078125q-0.484375 -0.421875 -1.171875 -0.609375q-0.6875 -0.1875 -1.375 -0.40625q-0.6875 -0.234375 -1.171875 -0.75q-0.484375 -0.53125 -0.484375 -1.40625q0 -1.046875 0.75 -1.8125q0.75 -0.765625 2.25 -0.765625q0.921875 0 1.734375 0.296875q0.8125 0.28125 0.8125 0.625q0 0.1875 -0.15625 0.421875q-0.15625 0.21875 -0.359375 0.21875q-0.0625 0 -0.71875 -0.265625q-0.640625 -0.265625 -1.296875 -0.265625q-0.953125 0 -1.4375 0.46875q-0.46875 0.453125 -0.46875 1.015625q0 0.59375 0.484375 0.9375q0.484375 0.34375 1.171875 0.53125q0.703125 0.171875 1.390625 0.40625q0.703125 0.234375 1.1875 0.84375q0.484375 0.59375 0.484375 1.546875q0 1.140625 -0.8125 1.796875q-0.8125 0.65625 -2.25 0.65625q-1.25 0 -2.125 -0.453125q-0.859375 -0.453125 -0.859375 -0.921875zm7.323303 0.46875q0 -0.375 0.234375 -0.625q0.25 -0.265625 0.640625 -0.265625q0.328125 0 0.578125 0.265625q0.265625 0.265625 0.265625 0.625q0 0.34375 -0.265625 0.609375q-0.25 0.265625 -0.578125 0.265625q-0.390625 0 -0.640625 -0.25q-0.234375 -0.265625 -0.234375 -0.625zm3.627716 0.265625l0 -8.03125q0 -0.203125 0.15625 -0.328125q0.171875 -0.125 0.453125 -0.125q0.21875 0 0.390625 0.140625q0.171875 0.125 0.171875 0.3125l0 0.875q0.328125 -0.609375 0.984375 -1.015625q0.671875 -0.421875 1.5625 -0.421875q1.359375 0 2.359375 1.046875q1.015625 1.03125 1.015625 2.5l0 5.046875q0 0.234375 -0.1875 0.375q-0.1875 0.125 -0.4375 0.125q-0.21875 0 -0.421875 -0.125q-0.1875 -0.140625 -0.1875 -0.375l0 -5.046875q0 -0.9375 -0.703125 -1.671875q-0.703125 -0.75 -1.671875 -0.75q-0.890625 0 -1.578125 0.671875q-0.671875 0.671875 -0.671875 1.75l0 5.046875q0 0.203125 -0.203125 0.359375q-0.1875 0.140625 -0.421875 0.140625q-0.28125 0 -0.453125 -0.140625q-0.15625 -0.15625 -0.15625 -0.359375zm8.9097595 -2.984375l0 -2.125q0 -1.421875 1.0625 -2.453125q1.0625 -1.03125 2.5625 -1.03125q1.4375 0 2.4844055 0.984375q1.0625 0.984375 1.0625 2.46875q0 0.53125 -0.125 0.859375q-0.109375 0.3125 -0.390625 0.453125q-0.28125 0.125 -0.515625 0.171875q-0.21878052 0.03125 -0.6094055 0.03125l-4.296875 0l0 0.703125q0 1.125 0.796875 1.796875q0.8125 0.671875 2.09375 0.671875q0.640625 0 1.125 -0.1875q0.484375 -0.1875 0.734375 -0.375q0.26565552 -0.1875 0.42190552 -0.1875q0.203125 0 0.359375 0.203125q0.171875 0.1875 0.171875 0.375q0 0.40625 -0.828125 0.84375q-0.8125305 0.421875 -2.0312805 0.421875q-1.796875 0 -2.9375 -1.0q-1.140625 -1.0 -1.140625 -2.625zm1.234375 -1.546875l3.796875 0q0.5625 0 0.75 -0.125q0.203125 -0.125 0.203125 -0.53125q0 -0.9375 -0.6875 -1.65625q-0.671875 -0.734375 -1.6875 -0.734375q-0.984375 0 -1.6875 0.6875q-0.6875 0.6875 -0.6875 1.640625l0 0.71875zm6.919586 4.5625q0 -0.125 0.078125 -0.265625l2.53125 -3.8125l-2.46875 -3.6875q-0.09375 -0.1875 -0.09375 -0.234375q0 -0.234375 0.25 -0.421875q0.265625 -0.203125 0.5 -0.203125q0.265625 0 0.390625 0.1875l2.234375 3.46875l2.265625 -3.46875q0.109375 -0.1875 0.359375 -0.1875q0.25 0 0.5 0.203125q0.265625 0.1875 0.265625 0.421875q0 0.09375 -0.09375 0.234375l-2.5 3.6875l2.546875 3.8125q0.078125 0.109375 0.078125 0.265625q0 0.203125 -0.234375 0.40625q-0.234375 0.203125 -0.5 0.203125q-0.25 0 -0.359375 -0.203125l-2.328125 -3.546875l-2.296875 3.546875q-0.125 0.203125 -0.390625 0.203125q-0.234375 0 -0.484375 -0.203125q-0.25 -0.203125 -0.25 -0.40625zm8.336548 -2.328125l0 -10.015625q0 -0.1875 0.1875 -0.3125q0.1875 -0.140625 0.421875 -0.140625q0.25 0 0.4375 0.140625q0.1875 0.125 0.1875 0.3125l0 3.828125l2.453125 0q0.1875 0 0.3125 0.15625q0.125 0.140625 0.125 0.359375q0 0.203125 -0.125 0.359375q-0.125 0.140625 -0.3125 0.140625l-2.453125 0l0 5.171875q0 0.9375 0.390625 1.3125q0.390625 0.359375 1.375 0.359375l0.53125 0q0.25 0 0.40625 0.171875q0.171875 0.15625 0.171875 0.390625q0 0.21875 -0.171875 0.390625q-0.15625 0.171875 -0.40625 0.171875l-0.53125 0q-3.0 0 -3.0 -2.796875zm9.006531 0.921875q0 -0.265625 0.21875 -0.40625l4.515625 -2.984375l-4.515625 -3.0q-0.21875 -0.125 -0.21875 -0.390625q0 -0.234375 0.1875 -0.40625q0.1875 -0.1875 0.40625 -0.1875q0.125 0 0.21875 0.078125l5.125 3.375q0.296875 0.203125 0.296875 0.53125q0 0.328125 -0.296875 0.515625l-5.125 3.375q-0.09375 0.078125 -0.21875 0.078125q-0.21875 0 -0.40625 -0.171875q-0.1875 -0.1875 -0.1875 -0.40625zm11.48761 1.375l0 -8.03125q0 -0.203125 0.15625 -0.328125q0.171875 -0.125 0.453125 -0.125q0.21875 0 0.390625 0.140625q0.171875 0.125 0.171875 0.3125l0 0.875q0.328125 -0.609375 0.984375 -1.015625q0.671875 -0.421875 1.5625 -0.421875q1.359375 0 2.359375 1.046875q1.015625 1.03125 1.015625 2.5l0 5.046875q0 0.234375 -0.1875 0.375q-0.1875 0.125 -0.4375 0.125q-0.21875 0 -0.421875 -0.125q-0.1875 -0.140625 -0.1875 -0.375l0 -5.046875q0 -0.9375 -0.703125 -1.671875q-0.703125 -0.75 -1.671875 -0.75q-0.890625 0 -1.578125 0.671875q-0.671875 0.671875 -0.671875 1.75l0 5.046875q0 0.203125 -0.203125 0.359375q-0.1875 0.140625 -0.421875 0.140625q-0.28125 0 -0.453125 -0.140625q-0.15625 -0.15625 -0.15625 -0.359375zm8.909729 -2.984375l0 -2.125q0 -1.421875 1.0625 -2.453125q1.0625 -1.03125 2.5625 -1.03125q1.4375 0 2.484375 0.984375q1.0625 0.984375 1.0625 2.46875q0 0.53125 -0.125 0.859375q-0.109375 0.3125 -0.390625 0.453125q-0.28125 0.125 -0.515625 0.171875q-0.21875 0.03125 -0.609375 0.03125l-4.296875 0l0 0.703125q0 1.125 0.796875 1.796875q0.8125 0.671875 2.09375 0.671875q0.640625 0 1.125 -0.1875q0.484375 -0.1875 0.734375 -0.375q0.265625 -0.1875 0.421875 -0.1875q0.203125 0 0.359375 0.203125q0.171875 0.1875 0.171875 0.375q0 0.40625 -0.828125 0.84375q-0.8125 0.421875 -2.03125 0.421875q-1.796875 0 -2.9375 -1.0q-1.140625 -1.0 -1.140625 -2.625zm1.234375 -1.546875l3.796875 0q0.5625 0 0.75 -0.125q0.203125 -0.125 0.203125 -0.53125q0 -0.9375 -0.6875 -1.65625q-0.671875 -0.734375 -1.6875 -0.734375q-0.984375 0 -1.6875 0.6875q-0.6875 0.6875 -0.6875 1.640625l0 0.71875zm6.7321167 -3.4375q0 -0.234375 0.234375 -0.390625q0.25 -0.171875 0.515625 -0.171875q0.34375 0 0.4375 0.296875l2.421875 6.765625l1.96875 -6.1875q0.09375 -0.3125 0.484375 -0.3125q0.40625 0 0.5 0.3125l1.875 6.25l2.484375 -6.828125q0.0625 -0.296875 0.421875 -0.296875q0.265625 0 0.5 0.15625q0.25 0.15625 0.25 0.40625q0 0.171875 -0.078125 0.28125l-2.96875 8.03125q-0.09375 0.3125 -0.5 0.3125q-0.359375 0 -0.5 -0.296875l-1.984375 -6.171875l-1.953125 6.078125q-0.109375 0.390625 -0.546875 0.390625q-0.40625 0 -0.515625 -0.390625l-2.96875 -7.953125q-0.078125 -0.15625 -0.078125 -0.28125z" fill-rule="nonzero"></path><path fill="#000000" d="m444.39017 310.64572l0 -8.03125q0 -0.203125 0.15625 -0.328125q0.171875 -0.125 0.453125 -0.125q0.21875 0 0.390625 0.140625q0.171875 0.125 0.171875 0.3125l0 0.875q0.328125 -0.609375 0.984375 -1.015625q0.671875 -0.421875 1.5625 -0.421875q1.359375 0 2.359375 1.046875q1.015625 1.03125 1.015625 2.5l0 5.046875q0 0.234375 -0.1875 0.375q-0.1875 0.125 -0.4375 0.125q-0.21875 0 -0.421875 -0.125q-0.1875 -0.140625 -0.1875 -0.375l0 -5.046875q0 -0.9375 -0.703125 -1.671875q-0.703125 -0.75 -1.671875 -0.75q-0.890625 0 -1.578125 0.671875q-0.671875 0.671875 -0.671875 1.75l0 5.046875q0 0.203125 -0.203125 0.359375q-0.1875 0.140625 -0.421875 0.140625q-0.28125 0 -0.453125 -0.140625q-0.15625 -0.15625 -0.15625 -0.359375zm8.9097595 -2.984375l0 -2.125q0 -1.421875 1.0625 -2.453125q1.0625 -1.03125 2.5625 -1.03125q1.4375 0 2.484375 0.984375q1.0625 0.984375 1.0625 2.46875q0 0.53125 -0.125 0.859375q-0.109375 0.3125 -0.390625 0.453125q-0.28125 0.125 -0.515625 0.171875q-0.21875 0.03125 -0.609375 0.03125l-4.296875 0l0 0.703125q0 1.125 0.796875 1.796875q0.8125 0.671875 2.09375 0.671875q0.640625 0 1.125 -0.1875q0.484375 -0.1875 0.734375 -0.375q0.265625 -0.1875 0.421875 -0.1875q0.203125 0 0.359375 0.203125q0.171875 0.1875 0.171875 0.375q0 0.40625 -0.828125 0.84375q-0.8125 0.421875 -2.03125 0.421875q-1.796875 0 -2.9375 -1.0q-1.140625 -1.0 -1.140625 -2.625zm1.234375 -1.546875l3.796875 0q0.5625 0 0.75 -0.125q0.203125 -0.125 0.203125 -0.53125q0 -0.9375 -0.6875 -1.65625q-0.671875 -0.734375 -1.6875 -0.734375q-0.984375 0 -1.6875 0.6875q-0.6875 0.6875 -0.6875 1.640625l0 0.71875zm6.732086 -3.4375q0 -0.234375 0.234375 -0.390625q0.25 -0.171875 0.515625 -0.171875q0.34375 0 0.4375 0.296875l2.421875 6.765625l1.96875 -6.1875q0.09375 -0.3125 0.484375 -0.3125q0.40625 0 0.5 0.3125l1.875 6.25l2.484375 -6.828125q0.0625 -0.296875 0.421875 -0.296875q0.265625 0 0.5 0.15625q0.25 0.15625 0.25 0.40625q0 0.171875 -0.078125 0.28125l-2.96875 8.03125q-0.09375 0.3125 -0.5 0.3125q-0.359375 0 -0.5 -0.296875l-1.984375 -6.171875l-1.953125 6.078125q-0.109375 0.390625 -0.546875 0.390625q-0.40625 0 -0.515625 -0.390625l-2.96875 -7.953125q-0.078125 -0.15625 -0.078125 -0.28125zm12.928101 7.703125q0 -0.375 0.234375 -0.625q0.25 -0.265625 0.640625 -0.265625q0.328125 0 0.578125 0.265625q0.265625 0.265625 0.265625 0.625q0 0.34375 -0.265625 0.609375q-0.25 0.265625 -0.578125 0.265625q-0.390625 0 -0.640625 -0.25q-0.234375 -0.265625 -0.234375 -0.625zm3.627716 0.265625l0 -8.03125q0 -0.203125 0.15625 -0.328125q0.171875 -0.125 0.453125 -0.125q0.21875 0 0.390625 0.140625q0.171875 0.125 0.171875 0.3125l0 0.875q0.328125 -0.609375 0.984375 -1.015625q0.671875 -0.421875 1.5625 -0.421875q1.359375 0 2.359375 1.046875q1.015625 1.03125 1.015625 2.5l0 5.046875q0 0.234375 -0.1875 0.375q-0.1875 0.125 -0.4375 0.125q-0.21875 0 -0.421875 -0.125q-0.1875 -0.140625 -0.1875 -0.375l0 -5.046875q0 -0.9375 -0.703125 -1.671875q-0.703125 -0.75 -1.671875 -0.75q-0.890625 0 -1.578125 0.671875q-0.671875 0.671875 -0.671875 1.75l0 5.046875q0 0.203125 -0.203125 0.359375q-0.1875 0.140625 -0.421875 0.140625q-0.28125 0 -0.453125 -0.140625q-0.15625 -0.15625 -0.15625 -0.359375zm8.9097595 -2.984375l0 -2.125q0 -1.421875 1.0625 -2.453125q1.0625 -1.03125 2.5625 -1.03125q1.4375 0 2.484375 0.984375q1.0625 0.984375 1.0625 2.46875q0 0.53125 -0.125 0.859375q-0.109375 0.3125 -0.390625 0.453125q-0.28125 0.125 -0.515625 0.171875q-0.21875 0.03125 -0.609375 0.03125l-4.296875 0l0 0.703125q0 1.125 0.796875 1.796875q0.8125 0.671875 2.09375 0.671875q0.640625 0 1.125 -0.1875q0.484375 -0.1875 0.734375 -0.375q0.265625 -0.1875 0.421875 -0.1875q0.203125 0 0.359375 0.203125q0.171875 0.1875 0.171875 0.375q0 0.40625 -0.828125 0.84375q-0.8125 0.421875 -2.03125 0.421875q-1.796875 0 -2.9375 -1.0q-1.140625 -1.0 -1.140625 -2.625zm1.234375 -1.546875l3.796875 0q0.5625 0 0.75 -0.125q0.203125 -0.125 0.203125 -0.53125q0 -0.9375 -0.6875 -1.65625q-0.671875 -0.734375 -1.6875 -0.734375q-0.984375 0 -1.6875 0.6875q-0.6875 0.6875 -0.6875 1.640625l0 0.71875zm6.9195557 4.5625q0 -0.125 0.078125 -0.265625l2.53125 -3.8125l-2.46875 -3.6875q-0.09375 -0.1875 -0.09375 -0.234375q0 -0.234375 0.25 -0.421875q0.265625 -0.203125 0.5 -0.203125q0.265625 0 0.390625 0.1875l2.234375 3.46875l2.265625 -3.46875q0.109375 -0.1875 0.359375 -0.1875q0.25 0 0.5 0.203125q0.265625 0.1875 0.265625 0.421875q0 0.09375 -0.09375 0.234375l-2.5 3.6875l2.546875 3.8125q0.078125 0.109375 0.078125 0.265625q0 0.203125 -0.234375 0.40625q-0.234375 0.203125 -0.5 0.203125q-0.25 0 -0.359375 -0.203125l-2.328125 -3.546875l-2.296875 3.546875q-0.125 0.203125 -0.390625 0.203125q-0.234375 0 -0.484375 -0.203125q-0.25 -0.203125 -0.25 -0.40625zm8.336578 -2.328125l0 -10.015625q0 -0.1875 0.1875 -0.3125q0.1875 -0.140625 0.421875 -0.140625q0.25 0 0.4375 0.140625q0.1875 0.125 0.1875 0.3125l0 3.828125l2.453125 0q0.1875 0 0.3125 0.15625q0.125 0.140625 0.125 0.359375q0 0.203125 -0.125 0.359375q-0.125 0.140625 -0.3125 0.140625l-2.453125 0l0 5.171875q0 0.9375 0.390625 1.3125q0.390625 0.359375 1.375 0.359375l0.53125 0q0.25 0 0.40625 0.171875q0.171875 0.15625 0.171875 0.390625q0 0.21875 -0.171875 0.390625q-0.15625 0.171875 -0.40625 0.171875l-0.53125 0q-3.0 0 -3.0 -2.796875zm9.365906 -0.359375q0 -0.21875 0.125 -0.375q0.140625 -0.171875 0.328125 -0.171875l4.8125 0q0.1875 0 0.328125 0.171875q0.140625 0.15625 0.140625 0.390625q0 0.21875 -0.140625 0.375q-0.140625 0.15625 -0.328125 0.15625l-4.8125 0q-0.203125 0 -0.328125 -0.140625q-0.125 -0.15625 -0.125 -0.40625zm0 -3.859375q0 -0.21875 0.125 -0.375q0.140625 -0.171875 0.328125 -0.171875l4.8125 0q0.1875 0 0.328125 0.171875q0.140625 0.15625 0.140625 0.390625q0 0.21875 -0.140625 0.390625q-0.140625 0.15625 -0.328125 0.15625l-4.8125 0q-0.203125 0 -0.328125 -0.15625q-0.125 -0.15625 -0.125 -0.40625zm11.734314 4.21875l0 -10.015625q0 -0.1875 0.1875 -0.3125q0.1875 -0.140625 0.421875 -0.140625q0.25 0 0.4375 0.140625q0.1875 0.125 0.1875 0.3125l0 3.828125l2.453125 0q0.1875 0 0.3125 0.15625q0.125 0.140625 0.125 0.359375q0 0.203125 -0.125 0.359375q-0.125 0.140625 -0.3125 0.140625l-2.453125 0l0 5.171875q0 0.9375 0.390625 1.3125q0.390625 0.359375 1.375 0.359375l0.53125 0q0.25 0 0.40625 0.171875q0.171875 0.15625 0.171875 0.390625q0 0.21875 -0.171875 0.390625q-0.15625 0.171875 -0.40625 0.171875l-0.53125 0q-3.0 0 -3.0 -2.796875zm5.5877686 2.296875l0 -13.546875q0 -0.1875 0.15625 -0.3125q0.171875 -0.140625 0.4375 -0.140625q0.28125 0 0.453125 0.140625q0.1875 0.125 0.1875 0.3125l0 6.390625q0.3125 -0.609375 0.96875 -1.015625q0.65625 -0.421875 1.53125 -0.421875q1.375 0 2.359375 1.046875q1.0 1.03125 1.0 2.5l0 5.046875q0 0.234375 -0.1875 0.375q-0.171875 0.125 -0.4375 0.125q-0.21875 0 -0.421875 -0.125q-0.1875 -0.140625 -0.1875 -0.375l0 -5.046875q0 -0.9375 -0.703125 -1.671875q-0.703125 -0.75 -1.640625 -0.75q-0.90625 0 -1.59375 0.671875q-0.6875 0.671875 -0.6875 1.75l0 5.046875q0 0.203125 -0.203125 0.359375q-0.1875 0.140625 -0.4375 0.140625q-0.234375 0 -0.421875 -0.140625q-0.171875 -0.15625 -0.171875 -0.359375zm9.237915 -11.375q-0.234375 -0.25 -0.234375 -0.5625q0 -0.328125 0.234375 -0.546875q0.25 -0.234375 0.625 -0.234375q0.328125 0 0.5625 0.234375q0.25 0.21875 0.25 0.546875q0 0.3125 -0.25 0.5625q-0.234375 0.234375 -0.5625 0.234375q-0.375 0 -0.625 -0.234375zm0.015625 11.375l0 -8.03125q0 -0.1875 0.15625 -0.3125q0.171875 -0.140625 0.4375 -0.140625q0.28125 0 0.453125 0.140625q0.1875 0.125 0.1875 0.3125l0 8.03125q0 0.203125 -0.203125 0.359375q-0.1875 0.140625 -0.4375 0.140625q-0.234375 0 -0.421875 -0.140625q-0.171875 -0.15625 -0.171875 -0.359375zm2.9852295 -0.734375q0 -0.1875 0.125 -0.375q0.140625 -0.203125 0.3125 -0.203125q0.140625 0 0.421875 0.21875q0.28125 0.21875 0.8125 0.453125q0.53125 0.234375 1.28125 0.234375q1.0 0 1.46875 -0.375q0.484375 -0.390625 0.484375 -0.984375q0 -0.671875 -0.484375 -1.078125q-0.484375 -0.421875 -1.171875 -0.609375q-0.6875 -0.1875 -1.375 -0.40625q-0.6875 -0.234375 -1.171875 -0.75q-0.484375 -0.53125 -0.484375 -1.40625q0 -1.046875 0.75 -1.8125q0.75 -0.765625 2.25 -0.765625q0.921875 0 1.734375 0.296875q0.8125 0.28125 0.8125 0.625q0 0.1875 -0.15625 0.421875q-0.15625 0.21875 -0.359375 0.21875q-0.0625 0 -0.71875 -0.265625q-0.640625 -0.265625 -1.296875 -0.265625q-0.953125 0 -1.4375 0.46875q-0.46875 0.453125 -0.46875 1.015625q0 0.59375 0.484375 0.9375q0.484375 0.34375 1.171875 0.53125q0.703125 0.171875 1.390625 0.40625q0.703125 0.234375 1.1875 0.84375q0.484375 0.59375 0.484375 1.546875q0 1.140625 -0.8125 1.796875q-0.8125 0.65625 -2.25 0.65625q-1.25 0 -2.125 -0.453125q-0.859375 -0.453125 -0.859375 -0.921875zm7.323242 0.46875q0 -0.375 0.234375 -0.625q0.25 -0.265625 0.640625 -0.265625q0.328125 0 0.578125 0.265625q0.265625 0.265625 0.265625 0.625q0 0.34375 -0.265625 0.609375q-0.25 0.265625 -0.578125 0.265625q-0.390625 0 -0.640625 -0.25q-0.234375 -0.265625 -0.234375 -0.625zm3.6277466 0.265625l0 -8.03125q0 -0.203125 0.15625 -0.328125q0.171875 -0.125 0.453125 -0.125q0.21875 0 0.390625 0.140625q0.171875 0.125 0.171875 0.3125l0 0.875q0.328125 -0.609375 0.984375 -1.015625q0.671875 -0.421875 1.5625 -0.421875q1.359375 0 2.359375 1.046875q1.015625 1.03125 1.015625 2.5l0 5.046875q0 0.234375 -0.1875 0.375q-0.1875 0.125 -0.4375 0.125q-0.21875 0 -0.421875 -0.125q-0.1875 -0.140625 -0.1875 -0.375l0 -5.046875q0 -0.9375 -0.703125 -1.671875q-0.703125 -0.75 -1.671875 -0.75q-0.890625 0 -1.578125 0.671875q-0.671875 0.671875 -0.671875 1.75l0 5.046875q0 0.203125 -0.203125 0.359375q-0.1875 0.140625 -0.421875 0.140625q-0.28125 0 -0.453125 -0.140625q-0.15625 -0.15625 -0.15625 -0.359375zm8.909729 -2.984375l0 -2.125q0 -1.421875 1.0625 -2.453125q1.0625 -1.03125 2.5625 -1.03125q1.4375 0 2.484375 0.984375q1.0625 0.984375 1.0625 2.46875q0 0.53125 -0.125 0.859375q-0.109375 0.3125 -0.390625 0.453125q-0.28125 0.125 -0.515625 0.171875q-0.21875 0.03125 -0.609375 0.03125l-4.296875 0l0 0.703125q0 1.125 0.796875 1.796875q0.8125 0.671875 2.09375 0.671875q0.640625 0 1.125 -0.1875q0.484375 -0.1875 0.734375 -0.375q0.265625 -0.1875 0.421875 -0.1875q0.203125 0 0.359375 0.203125q0.171875 0.1875 0.171875 0.375q0 0.40625 -0.828125 0.84375q-0.8125 0.421875 -2.03125 0.421875q-1.796875 0 -2.9375 -1.0q-1.140625 -1.0 -1.140625 -2.625zm1.234375 -1.546875l3.796875 0q0.5625 0 0.75 -0.125q0.203125 -0.125 0.203125 -0.53125q0 -0.9375 -0.6875 -1.65625q-0.671875 -0.734375 -1.6875 -0.734375q-0.984375 0 -1.6875 0.6875q-0.6875 0.6875 -0.6875 1.640625l0 0.71875zm6.9196167 4.5625q0 -0.125 0.078125 -0.265625l2.53125 -3.8125l-2.46875 -3.6875q-0.09375 -0.1875 -0.09375 -0.234375q0 -0.234375 0.25 -0.421875q0.265625 -0.203125 0.5 -0.203125q0.265625 0 0.390625 0.1875l2.234375 3.46875l2.265625 -3.46875q0.109375 -0.1875 0.359375 -0.1875q0.25 0 0.5 0.203125q0.265625 0.1875 0.265625 0.421875q0 0.09375 -0.09375 0.234375l-2.5 3.6875l2.546875 3.8125q0.078125 0.109375 0.078125 0.265625q0 0.203125 -0.234375 0.40625q-0.234375 0.203125 -0.5 0.203125q-0.25 0 -0.359375 -0.203125l-2.328125 -3.546875l-2.296875 3.546875q-0.125 0.203125 -0.390625 0.203125q-0.234375 0 -0.484375 -0.203125q-0.25 -0.203125 -0.25 -0.40625zm8.336548 -2.328125l0 -10.015625q0 -0.1875 0.1875 -0.3125q0.1875 -0.140625 0.421875 -0.140625q0.25 0 0.4375 0.140625q0.1875 0.125 0.1875 0.3125l0 3.828125l2.453125 0q0.1875 0 0.3125 0.15625q0.125 0.140625 0.125 0.359375q0 0.203125 -0.125 0.359375q-0.125 0.140625 -0.3125 0.140625l-2.453125 0l0 5.171875q0 0.9375 0.390625 1.3125q0.390625 0.359375 1.375 0.359375l0.53125 0q0.25 0 0.40625 0.171875q0.171875 0.15625 0.171875 0.390625q0 0.21875 -0.171875 0.390625q-0.15625 0.171875 -0.40625 0.171875l-0.53125 0q-3.0 0 -3.0 -2.796875z" fill-rule="nonzero"></path><path fill="#000000" d="m461.43243 330.34885l0 -10.015625q0 -0.1875 0.1875 -0.3125q0.1875 -0.140625 0.421875 -0.140625q0.25 0 0.4375 0.140625q0.1875 0.125 0.1875 0.3125l0 3.828125l2.453125 0q0.1875 0 0.3125 0.15625q0.125 0.140625 0.125 0.359375q0 0.203125 -0.125 0.359375q-0.125 0.140625 -0.3125 0.140625l-2.453125 0l0 5.171875q0 0.9375 0.390625 1.3125q0.390625 0.359375 1.375 0.359375l0.53125 0q0.25 0 0.40625 0.171875q0.171875 0.15625 0.171875 0.390625q0 0.21875 -0.171875 0.390625q-0.15625 0.171875 -0.40625 0.171875l-0.53125 0q-3.0 0 -3.0 -2.796875zm5.587799 2.296875l0 -13.546875q0 -0.1875 0.15625 -0.3125q0.171875 -0.140625 0.4375 -0.140625q0.28125 0 0.453125 0.140625q0.1875 0.125 0.1875 0.3125l0 6.390625q0.3125 -0.609375 0.96875 -1.015625q0.65625 -0.421875 1.53125 -0.421875q1.375 0 2.359375 1.046875q1.0 1.03125 1.0 2.5l0 5.046875q0 0.234375 -0.1875 0.375q-0.171875 0.125 -0.4375 0.125q-0.21875 0 -0.421875 -0.125q-0.1875 -0.140625 -0.1875 -0.375l0 -5.046875q0 -0.9375 -0.703125 -1.671875q-0.703125 -0.75 -1.640625 -0.75q-0.90625 0 -1.59375 0.671875q-0.6875 0.671875 -0.6875 1.75l0 5.046875q0 0.203125 -0.203125 0.359375q-0.1875 0.140625 -0.4375 0.140625q-0.234375 0 -0.421875 -0.140625q-0.171875 -0.15625 -0.171875 -0.359375zm9.2378845 -11.375q-0.234375 -0.25 -0.234375 -0.5625q0 -0.328125 0.234375 -0.546875q0.25 -0.234375 0.625 -0.234375q0.328125 0 0.5625 0.234375q0.25 0.21875 0.25 0.546875q0 0.3125 -0.25 0.5625q-0.234375 0.234375 -0.5625 0.234375q-0.375 0 -0.625 -0.234375zm0.015625 11.375l0 -8.03125q0 -0.1875 0.15625 -0.3125q0.171875 -0.140625 0.4375 -0.140625q0.28125 0 0.453125 0.140625q0.1875 0.125 0.1875 0.3125l0 8.03125q0 0.203125 -0.203125 0.359375q-0.1875 0.140625 -0.4375 0.140625q-0.234375 0 -0.421875 -0.140625q-0.171875 -0.15625 -0.171875 -0.359375zm2.985199 -0.734375q0 -0.1875 0.125 -0.375q0.140625 -0.203125 0.3125 -0.203125q0.140625 0 0.421875 0.21875q0.28125 0.21875 0.8125 0.453125q0.53125 0.234375 1.28125 0.234375q1.0 0 1.46875 -0.375q0.484375 -0.390625 0.484375 -0.984375q0 -0.671875 -0.484375 -1.078125q-0.484375 -0.421875 -1.171875 -0.609375q-0.6875 -0.1875 -1.375 -0.40625q-0.6875 -0.234375 -1.171875 -0.75q-0.484375 -0.53125 -0.484375 -1.40625q0 -1.046875 0.75 -1.8125q0.75 -0.765625 2.25 -0.765625q0.921875 0 1.734375 0.296875q0.8125 0.28125 0.8125 0.625q0 0.1875 -0.15625 0.421875q-0.15625 0.21875 -0.359375 0.21875q-0.0625 0 -0.71875 -0.265625q-0.640625 -0.265625 -1.296875 -0.265625q-0.953125 0 -1.4375 0.46875q-0.46875 0.453125 -0.46875 1.015625q0 0.59375 0.484375 0.9375q0.484375 0.34375 1.171875 0.53125q0.703125 0.171875 1.390625 0.40625q0.703125 0.234375 1.1875 0.84375q0.484375 0.59375 0.484375 1.546875q0 1.140625 -0.8125 1.796875q-0.8125 0.65625 -2.25 0.65625q-1.25 0 -2.125 -0.453125q-0.859375 -0.453125 -0.859375 -0.921875zm7.323303 0.46875q0 -0.375 0.234375 -0.625q0.25 -0.265625 0.640625 -0.265625q0.328125 0 0.578125 0.265625q0.265625 0.265625 0.265625 0.625q0 0.34375 -0.265625 0.609375q-0.25 0.265625 -0.578125 0.265625q-0.390625 0 -0.640625 -0.25q-0.234375 -0.265625 -0.234375 -0.625zm3.627716 0.265625l0 -8.03125q0 -0.203125 0.15625 -0.328125q0.171875 -0.125 0.453125 -0.125q0.21875 0 0.390625 0.140625q0.171875 0.125 0.171875 0.3125l0 0.875q0.328125 -0.609375 0.984375 -1.015625q0.671875 -0.421875 1.5625 -0.421875q1.359375 0 2.359375 1.046875q1.015625 1.03125 1.015625 2.5l0 5.046875q0 0.234375 -0.1875 0.375q-0.1875 0.125 -0.4375 0.125q-0.21875 0 -0.421875 -0.125q-0.1875 -0.140625 -0.1875 -0.375l0 -5.046875q0 -0.9375 -0.703125 -1.671875q-0.703125 -0.75 -1.671875 -0.75q-0.890625 0 -1.578125 0.671875q-0.671875 0.671875 -0.671875 1.75l0 5.046875q0 0.203125 -0.203125 0.359375q-0.1875 0.140625 -0.421875 0.140625q-0.28125 0 -0.453125 -0.140625q-0.15625 -0.15625 -0.15625 -0.359375zm8.9097595 -2.984375l0 -2.125q0 -1.421875 1.0625 -2.453125q1.0625 -1.03125 2.5625 -1.03125q1.4375 0 2.484375 0.984375q1.0625 0.984375 1.0625 2.46875q0 0.53125 -0.125 0.859375q-0.109375 0.3125 -0.390625 0.453125q-0.28125 0.125 -0.515625 0.171875q-0.21875 0.03125 -0.609375 0.03125l-4.296875 0l0 0.703125q0 1.125 0.796875 1.796875q0.8125 0.671875 2.09375 0.671875q0.640625 0 1.125 -0.1875q0.484375 -0.1875 0.734375 -0.375q0.265625 -0.1875 0.421875 -0.1875q0.203125 0 0.359375 0.203125q0.171875 0.1875 0.171875 0.375q0 0.40625 -0.828125 0.84375q-0.8125 0.421875 -2.03125 0.421875q-1.796875 0 -2.9375 -1.0q-1.140625 -1.0 -1.140625 -2.625zm1.234375 -1.546875l3.796875 0q0.5625 0 0.75 -0.125q0.203125 -0.125 0.203125 -0.53125q0 -0.9375 -0.6875 -1.65625q-0.671875 -0.734375 -1.6875 -0.734375q-0.984375 0 -1.6875 0.6875q-0.6875 0.6875 -0.6875 1.640625l0 0.71875zm6.9195557 4.5625q0 -0.125 0.078125 -0.265625l2.53125 -3.8125l-2.46875 -3.6875q-0.09375 -0.1875 -0.09375 -0.234375q0 -0.234375 0.25 -0.421875q0.265625 -0.203125 0.5 -0.203125q0.265625 0 0.390625 0.1875l2.234375 3.46875l2.2656555 -3.46875q0.109375 -0.1875 0.359375 -0.1875q0.25 0 0.5 0.203125q0.265625 0.1875 0.265625 0.421875q0 0.09375 -0.09375 0.234375l-2.5000305 3.6875l2.5469055 3.8125q0.078125 0.109375 0.078125 0.265625q0 0.203125 -0.234375 0.40625q-0.234375 0.203125 -0.5 0.203125q-0.25 0 -0.359375 -0.203125l-2.3281555 -3.546875l-2.296875 3.546875q-0.125 0.203125 -0.390625 0.203125q-0.234375 0 -0.484375 -0.203125q-0.25 -0.203125 -0.25 -0.40625zm8.336578 -2.328125l0 -10.015625q0 -0.1875 0.1875 -0.3125q0.1875 -0.140625 0.421875 -0.140625q0.25 0 0.4375 0.140625q0.1875 0.125 0.1875 0.3125l0 3.828125l2.453125 0q0.1875 0 0.3125 0.15625q0.125 0.140625 0.125 0.359375q0 0.203125 -0.125 0.359375q-0.125 0.140625 -0.3125 0.140625l-2.453125 0l0 5.171875q0 0.9375 0.390625 1.3125q0.390625 0.359375 1.375 0.359375l0.53125 0q0.25 0 0.40625 0.171875q0.171875 0.15625 0.171875 0.390625q0 0.21875 -0.171875 0.390625q-0.15625 0.171875 -0.40625 0.171875l-0.53125 0q-3.0 0 -3.0 -2.796875zm9.365906 -0.359375q0 -0.21875 0.125 -0.375q0.140625 -0.171875 0.328125 -0.171875l4.8125 0q0.1875 0 0.328125 0.171875q0.140625 0.15625 0.140625 0.390625q0 0.21875 -0.140625 0.375q-0.140625 0.15625 -0.328125 0.15625l-4.8125 0q-0.203125 0 -0.328125 -0.140625q-0.125 -0.15625 -0.125 -0.40625zm0 -3.859375q0 -0.21875 0.125 -0.375q0.140625 -0.171875 0.328125 -0.171875l4.8125 0q0.1875 0 0.328125 0.171875q0.140625 0.15625 0.140625 0.390625q0 0.21875 -0.140625 0.390625q-0.140625 0.15625 -0.328125 0.15625l-4.8125 0q-0.203125 0 -0.328125 -0.15625q-0.125 -0.15625 -0.125 -0.40625zm11.781189 6.515625l0 -8.03125q0 -0.203125 0.15625 -0.328125q0.171875 -0.125 0.453125 -0.125q0.21875 0 0.390625 0.140625q0.171875 0.125 0.171875 0.3125l0 0.875q0.328125 -0.609375 0.984375 -1.015625q0.671875 -0.421875 1.5625 -0.421875q1.359375 0 2.359375 1.046875q1.015625 1.03125 1.015625 2.5l0 5.046875q0 0.234375 -0.1875 0.375q-0.1875 0.125 -0.4375 0.125q-0.21875 0 -0.421875 -0.125q-0.1875 -0.140625 -0.1875 -0.375l0 -5.046875q0 -0.9375 -0.703125 -1.671875q-0.703125 -0.75 -1.671875 -0.75q-0.890625 0 -1.578125 0.671875q-0.671875 0.671875 -0.671875 1.75l0 5.046875q0 0.203125 -0.203125 0.359375q-0.1875 0.140625 -0.421875 0.140625q-0.28125 0 -0.453125 -0.140625q-0.15625 -0.15625 -0.15625 -0.359375zm8.909729 -2.984375l0 -2.125q0 -1.421875 1.0625 -2.453125q1.0625 -1.03125 2.5625 -1.03125q1.4375 0 2.484375 0.984375q1.0625 0.984375 1.0625 2.46875q0 0.53125 -0.125 0.859375q-0.109375 0.3125 -0.390625 0.453125q-0.28125 0.125 -0.515625 0.171875q-0.21875 0.03125 -0.609375 0.03125l-4.296875 0l0 0.703125q0 1.125 0.796875 1.796875q0.8125 0.671875 2.09375 0.671875q0.640625 0 1.125 -0.1875q0.484375 -0.1875 0.734375 -0.375q0.265625 -0.1875 0.421875 -0.1875q0.203125 0 0.359375 0.203125q0.171875 0.1875 0.171875 0.375q0 0.40625 -0.828125 0.84375q-0.8125 0.421875 -2.03125 0.421875q-1.796875 0 -2.9375 -1.0q-1.140625 -1.0 -1.140625 -2.625zm1.234375 -1.546875l3.796875 0q0.5625 0 0.75 -0.125q0.203125 -0.125 0.203125 -0.53125q0 -0.9375 -0.6875 -1.65625q-0.671875 -0.734375 -1.6875 -0.734375q-0.984375 0 -1.6875 0.6875q-0.6875 0.6875 -0.6875 1.640625l0 0.71875zm6.7321167 -3.4375q0 -0.234375 0.234375 -0.390625q0.25 -0.171875 0.515625 -0.171875q0.34375 0 0.4375 0.296875l2.421875 6.765625l1.96875 -6.1875q0.09375 -0.3125 0.484375 -0.3125q0.40625 0 0.5 0.3125l1.875 6.25l2.484375 -6.828125q0.0625 -0.296875 0.421875 -0.296875q0.265625 0 0.5 0.15625q0.25 0.15625 0.25 0.40625q0 0.171875 -0.078125 0.28125l-2.96875 8.03125q-0.09375 0.3125 -0.5 0.3125q-0.359375 0 -0.5 -0.296875l-1.984375 -6.171875l-1.953125 6.078125q-0.109375 0.390625 -0.546875 0.390625q-0.40625 0 -0.515625 -0.390625l-2.96875 -7.953125q-0.078125 -0.15625 -0.078125 -0.28125z" fill-rule="nonzero"></path><path fill="#000000" fill-opacity="0.0" d="m78.07087 202.91318l0 0c0 -4.9054413 3.9766312 -8.882065 8.882065 -8.882065l175.52719 0c2.3556824 0 4.614868 0.93577576 6.2805786 2.6014862c1.6657104 1.6657104 2.6015015 3.9248962 2.6015015 6.2805786l0 35.527206c0 4.905426 -3.976654 8.882065 -8.88208 8.882065l-175.52719 0c-4.9054337 0 -8.882065 -3.9766388 -8.882065 -8.882065z" fill-rule="nonzero"></path><path stroke="#000000" stroke-width="2.0" stroke-linejoin="round" stroke-linecap="butt" d="m78.07087 202.91318l0 0c0 -4.9054413 3.9766312 -8.882065 8.882065 -8.882065l175.52719 0c2.3556824 0 4.614868 0.93577576 6.2805786 2.6014862c1.6657104 1.6657104 2.6015015 3.9248962 2.6015015 6.2805786l0 35.527206c0 4.905426 -3.976654 8.882065 -8.88208 8.882065l-175.52719 0c-4.9054337 0 -8.882065 -3.9766388 -8.882065 -8.882065z" fill-rule="nonzero"></path><path fill="#000000" d="m151.53802 223.47177q0 -2.859375 1.484375 -4.671875q1.484375 -1.8125 4.484375 -1.8125q2.8125 0 4.328125 1.59375q1.53125 1.59375 1.53125 4.53125q0 1.078125 -0.203125 1.90625q-0.203125 0.828125 -0.75 1.40625q-0.53125 0.5625 -1.34375 0.5625q-0.703125 0 -1.21875 -0.359375q-0.515625 -0.359375 -0.625 -0.875q-0.5625 0.546875 -1.0625 0.8125q-0.5 0.25 -1.28125 0.25q-1.0625 0 -1.71875 -0.5q-0.65625 -0.5 -0.65625 -1.5625q0 -1.21875 0.921875 -1.6875q0.9375 -0.46875 2.796875 -0.46875l0.828125 0l0 -0.359375q0 -0.828125 -0.453125 -1.21875q-0.4375 -0.390625 -1.40625 -0.390625q-0.734375 0 -1.25 0.234375q-0.5 0.234375 -0.5625 0.234375q-0.171875 0 -0.28125 -0.171875q-0.109375 -0.1875 -0.109375 -0.359375q0 -0.375 0.75 -0.65625q0.765625 -0.28125 1.640625 -0.28125q1.25 0 1.96875 0.640625q0.71875 0.640625 0.71875 1.796875l0 3.15625q0.0625 0.421875 0.375 0.6875q0.3125 0.265625 0.703125 0.265625q1.265625 0 1.265625 -2.921875q0 -2.578125 -1.234375 -3.953125q-1.234375 -1.375 -3.703125 -1.375q-1.375 0 -2.375 0.453125q-0.984375 0.4375 -1.546875 1.234375q-0.5625 0.796875 -0.828125 1.75q-0.25 0.953125 -0.25 2.09375q0 1.0625 0.21875 1.953125q0.234375 0.890625 0.734375 1.640625q0.515625 0.75 1.390625 1.171875q0.890625 0.4375 2.078125 0.4375q1.0 0 1.828125 -0.296875q0.84375 -0.296875 0.859375 -0.296875q0.171875 0 0.28125 0.140625q0.109375 0.15625 0.109375 0.28125q0 0.40625 -1.046875 0.734375q-1.03125 0.328125 -2.15625 0.328125q-2.203125 0 -3.71875 -1.546875q-1.515625 -1.546875 -1.515625 -4.53125zm4.03125 1.28125q0 0.625 0.390625 0.9375q0.40625 0.296875 1.0625 0.296875q0.890625 0 1.46875 -0.5q0.59375 -0.5 0.59375 -1.0625l0 -1.046875l-0.78125 0q-1.359375 0 -2.046875 0.28125q-0.6875 0.265625 -0.6875 1.09375zm9.529755 2.34375l0 -13.546875q0 -0.1875 0.15625 -0.3125q0.171875 -0.140625 0.4375 -0.140625q0.28125 0 0.453125 0.140625q0.1875 0.125 0.1875 0.3125l0 6.390625q0.3125 -0.609375 0.96875 -1.015625q0.65625 -0.421875 1.53125 -0.421875q1.375 0 2.359375 1.046875q1.0 1.03125 1.0 2.5l0 5.046875q0 0.234375 -0.1875 0.375q-0.171875 0.125 -0.4375 0.125q-0.21875 0 -0.421875 -0.125q-0.1875 -0.140625 -0.1875 -0.375l0 -5.046875q0 -0.9375 -0.703125 -1.671875q-0.703125 -0.75 -1.640625 -0.75q-0.90625 0 -1.59375 0.671875q-0.6875 0.671875 -0.6875 1.75l0 5.046875q0 0.203125 -0.203125 0.359375q-0.1875 0.140625 -0.4375 0.140625q-0.234375 0 -0.421875 -0.140625q-0.171875 -0.15625 -0.171875 -0.359375zm8.9097595 -2.984375l0 -2.125q0 -1.421875 1.0625 -2.453125q1.0625 -1.03125 2.5625 -1.03125q1.4375 0 2.484375 0.984375q1.0625 0.984375 1.0625 2.46875q0 0.53125 -0.125 0.859375q-0.109375 0.3125 -0.390625 0.453125q-0.28125 0.125 -0.515625 0.171875q-0.21875 0.03125 -0.609375 0.03125l-4.296875 0l0 0.703125q0 1.125 0.796875 1.796875q0.8125 0.671875 2.09375 0.671875q0.640625 0 1.125 -0.1875q0.484375 -0.1875 0.734375 -0.375q0.265625 -0.1875 0.421875 -0.1875q0.203125 0 0.359375 0.203125q0.171875 0.1875 0.171875 0.375q0 0.40625 -0.828125 0.84375q-0.8125 0.421875 -2.03125 0.421875q-1.796875 0 -2.9375 -1.0q-1.140625 -1.0 -1.140625 -2.625zm1.234375 -1.546875l3.796875 0q0.5625 0 0.75 -0.125q0.203125 -0.125 0.203125 -0.53125q0 -0.9375 -0.6875 -1.65625q-0.671875 -0.734375 -1.6875 -0.734375q-0.984375 0 -1.6875 0.6875q-0.6875 0.6875 -0.6875 1.640625l0 0.71875zm7.013321 2.65625q0 -1.46875 1.125 -2.03125q1.140625 -0.578125 3.3125 -0.578125l0.96875 0l0 -0.453125q0 -1.046875 -0.5625 -1.8125q-0.546875 -0.765625 -1.6875 -0.765625q-0.75 0 -1.375 0.28125q-0.609375 0.265625 -0.65625 0.265625q-0.21875 0 -0.359375 -0.203125q-0.125 -0.21875 -0.125 -0.453125q0 -0.375 0.8125 -0.671875q0.8125 -0.296875 1.75 -0.296875q1.78125 0 2.609375 1.03125q0.828125 1.03125 0.828125 2.625l0 4.9375q0 0.21875 -0.171875 0.359375q-0.171875 0.140625 -0.4375 0.140625q-0.25 0 -0.421875 -0.140625q-0.15625 -0.140625 -0.15625 -0.359375l0 -0.828125q-1.265625 1.46875 -2.859375 1.46875q-1.140625 0 -1.875 -0.640625q-0.71875 -0.640625 -0.71875 -1.875zm1.25 -0.109375q0 0.796875 0.453125 1.1875q0.453125 0.390625 1.1875 0.390625q0.890625 0 1.703125 -0.65625q0.8125 -0.671875 0.8125 -1.34375l0 -1.21875l-0.796875 0q-0.765625 0 -1.296875 0.0625q-0.515625 0.046875 -1.03125 0.203125q-0.5 0.15625 -0.765625 0.5q-0.265625 0.34375 -0.265625 0.875zm7.2183075 -1.0l0 -2.0625q0 -1.46875 0.984375 -2.5q1.0 -1.046875 2.40625 -1.046875q0.875 0 1.53125 0.421875q0.65625 0.40625 0.984375 1.015625l0 -6.390625q0 -0.1875 0.1875 -0.3125q0.1875 -0.140625 0.453125 -0.140625q0.265625 0 0.421875 0.140625q0.171875 0.125 0.171875 0.3125l0 13.546875q0 0.203125 -0.171875 0.359375q-0.171875 0.140625 -0.421875 0.140625q-0.21875 0 -0.40625 -0.140625q-0.171875 -0.15625 -0.171875 -0.359375l0 -0.828125q-0.328125 0.609375 -1.046875 1.046875q-0.703125 0.421875 -1.5625 0.421875q-1.34375 0 -2.359375 -1.09375q-1.0 -1.09375 -1.0 -2.53125zm1.234375 0q0 0.953125 0.703125 1.71875q0.703125 0.765625 1.65625 0.765625q0.90625 0 1.609375 -0.6875q0.703125 -0.6875 0.703125 -1.203125l0 -2.65625q0 -1.078125 -0.703125 -1.75q-0.6875 -0.671875 -1.59375 -0.671875q-0.96875 0 -1.671875 0.75q-0.703125 0.734375 -0.703125 1.671875l0 2.0625z" fill-rule="nonzero"></path><path fill="#000000" fill-opacity="0.0" d="m412.79788 202.91318l0 0c0 -4.9054413 3.976654 -8.882065 8.88208 -8.882065l175.52719 0c2.3556519 0 4.614868 0.93577576 6.2805786 2.6014862c1.6657104 1.6657104 2.6015015 3.9248962 2.6015015 6.2805786l0 35.527206c0 4.905426 -3.9766235 8.882065 -8.88208 8.882065l-175.52719 0c-4.905426 0 -8.88208 -3.9766388 -8.88208 -8.882065z" fill-rule="nonzero"></path><path stroke="#000000" stroke-width="2.0" stroke-linejoin="round" stroke-linecap="butt" d="m412.79788 202.91318l0 0c0 -4.9054413 3.976654 -8.882065 8.88208 -8.882065l175.52719 0c2.3556519 0 4.614868 0.93577576 6.2805786 2.6014862c1.6657104 1.6657104 2.6015015 3.9248962 2.6015015 6.2805786l0 35.527206c0 4.905426 -3.9766235 8.882065 -8.88208 8.882065l-175.52719 0c-4.905426 0 -8.88208 -3.9766388 -8.88208 -8.882065z" fill-rule="nonzero"></path><path fill="#000000" fill-opacity="0.0" d="m747.5249 202.91318l0 0c0 -4.9054413 3.9766235 -8.882065 8.88208 -8.882065l175.52722 0c2.3556519 0 4.614868 0.93577576 6.2805786 2.6014862c1.6657104 1.6657104 2.6015015 3.9248962 2.6015015 6.2805786l0 35.527206c0 4.905426 -3.9766846 8.882065 -8.88208 8.882065l-175.52722 0c-4.9054565 0 -8.88208 -3.9766388 -8.88208 -8.882065z" fill-rule="nonzero"></path><path stroke="#000000" stroke-width="2.0" stroke-linejoin="round" stroke-linecap="butt" d="m747.5249 202.91318l0 0c0 -4.9054413 3.9766235 -8.882065 8.88208 -8.882065l175.52722 0c2.3556519 0 4.614868 0.93577576 6.2805786 2.6014862c1.6657104 1.6657104 2.6015015 3.9248962 2.6015015 6.2805786l0 35.527206c0 4.905426 -3.9766846 8.882065 -8.88208 8.882065l-175.52722 0c-4.9054565 0 -8.88208 -3.9766388 -8.88208 -8.882065z" fill-rule="nonzero"></path><path fill="#000000" fill-opacity="0.0" d="m271.3622 220.67677l141.43567 0" fill-rule="nonzero"></path><path stroke="#000000" stroke-width="2.0" stroke-linejoin="round" stroke-linecap="butt" d="m271.3622 220.67677l129.4357 0" fill-rule="evenodd"></path><path fill="#000000" stroke="#000000" stroke-width="2.0" stroke-linecap="butt" d="m400.7979 223.98024l9.076172 -3.3034668l-9.076172 -3.3034668z" fill-rule="evenodd"></path><path fill="#000000" fill-opacity="0.0" d="m412.79788 68.83591l0 0c0 -4.905426 3.976654 -8.882065 8.88208 -8.882065l175.52719 0c2.3556519 0 4.614868 0.9357872 6.2805786 2.6014977c1.6657104 1.6657143 2.6015015 3.9249 2.6015015 6.280567l0 35.527206c0 4.9054337 -3.9766235 8.882065 -8.88208 8.882065l-175.52719 0c-4.905426 0 -8.88208 -3.9766312 -8.88208 -8.882065z" fill-rule="nonzero"></path><path stroke="#000000" stroke-width="2.0" stroke-linejoin="round" stroke-linecap="butt" d="m412.79788 68.83591l0 0c0 -4.905426 3.976654 -8.882065 8.88208 -8.882065l175.52719 0c2.3556519 0 4.614868 0.9357872 6.2805786 2.6014977c1.6657104 1.6657143 2.6015015 3.9249 2.6015015 6.280567l0 35.527206c0 4.9054337 -3.9766235 8.882065 -8.88208 8.882065l-175.52719 0c-4.905426 0 -8.88208 -3.9766312 -8.88208 -8.882065z" fill-rule="nonzero"></path><path fill="#000000" d="m495.5258 93.01951l0 -8.03125q0 -0.203125 0.15625 -0.328125q0.171875 -0.125 0.453125 -0.125q0.21875 0 0.390625 0.140625q0.171875 0.125 0.171875 0.3125l0 0.875q0.328125 -0.609375 0.984375 -1.015625q0.671875 -0.421875 1.5625 -0.421875q1.359375 0 2.359375 1.046875q1.015625 1.03125 1.015625 2.5l0 5.046875q0 0.234375 -0.1875 0.375q-0.1875 0.125 -0.4375 0.125q-0.21875 0 -0.421875 -0.125q-0.1875 -0.140625 -0.1875 -0.375l0 -5.046875q0 -0.9375 -0.703125 -1.671875q-0.703125 -0.75 -1.671875 -0.75q-0.890625 0 -1.578125 0.671875q-0.671875 0.671875 -0.671875 1.75l0 5.046875q0 0.203125 -0.203125 0.359375q-0.1875 0.140625 -0.421875 0.140625q-0.28125 0 -0.453125 -0.140625q-0.15625 -0.15625 -0.15625 -0.359375zm8.9097595 -2.984375l0 -2.125q0 -1.421875 1.0625 -2.453125q1.0625 -1.03125 2.5625 -1.03125q1.4375 0 2.484375 0.984375q1.0625 0.984375 1.0625 2.46875q0 0.53125 -0.125 0.859375q-0.109375 0.3125 -0.390625 0.453125q-0.28125 0.125 -0.515625 0.171875q-0.21875 0.03125 -0.609375 0.03125l-4.296875 0l0 0.703125q0 1.125 0.796875 1.796875q0.8125 0.671875 2.09375 0.671875q0.640625 0 1.125 -0.1875q0.484375 -0.1875 0.734375 -0.375q0.265625 -0.1875 0.421875 -0.1875q0.203125 0 0.359375 0.203125q0.171875 0.1875 0.171875 0.375q0 0.40625 -0.828125 0.84375q-0.8125 0.421875 -2.03125 0.421875q-1.796875 0 -2.9375 -1.0q-1.140625 -1.0 -1.140625 -2.625zm1.234375 -1.546875l3.796875 0q0.5625 0 0.75 -0.125q0.203125 -0.125 0.203125 -0.53125q0 -0.9375 -0.6875 -1.65625q-0.671875 -0.734375 -1.6875 -0.734375q-0.984375 0 -1.6875 0.6875q-0.6875 0.6875 -0.6875 1.640625l0 0.71875zm6.7320557 -3.4375q0 -0.234375 0.234375 -0.390625q0.25 -0.171875 0.515625 -0.171875q0.34375 0 0.4375 0.296875l2.421875 6.765625l1.96875 -6.1875q0.09375 -0.3125 0.484375 -0.3125q0.40625 0 0.5 0.3125l1.875 6.25l2.484375 -6.828125q0.0625 -0.296875 0.421875 -0.296875q0.265625 0 0.5 0.15625q0.25 0.15625 0.25 0.40625q0 0.171875 -0.078125 0.28125l-2.96875 8.03125q-0.09375 0.3125 -0.5 0.3125q-0.359375 0 -0.5 -0.296875l-1.984375 -6.171875l-1.953125 6.078125q-0.109375 0.390625 -0.546875 0.390625q-0.40625 0 -0.515625 -0.390625l-2.96875 -7.953125q-0.078125 -0.15625 -0.078125 -0.28125z" fill-rule="nonzero"></path><path fill="#000000" fill-opacity="0.0" d="m606.08923 86.59951l238.08136 107.4316" fill-rule="nonzero"></path><path stroke="#000000" stroke-width="2.0" stroke-linejoin="round" stroke-linecap="butt" d="m606.08923 86.59951l227.14337 102.495964" fill-rule="evenodd"></path><path fill="#000000" stroke="#000000" stroke-width="2.0" stroke-linecap="butt" d="m831.8739 192.10657l9.631653 0.7219696l-6.9141846 -6.744171z" fill-rule="evenodd"></path><path fill="#000000" fill-opacity="0.0" d="m606.08923 220.67677l141.43567 0" fill-rule="nonzero"></path><path stroke="#000000" stroke-width="2.0" stroke-linejoin="round" stroke-linecap="butt" stroke-dasharray="8.0,6.0,2.0,6.0" d="m606.08923 220.67677l129.43573 0" fill-rule="evenodd"></path><path fill="#000000" stroke="#000000" stroke-width="2.0" stroke-linecap="butt" d="m735.52496 223.98024l9.076172 -3.3034668l-9.076172 -3.3034668z" fill-rule="evenodd"></path><path fill="#000000" fill-opacity="0.0" d="m509.44357 194.03111l0 -80.785934" fill-rule="nonzero"></path><path stroke="#000000" stroke-width="2.0" stroke-linejoin="round" stroke-linecap="butt" d="m509.44357 194.03111l0 -68.785934" fill-rule="evenodd"></path><path fill="#000000" stroke="#000000" stroke-width="2.0" stroke-linecap="butt" d="m512.747 125.24518l-3.3034363 -9.076195l-3.3034668 9.076195z" fill-rule="evenodd"></path><path fill="#000000" fill-opacity="0.0" d="m-6.51706E-4 438.0693l0 0c0 -29.293427 23.747011 -53.040436 53.040432 -53.040436l252.81679 0c14.0672 0 27.558228 5.5881653 37.50525 15.535187c9.946991 9.9470215 15.535156 23.43805 15.535156 37.50525l0 212.15536c0 29.293396 -23.74701 53.040405 -53.040405 53.040405l-252.81679 0c-29.29342 0 -53.040432 -23.74701 -53.040432 -53.040405z" fill-rule="nonzero"></path><path stroke="#000000" stroke-width="1.0" stroke-linejoin="round" stroke-linecap="butt" stroke-dasharray="1.0,3.0" d="m-6.51706E-4 438.0693l0 0c0 -29.293427 23.747011 -53.040436 53.040432 -53.040436l252.81679 0c14.0672 0 27.558228 5.5881653 37.50525 15.535187c9.946991 9.9470215 15.535156 23.43805 15.535156 37.50525l0 212.15536c0 29.293396 -23.74701 53.040405 -53.040405 53.040405l-252.81679 0c-29.29342 0 -53.040432 -23.74701 -53.040432 -53.040405z" fill-rule="nonzero"></path><path fill="#000000" d="m110.301575 638.19196q-0.234375 -0.25 -0.234375 -0.5625q0 -0.328125 0.234375 -0.546875q0.25 -0.234375 0.625 -0.234375q0.328125 0 0.5625 0.234375q0.25 0.21875 0.25 0.546875q0 0.3125 -0.25 0.5625q-0.234375 0.234375 -0.5625 0.234375q-0.375 0 -0.625 -0.234375zm0.015625 11.375l0 -8.03125q0 -0.1875 0.15625 -0.3125q0.171875 -0.140625 0.4375 -0.140625q0.28125 0 0.453125 0.140625q0.1875 0.125 0.1875 0.3125l0 8.03125q0 0.203125 -0.203125 0.359375q-0.1875 0.140625 -0.4375 0.140625q-0.234375 0 -0.421875 -0.140625q-0.171875 -0.15625 -0.171875 -0.359375zm3.5633392 0.03125l0 -10.53125q0 -1.421875 1.0 -2.453125q1.015625 -1.046875 2.375 -1.046875l0.46875 0q0.234375 0 0.390625 0.171875q0.15625 0.171875 0.15625 0.40625q0 0.21875 -0.15625 0.390625q-0.15625 0.15625 -0.390625 0.15625l-0.3125 0q-0.96875 0 -1.625 0.671875q-0.65625 0.671875 -0.671875 1.609375l0 2.109375l2.71875 0q0.1875 0 0.3125 0.15625q0.125 0.140625 0.125 0.328125q0 0.234375 -0.125 0.390625q-0.125 0.140625 -0.3125 0.140625l-2.71875 0l0 7.5q0 0.203125 -0.203125 0.34375q-0.1875 0.125 -0.453125 0.125q-0.25 0 -0.421875 -0.125q-0.15625 -0.140625 -0.15625 -0.34375zm9.218277 -3.65625q0 -2.859375 1.484375 -4.671875q1.484375 -1.8125 4.484375 -1.8125q2.8125 0 4.328125 1.59375q1.53125 1.59375 1.53125 4.53125q0 1.078125 -0.203125 1.90625q-0.203125 0.828125 -0.75 1.40625q-0.53125 0.5625 -1.34375 0.5625q-0.703125 0 -1.21875 -0.359375q-0.515625 -0.359375 -0.625 -0.875q-0.5625 0.546875 -1.0625 0.8125q-0.5 0.25 -1.28125 0.25q-1.0625 0 -1.71875 -0.5q-0.65625 -0.5 -0.65625 -1.5625q0 -1.21875 0.921875 -1.6875q0.9375 -0.46875 2.796875 -0.46875l0.828125 0l0 -0.359375q0 -0.828125 -0.453125 -1.21875q-0.4375 -0.390625 -1.40625 -0.390625q-0.734375 0 -1.25 0.234375q-0.5 0.234375 -0.5625 0.234375q-0.171875 0 -0.28125 -0.171875q-0.109375 -0.1875 -0.109375 -0.359375q0 -0.375 0.75 -0.65625q0.765625 -0.28125 1.640625 -0.28125q1.25 0 1.96875 0.640625q0.71875 0.640625 0.71875 1.796875l0 3.15625q0.0625 0.421875 0.375 0.6875q0.3125 0.265625 0.703125 0.265625q1.265625 0 1.265625 -2.921875q0 -2.578125 -1.234375 -3.953125q-1.234375 -1.375 -3.703125 -1.375q-1.375 0 -2.375 0.453125q-0.984375 0.4375 -1.546875 1.234375q-0.5625 0.796875 -0.828125 1.75q-0.25 0.953125 -0.25 2.09375q0 1.0625 0.21875 1.953125q0.234375 0.890625 0.734375 1.640625q0.515625 0.75 1.390625 1.171875q0.890625 0.4375 2.078125 0.4375q1.0 0 1.828125 -0.296875q0.84375 -0.296875 0.859375 -0.296875q0.171875 0 0.28125 0.140625q0.109375 0.15625 0.109375 0.28125q0 0.40625 -1.046875 0.734375q-1.03125 0.328125 -2.15625 0.328125q-2.203125 0 -3.71875 -1.546875q-1.515625 -1.546875 -1.515625 -4.53125zm4.03125 1.28125q0 0.625 0.390625 0.9375q0.40625 0.296875 1.0625 0.296875q0.890625 0 1.46875 -0.5q0.59375 -0.5 0.59375 -1.0625l0 -1.046875l-0.78125 0q-1.359375 0 -2.046875 0.28125q-0.6875 0.265625 -0.6875 1.09375zm9.529755 2.34375l0 -13.546875q0 -0.1875 0.15625 -0.3125q0.171875 -0.140625 0.4375 -0.140625q0.28125 0 0.453125 0.140625q0.1875 0.125 0.1875 0.3125l0 6.390625q0.3125 -0.609375 0.96875 -1.015625q0.65625 -0.421875 1.53125 -0.421875q1.375 0 2.359375 1.046875q1.0 1.03125 1.0 2.5l0 5.046875q0 0.234375 -0.1875 0.375q-0.171875 0.125 -0.4375 0.125q-0.21875 0 -0.421875 -0.125q-0.1875 -0.140625 -0.1875 -0.375l0 -5.046875q0 -0.9375 -0.703125 -1.671875q-0.703125 -0.75 -1.640625 -0.75q-0.90625 0 -1.59375 0.671875q-0.6875 0.671875 -0.6875 1.75l0 5.046875q0 0.203125 -0.203125 0.359375q-0.1875 0.140625 -0.4375 0.140625q-0.234375 0 -0.421875 -0.140625q-0.171875 -0.15625 -0.171875 -0.359375zm8.9097595 -2.984375l0 -2.125q0 -1.421875 1.0625 -2.453125q1.0625 -1.03125 2.5625 -1.03125q1.4375 0 2.484375 0.984375q1.0625 0.984375 1.0625 2.46875q0 0.53125 -0.125 0.859375q-0.109375 0.3125 -0.390625 0.453125q-0.28125 0.125 -0.515625 0.171875q-0.21875 0.03125 -0.609375 0.03125l-4.296875 0l0 0.703125q0 1.125 0.796875 1.796875q0.8125 0.671875 2.09375 0.671875q0.640625 0 1.125 -0.1875q0.484375 -0.1875 0.734375 -0.375q0.265625 -0.1875 0.421875 -0.1875q0.203125 0 0.359375 0.203125q0.171875 0.1875 0.171875 0.375q0 0.40625 -0.828125 0.84375q-0.8125 0.421875 -2.03125 0.421875q-1.796875 0 -2.9375 -1.0q-1.140625 -1.0 -1.140625 -2.625zm1.234375 -1.546875l3.796875 0q0.5625 0 0.75 -0.125q0.203125 -0.125 0.203125 -0.53125q0 -0.9375 -0.6875 -1.65625q-0.671875 -0.734375 -1.6875 -0.734375q-0.984375 0 -1.6875 0.6875q-0.6875 0.6875 -0.6875 1.640625l0 0.71875zm7.013321 2.65625q0 -1.46875 1.125 -2.03125q1.140625 -0.578125 3.3125 -0.578125l0.96875 0l0 -0.453125q0 -1.046875 -0.5625 -1.8125q-0.546875 -0.765625 -1.6875 -0.765625q-0.75 0 -1.375 0.28125q-0.609375 0.265625 -0.65625 0.265625q-0.21875 0 -0.359375 -0.203125q-0.125 -0.21875 -0.125 -0.453125q0 -0.375 0.8125 -0.671875q0.8125 -0.296875 1.75 -0.296875q1.78125 0 2.609375 1.03125q0.828125 1.03125 0.828125 2.625l0 4.9375q0 0.21875 -0.171875 0.359375q-0.171875 0.140625 -0.4375 0.140625q-0.25 0 -0.421875 -0.140625q-0.15625 -0.140625 -0.15625 -0.359375l0 -0.828125q-1.265625 1.46875 -2.859375 1.46875q-1.140625 0 -1.875 -0.640625q-0.71875 -0.640625 -0.71875 -1.875zm1.25 -0.109375q0 0.796875 0.453125 1.1875q0.453125 0.390625 1.1875 0.390625q0.890625 0 1.703125 -0.65625q0.8125 -0.671875 0.8125 -1.34375l0 -1.21875l-0.796875 0q-0.765625 0 -1.296875 0.0625q-0.515625 0.046875 -1.03125 0.203125q-0.5 0.15625 -0.765625 0.5q-0.265625 0.34375 -0.265625 0.875zm7.2183075 -1.0l0 -2.0625q0 -1.46875 0.984375 -2.5q1.0 -1.046875 2.40625 -1.046875q0.875 0 1.53125 0.421875q0.65625 0.40625 0.984375 1.015625l0 -6.390625q0 -0.1875 0.1875 -0.3125q0.1875 -0.140625 0.453125 -0.140625q0.265625 0 0.421875 0.140625q0.171875 0.125 0.171875 0.3125l0 13.546875q0 0.203125 -0.171875 0.359375q-0.171875 0.140625 -0.421875 0.140625q-0.21875 0 -0.40625 -0.140625q-0.171875 -0.15625 -0.171875 -0.359375l0 -0.828125q-0.328125 0.609375 -1.046875 1.046875q-0.703125 0.421875 -1.5625 0.421875q-1.34375 0 -2.359375 -1.09375q-1.0 -1.09375 -1.0 -2.53125zm1.234375 0q0 0.953125 0.703125 1.71875q0.703125 0.765625 1.65625 0.765625q0.90625 0 1.609375 -0.6875q0.703125 -0.6875 0.703125 -1.203125l0 -2.65625q0 -1.078125 -0.703125 -1.75q-0.6875 -0.671875 -1.59375 -0.671875q-0.96875 0 -1.671875 0.75q-0.703125 0.734375 -0.703125 1.671875l0 2.0625zm7.7015076 2.71875q0 -0.375 0.234375 -0.625q0.25 -0.265625 0.640625 -0.265625q0.328125 0 0.578125 0.265625q0.265625 0.265625 0.265625 0.625q0 0.34375 -0.265625 0.609375q-0.25 0.265625 -0.578125 0.265625q-0.390625 0 -0.640625 -0.25q-0.234375 -0.265625 -0.234375 -0.625zm3.627716 0.265625l0 -8.03125q0 -0.203125 0.15625 -0.328125q0.171875 -0.125 0.453125 -0.125q0.21875 0 0.390625 0.140625q0.171875 0.125 0.171875 0.3125l0 0.875q0.328125 -0.609375 0.984375 -1.015625q0.671875 -0.421875 1.5625 -0.421875q1.359375 0 2.359375 1.046875q1.015625 1.03125 1.015625 2.5l0 5.046875q0 0.234375 -0.1875 0.375q-0.1875 0.125 -0.4375 0.125q-0.21875 0 -0.421875 -0.125q-0.1875 -0.140625 -0.1875 -0.375l0 -5.046875q0 -0.9375 -0.703125 -1.671875q-0.703125 -0.75 -1.671875 -0.75q-0.890625 0 -1.578125 0.671875q-0.671875 0.671875 -0.671875 1.75l0 5.046875q0 0.203125 -0.203125 0.359375q-0.1875 0.140625 -0.421875 0.140625q-0.28125 0 -0.453125 -0.140625q-0.15625 -0.15625 -0.15625 -0.359375zm8.9097595 -2.984375l0 -2.125q0 -1.421875 1.0625 -2.453125q1.0625 -1.03125 2.5625 -1.03125q1.4375 0 2.484375 0.984375q1.0625 0.984375 1.0625 2.46875q0 0.53125 -0.125 0.859375q-0.109375 0.3125 -0.390625 0.453125q-0.28125 0.125 -0.515625 0.171875q-0.21875 0.03125 -0.609375 0.03125l-4.296875 0l0 0.703125q0 1.125 0.796875 1.796875q0.8125 0.671875 2.09375 0.671875q0.640625 0 1.125 -0.1875q0.484375 -0.1875 0.734375 -0.375q0.265625 -0.1875 0.421875 -0.1875q0.203125 0 0.359375 0.203125q0.171875 0.1875 0.171875 0.375q0 0.40625 -0.828125 0.84375q-0.8125 0.421875 -2.03125 0.421875q-1.796875 0 -2.9375 -1.0q-1.140625 -1.0 -1.140625 -2.625zm1.234375 -1.546875l3.796875 0q0.5625 0 0.75 -0.125q0.203125 -0.125 0.203125 -0.53125q0 -0.9375 -0.6875 -1.65625q-0.671875 -0.734375 -1.6875 -0.734375q-0.984375 0 -1.6875 0.6875q-0.6875 0.6875 -0.6875 1.640625l0 0.71875zm6.919571 4.5625q0 -0.125 0.078125 -0.265625l2.53125 -3.8125l-2.46875 -3.6875q-0.09375 -0.1875 -0.09375 -0.234375q0 -0.234375 0.25 -0.421875q0.265625 -0.203125 0.5 -0.203125q0.265625 0 0.390625 0.1875l2.234375 3.46875l2.265625 -3.46875q0.109375 -0.1875 0.359375 -0.1875q0.25 0 0.5 0.203125q0.265625 0.1875 0.265625 0.421875q0 0.09375 -0.09375 0.234375l-2.5 3.6875l2.546875 3.8125q0.078125 0.109375 0.078125 0.265625q0 0.203125 -0.234375 0.40625q-0.234375 0.203125 -0.5 0.203125q-0.25 0 -0.359375 -0.203125l-2.328125 -3.546875l-2.296875 3.546875q-0.125 0.203125 -0.390625 0.203125q-0.234375 0 -0.484375 -0.203125q-0.25 -0.203125 -0.25 -0.40625zm8.336563 -2.328125l0 -10.015625q0 -0.1875 0.1875 -0.3125q0.1875 -0.140625 0.421875 -0.140625q0.25 0 0.4375 0.140625q0.1875 0.125 0.1875 0.3125l0 3.828125l2.453125 0q0.1875 0 0.3125 0.15625q0.125 0.140625 0.125 0.359375q0 0.203125 -0.125 0.359375q-0.125 0.140625 -0.3125 0.140625l-2.453125 0l0 5.171875q0 0.9375 0.390625 1.3125q0.390625 0.359375 1.375 0.359375l0.53125 0q0.25 0 0.40625 0.171875q0.171875 0.15625 0.171875 0.390625q0 0.21875 -0.171875 0.390625q-0.15625 0.171875 -0.40625 0.171875l-0.53125 0q-3.0 0 -3.0 -2.796875zm9.006531 0.921875q0 -0.265625 0.21875 -0.40625l4.515625 -2.984375l-4.515625 -3.0q-0.21875 -0.125 -0.21875 -0.390625q0 -0.234375 0.1875 -0.40625q0.1875 -0.1875 0.40625 -0.1875q0.125 0 0.21875 0.078125l5.125 3.375q0.296875 0.203125 0.296875 0.53125q0 0.328125 -0.296875 0.515625l-5.125 3.375q-0.09375 0.078125 -0.21875 0.078125q-0.21875 0 -0.40625 -0.171875q-0.1875 -0.1875 -0.1875 -0.40625zm11.487595 1.375l0 -8.03125q0 -0.203125 0.15625 -0.328125q0.171875 -0.125 0.453125 -0.125q0.21875 0 0.390625 0.140625q0.171875 0.125 0.171875 0.3125l0 0.875q0.328125 -0.609375 0.984375 -1.015625q0.671875 -0.421875 1.5625 -0.421875q1.359375 0 2.359375 1.046875q1.015625 1.03125 1.015625 2.5l0 5.046875q0 0.234375 -0.1875 0.375q-0.1875 0.125 -0.4375 0.125q-0.21875 0 -0.421875 -0.125q-0.1875 -0.140625 -0.1875 -0.375l0 -5.046875q0 -0.9375 -0.703125 -1.671875q-0.703125 -0.75 -1.671875 -0.75q-0.890625 0 -1.578125 0.671875q-0.671875 0.671875 -0.671875 1.75l0 5.046875q0 0.203125 -0.203125 0.359375q-0.1875 0.140625 -0.421875 0.140625q-0.28125 0 -0.453125 -0.140625q-0.15625 -0.15625 -0.15625 -0.359375zm8.9097595 -2.984375l0 -2.125q0 -1.421875 1.0625 -2.453125q1.0625 -1.03125 2.5625 -1.03125q1.4375 0 2.484375 0.984375q1.0625 0.984375 1.0625 2.46875q0 0.53125 -0.125 0.859375q-0.109375 0.3125 -0.390625 0.453125q-0.28125 0.125 -0.515625 0.171875q-0.21875 0.03125 -0.609375 0.03125l-4.296875 0l0 0.703125q0 1.125 0.796875 1.796875q0.8125 0.671875 2.09375 0.671875q0.640625 0 1.125 -0.1875q0.484375 -0.1875 0.734375 -0.375q0.265625 -0.1875 0.421875 -0.1875q0.203125 0 0.359375 0.203125q0.171875 0.1875 0.171875 0.375q0 0.40625 -0.828125 0.84375q-0.8125 0.421875 -2.03125 0.421875q-1.796875 0 -2.9375 -1.0q-1.140625 -1.0 -1.140625 -2.625zm1.234375 -1.546875l3.796875 0q0.5625 0 0.75 -0.125q0.203125 -0.125 0.203125 -0.53125q0 -0.9375 -0.6875 -1.65625q-0.671875 -0.734375 -1.6875 -0.734375q-0.984375 0 -1.6875 0.6875q-0.6875 0.6875 -0.6875 1.640625l0 0.71875zm6.732071 -3.4375q0 -0.234375 0.234375 -0.390625q0.25 -0.171875 0.515625 -0.171875q0.34375 0 0.4375 0.296875l2.421875 6.765625l1.96875 -6.1875q0.09375 -0.3125 0.484375 -0.3125q0.40625 0 0.5 0.3125l1.875 6.25l2.484375 -6.828125q0.0625 -0.296875 0.421875 -0.296875q0.265625 0 0.5 0.15625q0.25 0.15625 0.25 0.40625q0 0.171875 -0.078125 0.28125l-2.96875 8.03125q-0.09375 0.3125 -0.5 0.3125q-0.359375 0 -0.5 -0.296875l-1.984375 -6.171875l-1.953125 6.078125q-0.109375 0.390625 -0.546875 0.390625q-0.40625 0 -0.515625 -0.390625l-2.96875 -7.953125q-0.078125 -0.15625 -0.078125 -0.28125z" fill-rule="nonzero"></path><path fill="#000000" d="m116.483086 671.567l0 -8.03125q0 -0.203125 0.15625 -0.328125q0.171875 -0.125 0.453125 -0.125q0.21875 0 0.390625 0.140625q0.171875 0.125 0.171875 0.3125l0 0.875q0.328125 -0.609375 0.984375 -1.015625q0.671875 -0.421875 1.5625 -0.421875q1.359375 0 2.359375 1.046875q1.015625 1.03125 1.015625 2.5l0 5.046875q0 0.234375 -0.1875 0.375q-0.1875 0.125 -0.4375 0.125q-0.21875 0 -0.421875 -0.125q-0.1875 -0.140625 -0.1875 -0.375l0 -5.046875q0 -0.9375 -0.703125 -1.671875q-0.703125 -0.75 -1.671875 -0.75q-0.890625 0 -1.578125 0.671875q-0.671875 0.671875 -0.671875 1.75l0 5.046875q0 0.203125 -0.203125 0.359375q-0.1875 0.140625 -0.421875 0.140625q-0.28125 0 -0.453125 -0.140625q-0.15625 -0.15625 -0.15625 -0.359375zm8.9097595 -2.984375l0 -2.125q0 -1.421875 1.0625 -2.453125q1.0625 -1.03125 2.5624924 -1.03125q1.4375 0 2.484375 0.984375q1.0625 0.984375 1.0625 2.46875q0 0.53125 -0.125 0.859375q-0.109375 0.3125 -0.390625 0.453125q-0.28125 0.125 -0.515625 0.171875q-0.21875 0.03125 -0.609375 0.03125l-4.2968674 0l0 0.703125q0 1.125 0.796875 1.796875q0.8124924 0.671875 2.0937424 0.671875q0.640625 0 1.125 -0.1875q0.484375 -0.1875 0.734375 -0.375q0.265625 -0.1875 0.421875 -0.1875q0.203125 0 0.359375 0.203125q0.171875 0.1875 0.171875 0.375q0 0.40625 -0.828125 0.84375q-0.8125 0.421875 -2.03125 0.421875q-1.7968674 0 -2.9374924 -1.0q-1.140625 -1.0 -1.140625 -2.625zm1.234375 -1.546875l3.7968674 0q0.5625 0 0.75 -0.125q0.203125 -0.125 0.203125 -0.53125q0 -0.9375 -0.6875 -1.65625q-0.671875 -0.734375 -1.6875 -0.734375q-0.984375 0 -1.6874924 0.6875q-0.6875 0.6875 -0.6875 1.640625l0 0.71875zm6.7320633 -3.4375q0 -0.234375 0.234375 -0.390625q0.25 -0.171875 0.515625 -0.171875q0.34375 0 0.4375 0.296875l2.421875 6.765625l1.96875 -6.1875q0.09375 -0.3125 0.484375 -0.3125q0.40625 0 0.5 0.3125l1.875 6.25l2.484375 -6.828125q0.0625 -0.296875 0.421875 -0.296875q0.265625 0 0.5 0.15625q0.25 0.15625 0.25 0.40625q0 0.171875 -0.078125 0.28125l-2.96875 8.03125q-0.09375 0.3125 -0.5 0.3125q-0.359375 0 -0.5 -0.296875l-1.984375 -6.171875l-1.953125 6.078125q-0.109375 0.390625 -0.546875 0.390625q-0.40625 0 -0.515625 -0.390625l-2.96875 -7.953125q-0.078125 -0.15625 -0.078125 -0.28125zm12.928101 7.703125q0 -0.375 0.234375 -0.625q0.25 -0.265625 0.640625 -0.265625q0.328125 0 0.578125 0.265625q0.265625 0.265625 0.265625 0.625q0 0.34375 -0.265625 0.609375q-0.25 0.265625 -0.578125 0.265625q-0.390625 0 -0.640625 -0.25q-0.234375 -0.265625 -0.234375 -0.625zm3.627716 0.265625l0 -8.03125q0 -0.203125 0.15625 -0.328125q0.171875 -0.125 0.453125 -0.125q0.21875 0 0.390625 0.140625q0.171875 0.125 0.171875 0.3125l0 0.875q0.328125 -0.609375 0.984375 -1.015625q0.671875 -0.421875 1.5625 -0.421875q1.359375 0 2.359375 1.046875q1.015625 1.03125 1.015625 2.5l0 5.046875q0 0.234375 -0.1875 0.375q-0.1875 0.125 -0.4375 0.125q-0.21875 0 -0.421875 -0.125q-0.1875 -0.140625 -0.1875 -0.375l0 -5.046875q0 -0.9375 -0.703125 -1.671875q-0.703125 -0.75 -1.671875 -0.75q-0.890625 0 -1.578125 0.671875q-0.671875 0.671875 -0.671875 1.75l0 5.046875q0 0.203125 -0.203125 0.359375q-0.1875 0.140625 -0.421875 0.140625q-0.28125 0 -0.453125 -0.140625q-0.15625 -0.15625 -0.15625 -0.359375zm8.9097595 -2.984375l0 -2.125q0 -1.421875 1.0625 -2.453125q1.0625 -1.03125 2.5625 -1.03125q1.4375 0 2.484375 0.984375q1.0625 0.984375 1.0625 2.46875q0 0.53125 -0.125 0.859375q-0.109375 0.3125 -0.390625 0.453125q-0.28125 0.125 -0.515625 0.171875q-0.21875 0.03125 -0.609375 0.03125l-4.296875 0l0 0.703125q0 1.125 0.796875 1.796875q0.8125 0.671875 2.09375 0.671875q0.640625 0 1.125 -0.1875q0.484375 -0.1875 0.734375 -0.375q0.265625 -0.1875 0.421875 -0.1875q0.203125 0 0.359375 0.203125q0.171875 0.1875 0.171875 0.375q0 0.40625 -0.828125 0.84375q-0.8125 0.421875 -2.03125 0.421875q-1.796875 0 -2.9375 -1.0q-1.140625 -1.0 -1.140625 -2.625zm1.234375 -1.546875l3.796875 0q0.5625 0 0.75 -0.125q0.203125 -0.125 0.203125 -0.53125q0 -0.9375 -0.6875 -1.65625q-0.671875 -0.734375 -1.6875 -0.734375q-0.984375 0 -1.6875 0.6875q-0.6875 0.6875 -0.6875 1.640625l0 0.71875zm6.919586 4.5625q0 -0.125 0.078125 -0.265625l2.53125 -3.8125l-2.46875 -3.6875q-0.09375 -0.1875 -0.09375 -0.234375q0 -0.234375 0.25 -0.421875q0.265625 -0.203125 0.5 -0.203125q0.265625 0 0.390625 0.1875l2.234375 3.46875l2.265625 -3.46875q0.109375 -0.1875 0.359375 -0.1875q0.25 0 0.5 0.203125q0.265625 0.1875 0.265625 0.421875q0 0.09375 -0.09375 0.234375l-2.5 3.6875l2.546875 3.8125q0.078125 0.109375 0.078125 0.265625q0 0.203125 -0.234375 0.40625q-0.234375 0.203125 -0.5 0.203125q-0.25 0 -0.359375 -0.203125l-2.328125 -3.546875l-2.296875 3.546875q-0.125 0.203125 -0.390625 0.203125q-0.234375 0 -0.484375 -0.203125q-0.25 -0.203125 -0.25 -0.40625zm8.336548 -2.328125l0 -10.015625q0 -0.1875 0.1875 -0.3125q0.1875 -0.140625 0.421875 -0.140625q0.25 0 0.4375 0.140625q0.1875 0.125 0.1875 0.3125l0 3.828125l2.453125 0q0.1875 0 0.3125 0.15625q0.125 0.140625 0.125 0.359375q0 0.203125 -0.125 0.359375q-0.125 0.140625 -0.3125 0.140625l-2.453125 0l0 5.171875q0 0.9375 0.390625 1.3125q0.390625 0.359375 1.375 0.359375l0.53125 0q0.25 0 0.40625 0.171875q0.171875 0.15625 0.171875 0.390625q0 0.21875 -0.171875 0.390625q-0.15625 0.171875 -0.40625 0.171875l-0.53125 0q-3.0 0 -3.0 -2.796875zm9.365906 -0.359375q0 -0.21875 0.125 -0.375q0.140625 -0.171875 0.328125 -0.171875l4.8125 0q0.1875 0 0.328125 0.171875q0.140625 0.15625 0.140625 0.390625q0 0.21875 -0.140625 0.375q-0.140625 0.15625 -0.328125 0.15625l-4.8125 0q-0.203125 0 -0.328125 -0.140625q-0.125 -0.15625 -0.125 -0.40625zm0 -3.859375q0 -0.21875 0.125 -0.375q0.140625 -0.171875 0.328125 -0.171875l4.8125 0q0.1875 0 0.328125 0.171875q0.140625 0.15625 0.140625 0.390625q0 0.21875 -0.140625 0.390625q-0.140625 0.15625 -0.328125 0.15625l-4.8125 0q-0.203125 0 -0.328125 -0.15625q-0.125 -0.15625 -0.125 -0.40625zm11.578064 2.890625q0 -2.859375 1.484375 -4.671875q1.484375 -1.8125 4.484375 -1.8125q2.8125 0 4.328125 1.59375q1.53125 1.59375 1.53125 4.53125q0 1.078125 -0.203125 1.90625q-0.203125 0.828125 -0.75 1.40625q-0.53125 0.5625 -1.34375 0.5625q-0.703125 0 -1.21875 -0.359375q-0.515625 -0.359375 -0.625 -0.875q-0.5625 0.546875 -1.0625 0.8125q-0.5 0.25 -1.28125 0.25q-1.0625 0 -1.71875 -0.5q-0.65625 -0.5 -0.65625 -1.5625q0 -1.21875 0.921875 -1.6875q0.9375 -0.46875 2.796875 -0.46875l0.828125 0l0 -0.359375q0 -0.828125 -0.453125 -1.21875q-0.4375 -0.390625 -1.40625 -0.390625q-0.734375 0 -1.25 0.234375q-0.5 0.234375 -0.5625 0.234375q-0.171875 0 -0.28125 -0.171875q-0.109375 -0.1875 -0.109375 -0.359375q0 -0.375 0.75 -0.65625q0.765625 -0.28125 1.640625 -0.28125q1.25 0 1.96875 0.640625q0.71875 0.640625 0.71875 1.796875l0 3.15625q0.0625 0.421875 0.375 0.6875q0.3125 0.265625 0.703125 0.265625q1.265625 0 1.265625 -2.921875q0 -2.578125 -1.234375 -3.953125q-1.234375 -1.375 -3.703125 -1.375q-1.375 0 -2.375 0.453125q-0.984375 0.4375 -1.546875 1.234375q-0.5625 0.796875 -0.828125 1.75q-0.25 0.953125 -0.25 2.09375q0 1.0625 0.21875 1.953125q0.234375 0.890625 0.734375 1.640625q0.515625 0.75 1.390625 1.171875q0.890625 0.4375 2.078125 0.4375q1.0 0 1.828125 -0.296875q0.84375 -0.296875 0.859375 -0.296875q0.171875 0 0.28125 0.140625q0.109375 0.15625 0.109375 0.28125q0 0.40625 -1.046875 0.734375q-1.03125 0.328125 -2.15625 0.328125q-2.203125 0 -3.71875 -1.546875q-1.515625 -1.546875 -1.515625 -4.53125zm4.03125 1.28125q0 0.625 0.390625 0.9375q0.40625 0.296875 1.0625 0.296875q0.890625 0 1.46875 -0.5q0.59375 -0.5 0.59375 -1.0625l0 -1.046875l-0.78125 0q-1.359375 0 -2.046875 0.28125q-0.6875 0.265625 -0.6875 1.09375zm9.529755 2.34375l0 -13.546875q0 -0.1875 0.15625 -0.3125q0.171875 -0.140625 0.4375 -0.140625q0.28125 0 0.453125 0.140625q0.1875 0.125 0.1875 0.3125l0 6.390625q0.3125 -0.609375 0.96875 -1.015625q0.65625 -0.421875 1.53125 -0.421875q1.375 0 2.359375 1.046875q1.0 1.03125 1.0 2.5l0 5.046875q0 0.234375 -0.1875 0.375q-0.171875 0.125 -0.4375 0.125q-0.21875 0 -0.421875 -0.125q-0.1875 -0.140625 -0.1875 -0.375l0 -5.046875q0 -0.9375 -0.703125 -1.671875q-0.703125 -0.75 -1.640625 -0.75q-0.90625 0 -1.59375 0.671875q-0.6875 0.671875 -0.6875 1.75l0 5.046875q0 0.203125 -0.203125 0.359375q-0.1875 0.140625 -0.4375 0.140625q-0.234375 0 -0.421875 -0.140625q-0.171875 -0.15625 -0.171875 -0.359375zm8.9097595 -2.984375l0 -2.125q0 -1.421875 1.0625 -2.453125q1.0625 -1.03125 2.5625 -1.03125q1.4375 0 2.484375 0.984375q1.0625 0.984375 1.0625 2.46875q0 0.53125 -0.125 0.859375q-0.109375 0.3125 -0.390625 0.453125q-0.28125 0.125 -0.515625 0.171875q-0.21875 0.03125 -0.609375 0.03125l-4.296875 0l0 0.703125q0 1.125 0.796875 1.796875q0.8125 0.671875 2.09375 0.671875q0.640625 0 1.125 -0.1875q0.484375 -0.1875 0.734375 -0.375q0.265625 -0.1875 0.421875 -0.1875q0.203125 0 0.359375 0.203125q0.171875 0.1875 0.171875 0.375q0 0.40625 -0.828125 0.84375q-0.8125 0.421875 -2.03125 0.421875q-1.796875 0 -2.9375 -1.0q-1.140625 -1.0 -1.140625 -2.625zm1.234375 -1.546875l3.796875 0q0.5625 0 0.75 -0.125q0.203125 -0.125 0.203125 -0.53125q0 -0.9375 -0.6875 -1.65625q-0.671875 -0.734375 -1.6875 -0.734375q-0.984375 0 -1.6875 0.6875q-0.6875 0.6875 -0.6875 1.640625l0 0.71875zm7.013336 2.65625q0 -1.46875 1.125 -2.03125q1.140625 -0.578125 3.3125 -0.578125l0.96875 0l0 -0.453125q0 -1.046875 -0.5625 -1.8125q-0.546875 -0.765625 -1.6875 -0.765625q-0.75 0 -1.375 0.28125q-0.609375 0.265625 -0.65625 0.265625q-0.21875 0 -0.359375 -0.203125q-0.125 -0.21875 -0.125 -0.453125q0 -0.375 0.8125 -0.671875q0.8125 -0.296875 1.75 -0.296875q1.78125 0 2.609375 1.03125q0.828125 1.03125 0.828125 2.625l0 4.9375q0 0.21875 -0.171875 0.359375q-0.171875 0.140625 -0.4375 0.140625q-0.25 0 -0.421875 -0.140625q-0.15625 -0.140625 -0.15625 -0.359375l0 -0.828125q-1.265625 1.46875 -2.859375 1.46875q-1.140625 0 -1.875 -0.640625q-0.71875 -0.640625 -0.71875 -1.875zm1.25 -0.109375q0 0.796875 0.453125 1.1875q0.453125 0.390625 1.1875 0.390625q0.890625 0 1.703125 -0.65625q0.8125 -0.671875 0.8125 -1.34375l0 -1.21875l-0.796875 0q-0.765625 0 -1.296875 0.0625q-0.515625 0.046875 -1.03125 0.203125q-0.5 0.15625 -0.765625 0.5q-0.265625 0.34375 -0.265625 0.875zm7.218292 -1.0l0 -2.0625q0 -1.46875 0.984375 -2.5q1.0 -1.046875 2.40625 -1.046875q0.875 0 1.53125 0.421875q0.65625 0.40625 0.984375 1.015625l0 -6.390625q0 -0.1875 0.1875 -0.3125q0.1875 -0.140625 0.453125 -0.140625q0.265625 0 0.421875 0.140625q0.171875 0.125 0.171875 0.3125l0 13.546875q0 0.203125 -0.171875 0.359375q-0.171875 0.140625 -0.421875 0.140625q-0.21875 0 -0.40625 -0.140625q-0.171875 -0.15625 -0.171875 -0.359375l0 -0.828125q-0.328125 0.609375 -1.046875 1.046875q-0.703125 0.421875 -1.5625 0.421875q-1.34375 0 -2.359375 -1.09375q-1.0 -1.09375 -1.0 -2.53125zm1.234375 0q0 0.953125 0.703125 1.71875q0.703125 0.765625 1.65625 0.765625q0.90625 0 1.609375 -0.6875q0.703125 -0.6875 0.703125 -1.203125l0 -2.65625q0 -1.078125 -0.703125 -1.75q-0.6875 -0.671875 -1.59375 -0.671875q-0.96875 0 -1.671875 0.75q-0.703125 0.734375 -0.703125 1.671875l0 2.0625z" fill-rule="nonzero"></path><path fill="#000000" d="m133.3691 689.942q0 -2.859375 1.484375 -4.671875q1.484375 -1.8125 4.484375 -1.8125q2.8125 0 4.328125 1.59375q1.53125 1.59375 1.53125 4.53125q0 1.078125 -0.203125 1.90625q-0.203125 0.828125 -0.75 1.40625q-0.53125 0.5625 -1.34375 0.5625q-0.703125 0 -1.21875 -0.359375q-0.515625 -0.359375 -0.625 -0.875q-0.5625 0.546875 -1.0625 0.8125q-0.5 0.25 -1.28125 0.25q-1.0625 0 -1.71875 -0.5q-0.65625 -0.5 -0.65625 -1.5625q0 -1.21875 0.921875 -1.6875q0.9375 -0.46875 2.796875 -0.46875l0.828125 0l0 -0.359375q0 -0.828125 -0.453125 -1.21875q-0.4375 -0.390625 -1.40625 -0.390625q-0.734375 0 -1.25 0.234375q-0.5 0.234375 -0.5625 0.234375q-0.171875 0 -0.28125 -0.171875q-0.109375 -0.1875 -0.109375 -0.359375q0 -0.375 0.75 -0.65625q0.765625 -0.28125 1.640625 -0.28125q1.25 0 1.96875 0.640625q0.71875 0.640625 0.71875 1.796875l0 3.15625q0.0625 0.421875 0.375 0.6875q0.3125 0.265625 0.703125 0.265625q1.265625 0 1.265625 -2.921875q0 -2.578125 -1.234375 -3.953125q-1.234375 -1.375 -3.703125 -1.375q-1.375 0 -2.375 0.453125q-0.984375 0.4375 -1.546875 1.234375q-0.5625 0.796875 -0.828125 1.75q-0.25 0.953125 -0.25 2.09375q0 1.0625 0.21875 1.953125q0.234375 0.890625 0.734375 1.640625q0.515625 0.75 1.390625 1.171875q0.890625 0.4375 2.078125 0.4375q1.0 0 1.828125 -0.296875q0.84375 -0.296875 0.859375 -0.296875q0.171875 0 0.28125 0.140625q0.109375 0.15625 0.109375 0.28125q0 0.40625 -1.046875 0.734375q-1.03125 0.328125 -2.15625 0.328125q-2.203125 0 -3.71875 -1.546875q-1.515625 -1.546875 -1.515625 -4.53125zm4.03125 1.28125q0 0.625 0.390625 0.9375q0.40625 0.296875 1.0625 0.296875q0.890625 0 1.46875 -0.5q0.59375 -0.5 0.59375 -1.0625l0 -1.046875l-0.78125 0q-1.359375 0 -2.046875 0.28125q-0.6875 0.265625 -0.6875 1.09375zm9.529755 2.34375l0 -13.546875q0 -0.1875 0.15625 -0.3125q0.171875 -0.140625 0.4375 -0.140625q0.28125 0 0.453125 0.140625q0.1875 0.125 0.1875 0.3125l0 6.390625q0.3125 -0.609375 0.96875 -1.015625q0.65625 -0.421875 1.53125 -0.421875q1.375 0 2.359375 1.046875q1.0 1.03125 1.0 2.5l0 5.046875q0 0.234375 -0.1875 0.375q-0.171875 0.125 -0.4375 0.125q-0.21875 0 -0.421875 -0.125q-0.1875 -0.140625 -0.1875 -0.375l0 -5.046875q0 -0.9375 -0.703125 -1.671875q-0.703125 -0.75 -1.640625 -0.75q-0.90625 0 -1.59375 0.671875q-0.6875 0.671875 -0.6875 1.75l0 5.046875q0 0.203125 -0.203125 0.359375q-0.1875 0.140625 -0.4375 0.140625q-0.234375 0 -0.421875 -0.140625q-0.171875 -0.15625 -0.171875 -0.359375zm8.9097595 -2.984375l0 -2.125q0 -1.421875 1.0625 -2.453125q1.0625 -1.03125 2.5625 -1.03125q1.4375 0 2.484375 0.984375q1.0625 0.984375 1.0625 2.46875q0 0.53125 -0.125 0.859375q-0.109375 0.3125 -0.390625 0.453125q-0.28125 0.125 -0.515625 0.171875q-0.21875 0.03125 -0.609375 0.03125l-4.296875 0l0 0.703125q0 1.125 0.796875 1.796875q0.8125 0.671875 2.09375 0.671875q0.640625 0 1.125 -0.1875q0.484375 -0.1875 0.734375 -0.375q0.265625 -0.1875 0.421875 -0.1875q0.203125 0 0.359375 0.203125q0.171875 0.1875 0.171875 0.375q0 0.40625 -0.828125 0.84375q-0.8125 0.421875 -2.03125 0.421875q-1.796875 0 -2.9375 -1.0q-1.140625 -1.0 -1.140625 -2.625zm1.234375 -1.546875l3.796875 0q0.5625 0 0.75 -0.125q0.203125 -0.125 0.203125 -0.53125q0 -0.9375 -0.6875 -1.65625q-0.671875 -0.734375 -1.6875 -0.734375q-0.984375 0 -1.6875 0.6875q-0.6875 0.6875 -0.6875 1.640625l0 0.71875zm7.013321 2.65625q0 -1.46875 1.125 -2.03125q1.140625 -0.578125 3.3125 -0.578125l0.96875 0l0 -0.453125q0 -1.046875 -0.5625 -1.8125q-0.546875 -0.765625 -1.6875 -0.765625q-0.75 0 -1.375 0.28125q-0.609375 0.265625 -0.65625 0.265625q-0.21875 0 -0.359375 -0.203125q-0.125 -0.21875 -0.125 -0.453125q0 -0.375 0.8125 -0.671875q0.8125 -0.296875 1.75 -0.296875q1.78125 0 2.609375 1.03125q0.828125 1.03125 0.828125 2.625l0 4.9375q0 0.21875 -0.171875 0.359375q-0.171875 0.140625 -0.4375 0.140625q-0.25 0 -0.421875 -0.140625q-0.15625 -0.140625 -0.15625 -0.359375l0 -0.828125q-1.265625 1.46875 -2.859375 1.46875q-1.140625 0 -1.875 -0.640625q-0.71875 -0.640625 -0.71875 -1.875zm1.25 -0.109375q0 0.796875 0.453125 1.1875q0.453125 0.390625 1.1875 0.390625q0.890625 0 1.703125 -0.65625q0.8125 -0.671875 0.8125 -1.34375l0 -1.21875l-0.796875 0q-0.765625 0 -1.296875 0.0625q-0.515625 0.046875 -1.03125 0.203125q-0.5 0.15625 -0.765625 0.5q-0.265625 0.34375 -0.265625 0.875zm7.2183075 -1.0l0 -2.0625q0 -1.46875 0.984375 -2.5q1.0 -1.046875 2.40625 -1.046875q0.875 0 1.53125 0.421875q0.65625 0.40625 0.984375 1.015625l0 -6.390625q0 -0.1875 0.1875 -0.3125q0.1875 -0.140625 0.453125 -0.140625q0.265625 0 0.421875 0.140625q0.171875 0.125 0.171875 0.3125l0 13.546875q0 0.203125 -0.171875 0.359375q-0.171875 0.140625 -0.421875 0.140625q-0.21875 0 -0.40625 -0.140625q-0.171875 -0.15625 -0.171875 -0.359375l0 -0.828125q-0.328125 0.609375 -1.046875 1.046875q-0.703125 0.421875 -1.5625 0.421875q-1.34375 0 -2.359375 -1.09375q-1.0 -1.09375 -1.0 -2.53125zm1.234375 0q0 0.953125 0.703125 1.71875q0.703125 0.765625 1.65625 0.765625q0.90625 0 1.609375 -0.6875q0.703125 -0.6875 0.703125 -1.203125l0 -2.65625q0 -1.078125 -0.703125 -1.75q-0.6875 -0.671875 -1.59375 -0.671875q-0.96875 0 -1.671875 0.75q-0.703125 0.734375 -0.703125 1.671875l0 2.0625zm11.9171295 0.328125q0 -0.21875 0.125 -0.375q0.140625 -0.171875 0.328125 -0.171875l4.8125 0q0.1875 0 0.328125 0.171875q0.140625 0.15625 0.140625 0.390625q0 0.21875 -0.140625 0.375q-0.140625 0.15625 -0.328125 0.15625l-4.8125 0q-0.203125 0 -0.328125 -0.140625q-0.125 -0.15625 -0.125 -0.40625zm0 -3.859375q0 -0.21875 0.125 -0.375q0.140625 -0.171875 0.328125 -0.171875l4.8125 0q0.1875 0 0.328125 0.171875q0.140625 0.15625 0.140625 0.390625q0 0.21875 -0.140625 0.390625q-0.140625 0.15625 -0.328125 0.15625l-4.8125 0q-0.203125 0 -0.328125 -0.15625q-0.125 -0.15625 -0.125 -0.40625zm11.781189 6.515625l0 -8.03125q0 -0.203125 0.15625 -0.328125q0.171875 -0.125 0.453125 -0.125q0.21875 0 0.390625 0.140625q0.171875 0.125 0.171875 0.3125l0 0.875q0.328125 -0.609375 0.984375 -1.015625q0.671875 -0.421875 1.5625 -0.421875q1.359375 0 2.359375 1.046875q1.015625 1.03125 1.015625 2.5l0 5.046875q0 0.234375 -0.1875 0.375q-0.1875 0.125 -0.4375 0.125q-0.21875 0 -0.421875 -0.125q-0.1875 -0.140625 -0.1875 -0.375l0 -5.046875q0 -0.9375 -0.703125 -1.671875q-0.703125 -0.75 -1.671875 -0.75q-0.890625 0 -1.578125 0.671875q-0.671875 0.671875 -0.671875 1.75l0 5.046875q0 0.203125 -0.203125 0.359375q-0.1875 0.140625 -0.421875 0.140625q-0.28125 0 -0.453125 -0.140625q-0.15625 -0.15625 -0.15625 -0.359375zm8.9097595 -2.984375l0 -2.125q0 -1.421875 1.0625 -2.453125q1.0625 -1.03125 2.5625 -1.03125q1.4375 0 2.484375 0.984375q1.0625 0.984375 1.0625 2.46875q0 0.53125 -0.125 0.859375q-0.109375 0.3125 -0.390625 0.453125q-0.28125 0.125 -0.515625 0.171875q-0.21875 0.03125 -0.609375 0.03125l-4.296875 0l0 0.703125q0 1.125 0.796875 1.796875q0.8125 0.671875 2.09375 0.671875q0.640625 0 1.125 -0.1875q0.484375 -0.1875 0.734375 -0.375q0.265625 -0.1875 0.421875 -0.1875q0.203125 0 0.359375 0.203125q0.171875 0.1875 0.171875 0.375q0 0.40625 -0.828125 0.84375q-0.8125 0.421875 -2.03125 0.421875q-1.796875 0 -2.9375 -1.0q-1.140625 -1.0 -1.140625 -2.625zm1.234375 -1.546875l3.796875 0q0.5625 0 0.75 -0.125q0.203125 -0.125 0.203125 -0.53125q0 -0.9375 -0.6875 -1.65625q-0.671875 -0.734375 -1.6875 -0.734375q-0.984375 0 -1.6875 0.6875q-0.6875 0.6875 -0.6875 1.640625l0 0.71875zm6.732071 -3.4375q0 -0.234375 0.234375 -0.390625q0.25 -0.171875 0.515625 -0.171875q0.34375 0 0.4375 0.296875l2.421875 6.765625l1.96875 -6.1875q0.09375 -0.3125 0.484375 -0.3125q0.40625 0 0.5 0.3125l1.875 6.25l2.484375 -6.828125q0.0625 -0.296875 0.421875 -0.296875q0.265625 0 0.5 0.15625q0.25 0.15625 0.25 0.40625q0 0.171875 -0.078125 0.28125l-2.96875 8.03125q-0.09375 0.3125 -0.5 0.3125q-0.359375 0 -0.5 -0.296875l-1.984375 -6.171875l-1.953125 6.078125q-0.109375 0.390625 -0.546875 0.390625q-0.40625 0 -0.515625 -0.390625l-2.96875 -7.953125q-0.078125 -0.15625 -0.078125 -0.28125z" fill-rule="nonzero"></path><path fill="#000000" fill-opacity="0.0" d="m78.07087 560.4486l0 0c0 -4.9054565 3.9766312 -8.88208 8.882065 -8.88208l175.52719 0c2.3556824 0 4.614868 0.935791 6.2805786 2.6015015c1.6657104 1.6657104 2.6015015 3.9249268 2.6015015 6.2805786l0 35.52722c0 4.9053955 -3.976654 8.882019 -8.88208 8.882019l-175.52719 0c-4.9054337 0 -8.882065 -3.9766235 -8.882065 -8.882019z" fill-rule="nonzero"></path><path stroke="#000000" stroke-width="2.0" stroke-linejoin="round" stroke-linecap="butt" d="m78.07087 560.4486l0 0c0 -4.9054565 3.9766312 -8.88208 8.882065 -8.88208l175.52719 0c2.3556824 0 4.614868 0.935791 6.2805786 2.6015015c1.6657104 1.6657104 2.6015015 3.9249268 2.6015015 6.2805786l0 35.52722c0 4.9053955 -3.976654 8.882019 -8.88208 8.882019l-175.52719 0c-4.9054337 0 -8.882065 -3.9766235 -8.882065 -8.882019z" fill-rule="nonzero"></path><path fill="#000000" d="m151.53802 581.0072q0 -2.859375 1.484375 -4.671875q1.484375 -1.8125 4.484375 -1.8125q2.8125 0 4.328125 1.59375q1.53125 1.59375 1.53125 4.53125q0 1.078125 -0.203125 1.90625q-0.203125 0.828125 -0.75 1.40625q-0.53125 0.5625 -1.34375 0.5625q-0.703125 0 -1.21875 -0.359375q-0.515625 -0.359375 -0.625 -0.875q-0.5625 0.546875 -1.0625 0.8125q-0.5 0.25 -1.28125 0.25q-1.0625 0 -1.71875 -0.5q-0.65625 -0.5 -0.65625 -1.5625q0 -1.21875 0.921875 -1.6875q0.9375 -0.46875 2.796875 -0.46875l0.828125 0l0 -0.359375q0 -0.828125 -0.453125 -1.21875q-0.4375 -0.390625 -1.40625 -0.390625q-0.734375 0 -1.25 0.234375q-0.5 0.234375 -0.5625 0.234375q-0.171875 0 -0.28125 -0.171875q-0.109375 -0.1875 -0.109375 -0.359375q0 -0.375 0.75 -0.65625q0.765625 -0.28125 1.640625 -0.28125q1.25 0 1.96875 0.640625q0.71875 0.640625 0.71875 1.796875l0 3.15625q0.0625 0.421875 0.375 0.6875q0.3125 0.265625 0.703125 0.265625q1.265625 0 1.265625 -2.921875q0 -2.578125 -1.234375 -3.953125q-1.234375 -1.375 -3.703125 -1.375q-1.375 0 -2.375 0.453125q-0.984375 0.4375 -1.546875 1.234375q-0.5625 0.796875 -0.828125 1.75q-0.25 0.953125 -0.25 2.09375q0 1.0625 0.21875 1.953125q0.234375 0.890625 0.734375 1.640625q0.515625 0.75 1.390625 1.171875q0.890625 0.4375 2.078125 0.4375q1.0 0 1.828125 -0.296875q0.84375 -0.296875 0.859375 -0.296875q0.171875 0 0.28125 0.140625q0.109375 0.15625 0.109375 0.28125q0 0.40625 -1.046875 0.734375q-1.03125 0.328125 -2.15625 0.328125q-2.203125 0 -3.71875 -1.546875q-1.515625 -1.546875 -1.515625 -4.53125zm4.03125 1.28125q0 0.625 0.390625 0.9375q0.40625 0.296875 1.0625 0.296875q0.890625 0 1.46875 -0.5q0.59375 -0.5 0.59375 -1.0625l0 -1.046875l-0.78125 0q-1.359375 0 -2.046875 0.28125q-0.6875 0.265625 -0.6875 1.09375zm9.529755 2.34375l0 -13.546875q0 -0.1875 0.15625 -0.3125q0.171875 -0.140625 0.4375 -0.140625q0.28125 0 0.453125 0.140625q0.1875 0.125 0.1875 0.3125l0 6.390625q0.3125 -0.609375 0.96875 -1.015625q0.65625 -0.421875 1.53125 -0.421875q1.375 0 2.359375 1.046875q1.0 1.03125 1.0 2.5l0 5.046875q0 0.234375 -0.1875 0.375q-0.171875 0.125 -0.4375 0.125q-0.21875 0 -0.421875 -0.125q-0.1875 -0.140625 -0.1875 -0.375l0 -5.046875q0 -0.9375 -0.703125 -1.671875q-0.703125 -0.75 -1.640625 -0.75q-0.90625 0 -1.59375 0.671875q-0.6875 0.671875 -0.6875 1.75l0 5.046875q0 0.203125 -0.203125 0.359375q-0.1875 0.140625 -0.4375 0.140625q-0.234375 0 -0.421875 -0.140625q-0.171875 -0.15625 -0.171875 -0.359375zm8.9097595 -2.984375l0 -2.125q0 -1.421875 1.0625 -2.453125q1.0625 -1.03125 2.5625 -1.03125q1.4375 0 2.484375 0.984375q1.0625 0.984375 1.0625 2.46875q0 0.53125 -0.125 0.859375q-0.109375 0.3125 -0.390625 0.453125q-0.28125 0.125 -0.515625 0.171875q-0.21875 0.03125 -0.609375 0.03125l-4.296875 0l0 0.703125q0 1.125 0.796875 1.796875q0.8125 0.671875 2.09375 0.671875q0.640625 0 1.125 -0.1875q0.484375 -0.1875 0.734375 -0.375q0.265625 -0.1875 0.421875 -0.1875q0.203125 0 0.359375 0.203125q0.171875 0.1875 0.171875 0.375q0 0.40625 -0.828125 0.84375q-0.8125 0.421875 -2.03125 0.421875q-1.796875 0 -2.9375 -1.0q-1.140625 -1.0 -1.140625 -2.625zm1.234375 -1.546875l3.796875 0q0.5625 0 0.75 -0.125q0.203125 -0.125 0.203125 -0.53125q0 -0.9375 -0.6875 -1.65625q-0.671875 -0.734375 -1.6875 -0.734375q-0.984375 0 -1.6875 0.6875q-0.6875 0.6875 -0.6875 1.640625l0 0.71875zm7.013321 2.65625q0 -1.46875 1.125 -2.03125q1.140625 -0.578125 3.3125 -0.578125l0.96875 0l0 -0.453125q0 -1.046875 -0.5625 -1.8125q-0.546875 -0.765625 -1.6875 -0.765625q-0.75 0 -1.375 0.28125q-0.609375 0.265625 -0.65625 0.265625q-0.21875 0 -0.359375 -0.203125q-0.125 -0.21875 -0.125 -0.453125q0 -0.375 0.8125 -0.671875q0.8125 -0.296875 1.75 -0.296875q1.78125 0 2.609375 1.03125q0.828125 1.03125 0.828125 2.625l0 4.9375q0 0.21875 -0.171875 0.359375q-0.171875 0.140625 -0.4375 0.140625q-0.25 0 -0.421875 -0.140625q-0.15625 -0.140625 -0.15625 -0.359375l0 -0.828125q-1.265625 1.46875 -2.859375 1.46875q-1.140625 0 -1.875 -0.640625q-0.71875 -0.640625 -0.71875 -1.875zm1.25 -0.109375q0 0.796875 0.453125 1.1875q0.453125 0.390625 1.1875 0.390625q0.890625 0 1.703125 -0.65625q0.8125 -0.671875 0.8125 -1.34375l0 -1.21875l-0.796875 0q-0.765625 0 -1.296875 0.0625q-0.515625 0.046875 -1.03125 0.203125q-0.5 0.15625 -0.765625 0.5q-0.265625 0.34375 -0.265625 0.875zm7.2183075 -1.0l0 -2.0625q0 -1.46875 0.984375 -2.5q1.0 -1.046875 2.40625 -1.046875q0.875 0 1.53125 0.421875q0.65625 0.40625 0.984375 1.015625l0 -6.390625q0 -0.1875 0.1875 -0.3125q0.1875 -0.140625 0.453125 -0.140625q0.265625 0 0.421875 0.140625q0.171875 0.125 0.171875 0.3125l0 13.546875q0 0.203125 -0.171875 0.359375q-0.171875 0.140625 -0.421875 0.140625q-0.21875 0 -0.40625 -0.140625q-0.171875 -0.15625 -0.171875 -0.359375l0 -0.828125q-0.328125 0.609375 -1.046875 1.046875q-0.703125 0.421875 -1.5625 0.421875q-1.34375 0 -2.359375 -1.09375q-1.0 -1.09375 -1.0 -2.53125zm1.234375 0q0 0.953125 0.703125 1.71875q0.703125 0.765625 1.65625 0.765625q0.90625 0 1.609375 -0.6875q0.703125 -0.6875 0.703125 -1.203125l0 -2.65625q0 -1.078125 -0.703125 -1.75q-0.6875 -0.671875 -1.59375 -0.671875q-0.96875 0 -1.671875 0.75q-0.703125 0.734375 -0.703125 1.671875l0 2.0625z" fill-rule="nonzero"></path><path fill="#000000" fill-opacity="0.0" d="m412.79788 560.4486l0 0c0 -4.9054565 3.976654 -8.88208 8.88208 -8.88208l175.52719 0c2.3556519 0 4.614868 0.935791 6.2805786 2.6015015c1.6657104 1.6657104 2.6015015 3.9249268 2.6015015 6.2805786l0 35.52722c0 4.9053955 -3.9766235 8.882019 -8.88208 8.882019l-175.52719 0c-4.905426 0 -8.88208 -3.9766235 -8.88208 -8.882019z" fill-rule="nonzero"></path><path stroke="#000000" stroke-width="2.0" stroke-linejoin="round" stroke-linecap="butt" d="m412.79788 560.4486l0 0c0 -4.9054565 3.976654 -8.88208 8.88208 -8.88208l175.52719 0c2.3556519 0 4.614868 0.935791 6.2805786 2.6015015c1.6657104 1.6657104 2.6015015 3.9249268 2.6015015 6.2805786l0 35.52722c0 4.9053955 -3.9766235 8.882019 -8.88208 8.882019l-175.52719 0c-4.905426 0 -8.88208 -3.9766235 -8.88208 -8.882019z" fill-rule="nonzero"></path><path fill="#000000" fill-opacity="0.0" d="m747.5249 560.4486l0 0c0 -4.9054565 3.9766235 -8.88208 8.88208 -8.88208l175.52722 0c2.3556519 0 4.614868 0.935791 6.2805786 2.6015015c1.6657104 1.6657104 2.6015015 3.9249268 2.6015015 6.2805786l0 35.52722c0 4.9053955 -3.9766846 8.882019 -8.88208 8.882019l-175.52722 0c-4.9054565 0 -8.88208 -3.9766235 -8.88208 -8.882019z" fill-rule="nonzero"></path><path stroke="#000000" stroke-width="2.0" stroke-linejoin="round" stroke-linecap="butt" d="m747.5249 560.4486l0 0c0 -4.9054565 3.9766235 -8.88208 8.88208 -8.88208l175.52722 0c2.3556519 0 4.614868 0.935791 6.2805786 2.6015015c1.6657104 1.6657104 2.6015015 3.9249268 2.6015015 6.2805786l0 35.52722c0 4.9053955 -3.9766846 8.882019 -8.88208 8.882019l-175.52722 0c-4.9054565 0 -8.88208 -3.9766235 -8.88208 -8.882019z" fill-rule="nonzero"></path><path fill="#000000" fill-opacity="0.0" d="m271.3622 578.2122l141.43567 0" fill-rule="nonzero"></path><path stroke="#000000" stroke-width="2.0" stroke-linejoin="round" stroke-linecap="butt" d="m271.3622 578.21216l129.4357 0" fill-rule="evenodd"></path><path fill="#000000" stroke="#000000" stroke-width="2.0" stroke-linecap="butt" d="m400.7979 581.5156l9.076172 -3.3034668l-9.076172 -3.3034058z" fill-rule="evenodd"></path><path fill="#000000" fill-opacity="0.0" d="m78.070854 426.37134l0 0c0 -4.905426 3.9766388 -8.88205 8.882072 -8.88205l175.5272 0c2.3556519 0 4.614868 0.9357605 6.2805786 2.601471c1.6657104 1.6657104 2.601471 3.9249268 2.601471 6.2805786l0 35.52722c0 4.905426 -3.9766235 8.88205 -8.88205 8.88205l-175.5272 0c-4.9054337 0 -8.882072 -3.9766235 -8.882072 -8.88205z" fill-rule="nonzero"></path><path stroke="#000000" stroke-width="2.0" stroke-linejoin="round" stroke-linecap="butt" d="m78.070854 426.37134l0 0c0 -4.905426 3.9766388 -8.88205 8.882072 -8.88205l175.5272 0c2.3556519 0 4.614868 0.9357605 6.2805786 2.601471c1.6657104 1.6657104 2.601471 3.9249268 2.601471 6.2805786l0 35.52722c0 4.905426 -3.9766235 8.88205 -8.88205 8.88205l-175.5272 0c-4.9054337 0 -8.882072 -3.9766235 -8.882072 -8.88205z" fill-rule="nonzero"></path><path fill="#000000" d="m160.79875 450.55493l0 -8.03125q0 -0.203125 0.15625 -0.328125q0.171875 -0.125 0.453125 -0.125q0.21875 0 0.390625 0.140625q0.171875 0.125 0.171875 0.3125l0 0.875q0.328125 -0.609375 0.984375 -1.015625q0.671875 -0.421875 1.5625 -0.421875q1.359375 0 2.359375 1.046875q1.015625 1.03125 1.015625 2.5l0 5.046875q0 0.234375 -0.1875 0.375q-0.1875 0.125 -0.4375 0.125q-0.21875 0 -0.421875 -0.125q-0.1875 -0.140625 -0.1875 -0.375l0 -5.046875q0 -0.9375 -0.703125 -1.671875q-0.703125 -0.75 -1.671875 -0.75q-0.890625 0 -1.578125 0.671875q-0.671875 0.671875 -0.671875 1.75l0 5.046875q0 0.203125 -0.203125 0.359375q-0.1875 0.140625 -0.421875 0.140625q-0.28125 0 -0.453125 -0.140625q-0.15625 -0.15625 -0.15625 -0.359375zm8.9097595 -2.984375l0 -2.125q0 -1.421875 1.0625 -2.453125q1.0625 -1.03125 2.5625 -1.03125q1.4375 0 2.484375 0.984375q1.0625 0.984375 1.0625 2.46875q0 0.53125 -0.125 0.859375q-0.109375 0.3125 -0.390625 0.453125q-0.28125 0.125 -0.515625 0.171875q-0.21875 0.03125 -0.609375 0.03125l-4.296875 0l0 0.703125q0 1.125 0.796875 1.796875q0.8125 0.671875 2.09375 0.671875q0.640625 0 1.125 -0.1875q0.484375 -0.1875 0.734375 -0.375q0.265625 -0.1875 0.421875 -0.1875q0.203125 0 0.359375 0.203125q0.171875 0.1875 0.171875 0.375q0 0.40625 -0.828125 0.84375q-0.8125 0.421875 -2.03125 0.421875q-1.796875 0 -2.9375 -1.0q-1.140625 -1.0 -1.140625 -2.625zm1.234375 -1.546875l3.796875 0q0.5625 0 0.75 -0.125q0.203125 -0.125 0.203125 -0.53125q0 -0.9375 -0.6875 -1.65625q-0.671875 -0.734375 -1.6875 -0.734375q-0.984375 0 -1.6875 0.6875q-0.6875 0.6875 -0.6875 1.640625l0 0.71875zm6.732071 -3.4375q0 -0.234375 0.234375 -0.390625q0.25 -0.171875 0.515625 -0.171875q0.34375 0 0.4375 0.296875l2.421875 6.765625l1.96875 -6.1875q0.09375 -0.3125 0.484375 -0.3125q0.40625 0 0.5 0.3125l1.875 6.25l2.484375 -6.828125q0.0625 -0.296875 0.421875 -0.296875q0.265625 0 0.5 0.15625q0.25 0.15625 0.25 0.40625q0 0.171875 -0.078125 0.28125l-2.96875 8.03125q-0.09375 0.3125 -0.5 0.3125q-0.359375 0 -0.5 -0.296875l-1.984375 -6.171875l-1.953125 6.078125q-0.109375 0.390625 -0.546875 0.390625q-0.40625 0 -0.515625 -0.390625l-2.96875 -7.953125q-0.078125 -0.15625 -0.078125 -0.28125z" fill-rule="nonzero"></path><path fill="#000000" fill-opacity="0.0" d="m606.08923 578.2122l141.43567 0" fill-rule="nonzero"></path><path stroke="#000000" stroke-width="2.0" stroke-linejoin="round" stroke-linecap="butt" d="m606.08923 578.21216l129.43573 0" fill-rule="evenodd"></path><path fill="#000000" stroke="#000000" stroke-width="2.0" stroke-linecap="butt" d="m735.52496 581.5156l9.076172 -3.3034668l-9.076172 -3.3034058z" fill-rule="evenodd"></path><path fill="#000000" fill-opacity="0.0" d="m174.71652 470.7806l1.5258789E-5 80.78592" fill-rule="nonzero"></path><path stroke="#000000" stroke-width="2.0" stroke-linejoin="round" stroke-linecap="butt" d="m174.71654 470.78058l0 68.78595" fill-rule="evenodd"></path><path fill="#000000" stroke="#000000" stroke-width="2.0" stroke-linecap="butt" d="m171.41307 539.5665l3.3034668 9.076172l3.3034668 -9.076172z" fill-rule="evenodd"></path></g></svg>

