<?xml version="1.0" standalone="yes"?>

<svg version="1.1" viewBox="0.0 0.0 760.0 435.0" fill="none" stroke="none" stroke-linecap="square" stroke-miterlimit="10" xmlns="http://www.w3.org/2000/svg" xmlns:xlink="http://www.w3.org/1999/xlink"><clipPath id="p.0"><path d="m0 0l760.0 0l0 435.0l-760.0 0l0 -435.0z" clip-rule="nonzero"></path></clipPath><g clip-path="url(#p.0)"><path fill="#000000" fill-opacity="0.0" d="m0 0l760.0 0l0 435.15222l-760.0 0z" fill-rule="nonzero"></path><path fill="#000000" fill-opacity="0.0" d="m19.482939 81.24533l0 0c0 -34.532257 27.993929 -62.526184 62.526184 -62.526184l285.87677 0c16.582977 0 32.486755 6.5875626 44.212677 18.313498c11.725952 11.725933 18.313507 27.629711 18.313507 44.21269l0 250.09723c0 34.532257 -27.993927 62.526184 -62.526184 62.526184l-285.87677 0c-34.532257 0 -62.526184 -27.993927 -62.526184 -62.526184z" fill-rule="nonzero"></path><path stroke="#000000" stroke-width="1.0" stroke-linejoin="round" stroke-linecap="butt" stroke-dasharray="1.0,3.0" d="m19.482939 81.24533l0 0c0 -34.532257 27.993929 -62.526184 62.526184 -62.526184l285.87677 0c16.582977 0 32.486755 6.5875626 44.212677 18.313498c11.725952 11.725933 18.313507 27.629711 18.313507 44.21269l0 250.09723c0 34.532257 -27.993927 62.526184 -62.526184 62.526184l-285.87677 0c-34.532257 0 -62.526184 -27.993927 -62.526184 -62.526184z" fill-rule="nonzero"></path><path fill="#000000" d="m161.98242 267.71393l0 -8.03125q0 -0.203125 0.15625 -0.328125q0.171875 -0.125 0.453125 -0.125q0.21875 0 0.390625 0.140625q0.171875 0.125 0.171875 0.3125l0 0.875q0.328125 -0.609375 0.984375 -1.015625q0.671875 -0.421875 1.5625 -0.421875q1.359375 0 2.359375 1.046875q1.015625 1.03125 1.015625 2.5l0 5.046875q0 0.234375 -0.1875 0.375q-0.1875 0.125 -0.4375 0.125q-0.21875 0 -0.421875 -0.125q-0.1875 -0.140625 -0.1875 -0.375l0 -5.046875q0 -0.9375 -0.703125 -1.671875q-0.703125 -0.75 -1.671875 -0.75q-0.890625 0 -1.578125 0.671875q-0.671875 0.671875 -0.671875 1.75l0 5.046875q0 0.203125 -0.203125 0.359375q-0.1875 0.140625 -0.421875 0.140625q-0.28125 0 -0.453125 -0.140625q-0.15625 -0.15625 -0.15625 -0.359375zm8.9097595 -2.984375l0 -2.125q0 -1.421875 1.0625 -2.453125q1.0625 -1.03125 2.5625 -1.03125q1.4375 0 2.484375 0.984375q1.0625 0.984375 1.0625 2.46875q0 0.53125 -0.125 0.859375q-0.109375 0.3125 -0.390625 0.453125q-0.28125 0.125 -0.515625 0.171875q-0.21875 0.03125 -0.609375 0.03125l-4.296875 0l0 0.703125q0 1.125 0.796875 1.796875q0.8125 0.671875 2.09375 0.671875q0.640625 0 1.125 -0.1875q0.484375 -0.1875 0.734375 -0.375q0.265625 -0.1875 0.421875 -0.1875q0.203125 0 0.359375 0.203125q0.171875 0.1875 0.171875 0.375q0 0.40625 -0.828125 0.84375q-0.8125 0.421875 -2.03125 0.421875q-1.796875 0 -2.9375 -1.0q-1.140625 -1.0 -1.140625 -2.625zm1.234375 -1.546875l3.796875 0q0.5625 0 0.75 -0.125q0.203125 -0.125 0.203125 -0.53125q0 -0.9375 -0.6875 -1.65625q-0.671875 -0.734375 -1.6875 -0.734375q-0.984375 0 -1.6875 0.6875q-0.6875 0.6875 -0.6875 1.640625l0 0.71875zm6.732086 -3.4375q0 -0.234375 0.234375 -0.390625q0.25 -0.171875 0.515625 -0.171875q0.34375 0 0.4375 0.296875l2.421875 6.765625l1.96875 -6.1875q0.09375 -0.3125 0.484375 -0.3125q0.40625 0 0.5 0.3125l1.875 6.25l2.484375 -6.828125q0.0625 -0.296875 0.421875 -0.296875q0.265625 0 0.5 0.15625q0.25 0.15625 0.25 0.40625q0 0.171875 -0.078125 0.28125l-2.96875 8.03125q-0.09375 0.3125 -0.5 0.3125q-0.359375 0 -0.5 -0.296875l-1.984375 -6.171875l-1.953125 6.078125q-0.109375 0.390625 -0.546875 0.390625q-0.40625 0 -0.515625 -0.390625l-2.96875 -7.953125q-0.078125 -0.15625 -0.078125 -0.28125zm12.928101 7.703125q0 -0.375 0.234375 -0.625q0.25 -0.265625 0.640625 -0.265625q0.328125 0 0.578125 0.265625q0.265625 0.265625 0.265625 0.625q0 0.34375 -0.265625 0.609375q-0.25 0.265625 -0.578125 0.265625q-0.390625 0 -0.640625 -0.25q-0.234375 -0.265625 -0.234375 -0.625zm3.627716 0.265625l0 -8.03125q0 -0.203125 0.15625 -0.328125q0.171875 -0.125 0.453125 -0.125q0.21875 0 0.390625 0.140625q0.171875 0.125 0.171875 0.3125l0 0.875q0.328125 -0.609375 0.984375 -1.015625q0.671875 -0.421875 1.5625 -0.421875q1.359375 0 2.359375 1.046875q1.015625 1.03125 1.015625 2.5l0 5.046875q0 0.234375 -0.1875 0.375q-0.1875 0.125 -0.4375 0.125q-0.21875 0 -0.421875 -0.125q-0.1875 -0.140625 -0.1875 -0.375l0 -5.046875q0 -0.9375 -0.703125 -1.671875q-0.703125 -0.75 -1.671875 -0.75q-0.890625 0 -1.578125 0.671875q-0.671875 0.671875 -0.671875 1.75l0 5.046875q0 0.203125 -0.203125 0.359375q-0.1875 0.140625 -0.421875 0.140625q-0.28125 0 -0.453125 -0.140625q-0.15625 -0.15625 -0.15625 -0.359375zm8.9097595 -2.984375l0 -2.125q0 -1.421875 1.0625 -2.453125q1.0625 -1.03125 2.5625 -1.03125q1.4375 0 2.484375 0.984375q1.0625 0.984375 1.0625 2.46875q0 0.53125 -0.125 0.859375q-0.109375 0.3125 -0.390625 0.453125q-0.28125 0.125 -0.515625 0.171875q-0.21875 0.03125 -0.609375 0.03125l-4.296875 0l0 0.703125q0 1.125 0.796875 1.796875q0.8125 0.671875 2.09375 0.671875q0.640625 0 1.125 -0.1875q0.484375 -0.1875 0.734375 -0.375q0.265625 -0.1875 0.421875 -0.1875q0.203125 0 0.359375 0.203125q0.171875 0.1875 0.171875 0.375q0 0.40625 -0.828125 0.84375q-0.8125 0.421875 -2.03125 0.421875q-1.796875 0 -2.9375 -1.0q-1.140625 -1.0 -1.140625 -2.625zm1.234375 -1.546875l3.796875 0q0.5625 0 0.75 -0.125q0.203125 -0.125 0.203125 -0.53125q0 -0.9375 -0.6875 -1.65625q-0.671875 -0.734375 -1.6875 -0.734375q-0.984375 0 -1.6875 0.6875q-0.6875 0.6875 -0.6875 1.640625l0 0.71875zm6.9195557 4.5625q0 -0.125 0.078125 -0.265625l2.53125 -3.8125l-2.46875 -3.6875q-0.09375 -0.1875 -0.09375 -0.234375q0 -0.234375 0.25 -0.421875q0.265625 -0.203125 0.5 -0.203125q0.265625 0 0.390625 0.1875l2.234375 3.46875l2.265625 -3.46875q0.109375 -0.1875 0.359375 -0.1875q0.25 0 0.5 0.203125q0.265625 0.1875 0.265625 0.421875q0 0.09375 -0.09375 0.234375l-2.5 3.6875l2.546875 3.8125q0.078125 0.109375 0.078125 0.265625q0 0.203125 -0.234375 0.40625q-0.234375 0.203125 -0.5 0.203125q-0.25 0 -0.359375 -0.203125l-2.328125 -3.546875l-2.296875 3.546875q-0.125 0.203125 -0.390625 0.203125q-0.234375 0 -0.484375 -0.203125q-0.25 -0.203125 -0.25 -0.40625zm8.336578 -2.328125l0 -10.01561q0 -0.1875 0.1875 -0.3125q0.1875 -0.140625 0.421875 -0.140625q0.25 0 0.4375 0.140625q0.1875 0.125 0.1875 0.3125l0 3.8281097l2.453125 0q0.1875 0 0.3125 0.15625q0.125 0.140625 0.125 0.359375q0 0.203125 -0.125 0.359375q-0.125 0.140625 -0.3125 0.140625l-2.453125 0l0 5.171875q0 0.9375 0.390625 1.3125q0.390625 0.359375 1.375 0.359375l0.53125 0q0.25 0 0.40625 0.171875q0.171875 0.15625 0.171875 0.390625q0 0.21875 -0.171875 0.390625q-0.15625 0.171875 -0.40625 0.171875l-0.53125 0q-3.0 0 -3.0 -2.796875zm9.365906 -0.359375q0 -0.21875 0.125 -0.375q0.140625 -0.171875 0.328125 -0.171875l4.8125 0q0.1875 0 0.328125 0.171875q0.140625 0.15625 0.140625 0.390625q0 0.21875 -0.140625 0.375q-0.140625 0.15625 -0.328125 0.15625l-4.8125 0q-0.203125 0 -0.328125 -0.140625q-0.125 -0.15625 -0.125 -0.40625zm0 -3.859375q0 -0.21875 0.125 -0.375q0.140625 -0.171875 0.328125 -0.171875l4.8125 0q0.1875 0 0.328125 0.171875q0.140625 0.15625 0.140625 0.390625q0 0.21875 -0.140625 0.390625q-0.140625 0.15625 -0.328125 0.15625l-4.8125 0q-0.203125 0 -0.328125 -0.15625q-0.125 -0.15625 -0.125 -0.40625zm11.578064 2.890625q0 -2.859375 1.484375 -4.671875q1.484375 -1.8125 4.484375 -1.8125q2.8125 0 4.328125 1.59375q1.53125 1.59375 1.53125 4.53125q0 1.078125 -0.203125 1.90625q-0.203125 0.828125 -0.75 1.40625q-0.53125 0.5625 -1.34375 0.5625q-0.703125 0 -1.21875 -0.359375q-0.515625 -0.359375 -0.625 -0.875q-0.5625 0.546875 -1.0625 0.8125q-0.5 0.25 -1.28125 0.25q-1.0625 0 -1.71875 -0.5q-0.65625 -0.5 -0.65625 -1.5625q0 -1.21875 0.921875 -1.6875q0.9375 -0.46875 2.796875 -0.46875l0.828125 0l0 -0.359375q0 -0.828125 -0.453125 -1.21875q-0.4375 -0.390625 -1.40625 -0.390625q-0.734375 0 -1.25 0.234375q-0.5 0.234375 -0.5625 0.234375q-0.171875 0 -0.28125 -0.171875q-0.109375 -0.1875 -0.109375 -0.359375q0 -0.375 0.75 -0.65625q0.765625 -0.28125 1.640625 -0.28125q1.25 0 1.96875 0.640625q0.71875 0.640625 0.71875 1.796875l0 3.15625q0.0625 0.421875 0.375 0.6875q0.3125 0.265625 0.703125 0.265625q1.265625 0 1.265625 -2.921875q0 -2.578125 -1.234375 -3.953125q-1.234375 -1.375 -3.703125 -1.375q-1.375 0 -2.375 0.453125q-0.984375 0.4375 -1.546875 1.234375q-0.5625 0.796875 -0.828125 1.75q-0.25 0.953125 -0.25 2.09375q0 1.0625 0.21875 1.953125q0.234375 0.890625 0.734375 1.640625q0.515625 0.75 1.390625 1.171875q0.890625 0.4375 2.078125 0.4375q1.0 0 1.828125 -0.296875q0.84375 -0.296875 0.859375 -0.296875q0.171875 0 0.28125 0.140625q0.109375 0.15625 0.109375 0.28125q0 0.40625 -1.046875 0.734375q-1.03125 0.328125 -2.15625 0.328125q-2.203125 0 -3.71875 -1.546875q-1.515625 -1.546875 -1.515625 -4.53125zm4.03125 1.28125q0 0.625 0.390625 0.9375q0.40625 0.296875 1.0625 0.296875q0.890625 0 1.46875 -0.5q0.59375 -0.5 0.59375 -1.0625l0 -1.046875l-0.78125 0q-1.359375 0 -2.046875 0.28125q-0.6875 0.265625 -0.6875 1.09375zm9.529755 2.34375l0 -13.54686q0 -0.1875 0.15625 -0.3125q0.171875 -0.140625 0.4375 -0.140625q0.28125 0 0.453125 0.140625q0.1875 0.125 0.1875 0.3125l0 6.3906097q0.3125 -0.609375 0.96875 -1.015625q0.65625 -0.421875 1.53125 -0.421875q1.375 0 2.359375 1.046875q1.0 1.03125 1.0 2.5l0 5.046875q0 0.234375 -0.1875 0.375q-0.171875 0.125 -0.4375 0.125q-0.21875 0 -0.421875 -0.125q-0.1875 -0.140625 -0.1875 -0.375l0 -5.046875q0 -0.9375 -0.703125 -1.671875q-0.703125 -0.75 -1.640625 -0.75q-0.90625 0 -1.59375 0.671875q-0.6875 0.671875 -0.6875 1.75l0 5.046875q0 0.203125 -0.203125 0.359375q-0.1875 0.140625 -0.4375 0.140625q-0.234375 0 -0.421875 -0.140625q-0.171875 -0.15625 -0.171875 -0.359375zm8.9097595 -2.984375l0 -2.125q0 -1.421875 1.0625 -2.453125q1.0625 -1.03125 2.5625 -1.03125q1.4375 0 2.484375 0.984375q1.0625 0.984375 1.0625 2.46875q0 0.53125 -0.125 0.859375q-0.109375 0.3125 -0.390625 0.453125q-0.28125 0.125 -0.515625 0.171875q-0.21875 0.03125 -0.609375 0.03125l-4.296875 0l0 0.703125q0 1.125 0.796875 1.796875q0.8125 0.671875 2.09375 0.671875q0.640625 0 1.125 -0.1875q0.484375 -0.1875 0.734375 -0.375q0.265625 -0.1875 0.421875 -0.1875q0.203125 0 0.359375 0.203125q0.171875 0.1875 0.171875 0.375q0 0.40625 -0.828125 0.84375q-0.8125 0.421875 -2.03125 0.421875q-1.796875 0 -2.9375 -1.0q-1.140625 -1.0 -1.140625 -2.625zm1.234375 -1.546875l3.796875 0q0.5625 0 0.75 -0.125q0.203125 -0.125 0.203125 -0.53125q0 -0.9375 -0.6875 -1.65625q-0.671875 -0.734375 -1.6875 -0.734375q-0.984375 0 -1.6875 0.6875q-0.6875 0.6875 -0.6875 1.640625l0 0.71875zm7.0133057 2.65625q0 -1.46875 1.125 -2.03125q1.140625 -0.578125 3.3125 -0.578125l0.96875 0l0 -0.453125q0 -1.046875 -0.5625 -1.8125q-0.546875 -0.765625 -1.6875 -0.765625q-0.75 0 -1.375 0.28125q-0.609375 0.265625 -0.65625 0.265625q-0.21875 0 -0.359375 -0.203125q-0.125 -0.21875 -0.125 -0.453125q0 -0.375 0.8125 -0.671875q0.8125 -0.296875 1.75 -0.296875q1.78125 0 2.609375 1.03125q0.828125 1.03125 0.828125 2.625l0 4.9375q0 0.21875 -0.171875 0.359375q-0.171875 0.140625 -0.4375 0.140625q-0.25 0 -0.421875 -0.140625q-0.15625 -0.140625 -0.15625 -0.359375l0 -0.828125q-1.265625 1.46875 -2.859375 1.46875q-1.140625 0 -1.875 -0.640625q-0.71875 -0.640625 -0.71875 -1.875zm1.25 -0.109375q0 0.796875 0.453125 1.1875q0.453125 0.390625 1.1875 0.390625q0.890625 0 1.703125 -0.65625q0.8125 -0.671875 0.8125 -1.34375l0 -1.21875l-0.796875 0q-0.765625 0 -1.296875 0.0625q-0.515625 0.046875 -1.03125 0.203125q-0.5 0.15625 -0.765625 0.5q-0.265625 0.34375 -0.265625 0.875zm7.2183228 -1.0l0 -2.0625q0 -1.46875 0.984375 -2.5q1.0 -1.046875 2.40625 -1.046875q0.875 0 1.53125 0.421875q0.65625 0.40625 0.984375 1.015625l0 -6.3906097q0 -0.1875 0.1875 -0.3125q0.1875 -0.140625 0.453125 -0.140625q0.265625 0 0.421875 0.140625q0.171875 0.125 0.171875 0.3125l0 13.54686q0 0.203125 -0.171875 0.359375q-0.171875 0.140625 -0.421875 0.140625q-0.21875 0 -0.40625 -0.140625q-0.171875 -0.15625 -0.171875 -0.359375l0 -0.828125q-0.328125 0.609375 -1.046875 1.046875q-0.703125 0.421875 -1.5625 0.421875q-1.34375 0 -2.359375 -1.09375q-1.0 -1.09375 -1.0 -2.53125zm1.234375 0q0 0.953125 0.703125 1.71875q0.703125 0.765625 1.65625 0.765625q0.90625 0 1.609375 -0.6875q0.703125 -0.6875 0.703125 -1.203125l0 -2.65625q0 -1.078125 -0.703125 -1.75q-0.6875 -0.671875 -1.59375 -0.671875q-0.96875 0 -1.671875 0.75q-0.703125 0.734375 -0.703125 1.671875l0 2.0625z" fill-rule="nonzero"></path><path fill="#000000" d="m178.86844 286.08893q0 -2.859375 1.484375 -4.671875q1.484375 -1.8125 4.484375 -1.8125q2.8125 0 4.328125 1.59375q1.53125 1.59375 1.53125 4.53125q0 1.078125 -0.203125 1.90625q-0.203125 0.828125 -0.75 1.40625q-0.53125 0.5625 -1.34375 0.5625q-0.703125 0 -1.21875 -0.359375q-0.515625 -0.359375 -0.625 -0.875q-0.5625 0.546875 -1.0625 0.8125q-0.5 0.25 -1.28125 0.25q-1.0625 0 -1.71875 -0.5q-0.65625 -0.5 -0.65625 -1.5625q0 -1.21875 0.921875 -1.6875q0.9375 -0.46875 2.796875 -0.46875l0.828125 0l0 -0.359375q0 -0.828125 -0.453125 -1.21875q-0.4375 -0.390625 -1.40625 -0.390625q-0.734375 0 -1.25 0.234375q-0.5 0.234375 -0.5625 0.234375q-0.171875 0 -0.28125 -0.171875q-0.109375 -0.1875 -0.109375 -0.359375q0 -0.375 0.75 -0.65625q0.765625 -0.28125 1.640625 -0.28125q1.25 0 1.96875 0.640625q0.71875 0.640625 0.71875 1.796875l0 3.15625q0.0625 0.421875 0.375 0.6875q0.3125 0.265625 0.703125 0.265625q1.265625 0 1.265625 -2.921875q0 -2.578125 -1.234375 -3.953125q-1.234375 -1.375 -3.703125 -1.375q-1.375 0 -2.375 0.453125q-0.984375 0.4375 -1.546875 1.234375q-0.5625 0.796875 -0.828125 1.75q-0.25 0.953125 -0.25 2.09375q0 1.0625 0.21875 1.953125q0.234375 0.890625 0.734375 1.640625q0.515625 0.75 1.390625 1.171875q0.890625 0.4375 2.078125 0.4375q1.0 0 1.828125 -0.296875q0.84375 -0.296875 0.859375 -0.296875q0.171875 0 0.28125 0.140625q0.109375 0.15625 0.109375 0.28125q0 0.40625 -1.046875 0.734375q-1.03125 0.328125 -2.15625 0.328125q-2.203125 0 -3.71875 -1.546875q-1.515625 -1.546875 -1.515625 -4.53125zm4.03125 1.28125q0 0.625 0.390625 0.9375q0.40625 0.296875 1.0625 0.296875q0.890625 0 1.46875 -0.5q0.59375 -0.5 0.59375 -1.0625l0 -1.046875l-0.78125 0q-1.359375 0 -2.046875 0.28125q-0.6875 0.265625 -0.6875 1.09375zm9.529755 2.34375l0 -13.546875q0 -0.1875 0.15625 -0.3125q0.171875 -0.140625 0.4375 -0.140625q0.28125 0 0.453125 0.140625q0.1875 0.125 0.1875 0.3125l0 6.390625q0.3125 -0.609375 0.96875 -1.015625q0.65625 -0.421875 1.53125 -0.421875q1.375 0 2.359375 1.046875q1.0 1.03125 1.0 2.5l0 5.046875q0 0.234375 -0.1875 0.375q-0.171875 0.125 -0.4375 0.125q-0.21875 0 -0.421875 -0.125q-0.1875 -0.140625 -0.1875 -0.375l0 -5.046875q0 -0.9375 -0.703125 -1.671875q-0.703125 -0.75 -1.640625 -0.75q-0.90625 0 -1.59375 0.671875q-0.6875 0.671875 -0.6875 1.75l0 5.046875q0 0.203125 -0.203125 0.359375q-0.1875 0.140625 -0.4375 0.140625q-0.234375 0 -0.421875 -0.140625q-0.171875 -0.15625 -0.171875 -0.359375zm8.9097595 -2.984375l0 -2.125q0 -1.421875 1.0625 -2.453125q1.0625 -1.03125 2.5625 -1.03125q1.4375 0 2.484375 0.984375q1.0625 0.984375 1.0625 2.46875q0 0.53125 -0.125 0.859375q-0.109375 0.3125 -0.390625 0.453125q-0.28125 0.125 -0.515625 0.171875q-0.21875 0.03125 -0.609375 0.03125l-4.296875 0l0 0.703125q0 1.125 0.796875 1.796875q0.8125 0.671875 2.09375 0.671875q0.640625 0 1.125 -0.1875q0.484375 -0.1875 0.734375 -0.375q0.265625 -0.1875 0.421875 -0.1875q0.203125 0 0.359375 0.203125q0.171875 0.1875 0.171875 0.375q0 0.40625 -0.828125 0.84375q-0.8125 0.421875 -2.03125 0.421875q-1.796875 0 -2.9375 -1.0q-1.140625 -1.0 -1.140625 -2.625zm1.234375 -1.546875l3.796875 0q0.5625 0 0.75 -0.125q0.203125 -0.125 0.203125 -0.53125q0 -0.9375 -0.6875 -1.65625q-0.671875 -0.734375 -1.6875 -0.734375q-0.984375 0 -1.6875 0.6875q-0.6875 0.6875 -0.6875 1.640625l0 0.71875zm7.013321 2.65625q0 -1.46875 1.125 -2.03125q1.140625 -0.578125 3.3125 -0.578125l0.96875 0l0 -0.453125q0 -1.046875 -0.5625 -1.8125q-0.546875 -0.765625 -1.6875 -0.765625q-0.75 0 -1.375 0.28125q-0.609375 0.265625 -0.65625 0.265625q-0.21875 0 -0.359375 -0.203125q-0.125 -0.21875 -0.125 -0.453125q0 -0.375 0.8125 -0.671875q0.8125 -0.296875 1.75 -0.296875q1.78125 0 2.609375 1.03125q0.828125 1.03125 0.828125 2.625l0 4.9375q0 0.21875 -0.171875 0.359375q-0.171875 0.140625 -0.4375 0.140625q-0.25 0 -0.421875 -0.140625q-0.15625 -0.140625 -0.15625 -0.359375l0 -0.828125q-1.265625 1.46875 -2.859375 1.46875q-1.140625 0 -1.875 -0.640625q-0.71875 -0.640625 -0.71875 -1.875zm1.25 -0.109375q0 0.796875 0.453125 1.1875q0.453125 0.390625 1.1875 0.390625q0.890625 0 1.703125 -0.65625q0.8125 -0.671875 0.8125 -1.34375l0 -1.21875l-0.796875 0q-0.765625 0 -1.296875 0.0625q-0.515625 0.046875 -1.03125 0.203125q-0.5 0.15625 -0.765625 0.5q-0.265625 0.34375 -0.265625 0.875zm7.2183075 -1.0l0 -2.0625q0 -1.46875 0.984375 -2.5q1.0 -1.046875 2.40625 -1.046875q0.875 0 1.53125 0.421875q0.65625 0.40625 0.984375 1.015625l0 -6.390625q0 -0.1875 0.1875 -0.3125q0.1875 -0.140625 0.453125 -0.140625q0.265625 0 0.421875 0.140625q0.171875 0.125 0.171875 0.3125l0 13.546875q0 0.203125 -0.171875 0.359375q-0.171875 0.140625 -0.421875 0.140625q-0.21875 0 -0.40625 -0.140625q-0.171875 -0.15625 -0.171875 -0.359375l0 -0.828125q-0.328125 0.609375 -1.046875 1.046875q-0.703125 0.421875 -1.5625 0.421875q-1.34375 0 -2.359375 -1.09375q-1.0 -1.09375 -1.0 -2.53125zm1.234375 0q0 0.953125 0.703125 1.71875q0.703125 0.765625 1.65625 0.765625q0.90625 0 1.609375 -0.6875q0.703125 -0.6875 0.703125 -1.203125l0 -2.65625q0 -1.078125 -0.703125 -1.75q-0.6875 -0.671875 -1.59375 -0.671875q-0.96875 0 -1.671875 0.75q-0.703125 0.734375 -0.703125 1.671875l0 2.0625zm11.9171295 0.328125q0 -0.21875 0.125 -0.375q0.140625 -0.171875 0.328125 -0.171875l4.8125 0q0.1875 0 0.328125 0.171875q0.140625 0.15625 0.140625 0.390625q0 0.21875 -0.140625 0.375q-0.140625 0.15625 -0.328125 0.15625l-4.8125 0q-0.203125 0 -0.328125 -0.140625q-0.125 -0.15625 -0.125 -0.40625zm0 -3.859375q0 -0.21875 0.125 -0.375q0.140625 -0.171875 0.328125 -0.171875l4.8125 0q0.1875 0 0.328125 0.171875q0.140625 0.15625 0.140625 0.390625q0 0.21875 -0.140625 0.390625q-0.140625 0.15625 -0.328125 0.15625l-4.8125 0q-0.203125 0 -0.328125 -0.15625q-0.125 -0.15625 -0.125 -0.40625zm11.781189 6.515625l0 -8.03125q0 -0.203125 0.15625 -0.328125q0.171875 -0.125 0.453125 -0.125q0.21875 0 0.390625 0.140625q0.171875 0.125 0.171875 0.3125l0 0.875q0.328125 -0.609375 0.984375 -1.015625q0.671875 -0.421875 1.5625 -0.421875q1.359375 0 2.359375 1.046875q1.015625 1.03125 1.015625 2.5l0 5.046875q0 0.234375 -0.1875 0.375q-0.1875 0.125 -0.4375 0.125q-0.21875 0 -0.421875 -0.125q-0.1875 -0.140625 -0.1875 -0.375l0 -5.046875q0 -0.9375 -0.703125 -1.671875q-0.703125 -0.75 -1.671875 -0.75q-0.890625 0 -1.578125 0.671875q-0.671875 0.671875 -0.671875 1.75l0 5.046875q0 0.203125 -0.203125 0.359375q-0.1875 0.140625 -0.421875 0.140625q-0.28125 0 -0.453125 -0.140625q-0.15625 -0.15625 -0.15625 -0.359375zm8.9097595 -2.984375l0 -2.125q0 -1.421875 1.0625 -2.453125q1.0625 -1.03125 2.5625 -1.03125q1.4374847 0 2.4843597 0.984375q1.0625 0.984375 1.0625 2.46875q0 0.53125 -0.125 0.859375q-0.109375 0.3125 -0.390625 0.453125q-0.28125 0.125 -0.515625 0.171875q-0.21875 0.03125 -0.609375 0.03125l-4.2968597 0l0 0.703125q0 1.125 0.796875 1.796875q0.8125 0.671875 2.0937347 0.671875q0.640625 0 1.125 -0.1875q0.484375 -0.1875 0.734375 -0.375q0.265625 -0.1875 0.421875 -0.1875q0.203125 0 0.359375 0.203125q0.171875 0.1875 0.171875 0.375q0 0.40625 -0.828125 0.84375q-0.8125 0.421875 -2.0312347 0.421875q-1.796875 0 -2.9375 -1.0q-1.140625 -1.0 -1.140625 -2.625zm1.234375 -1.546875l3.7968597 0q0.5625 0 0.75 -0.125q0.203125 -0.125 0.203125 -0.53125q0 -0.9375 -0.6875 -1.65625q-0.671875 -0.734375 -1.6874847 -0.734375q-0.984375 0 -1.6875 0.6875q-0.6875 0.6875 -0.6875 1.640625l0 0.71875zm6.732071 -3.4375q0 -0.234375 0.234375 -0.390625q0.25 -0.171875 0.515625 -0.171875q0.34375 0 0.4375 0.296875l2.421875 6.765625l1.96875 -6.1875q0.09375 -0.3125 0.484375 -0.3125q0.40625 0 0.5 0.3125l1.875 6.25l2.484375 -6.828125q0.0625 -0.296875 0.421875 -0.296875q0.265625 0 0.5 0.15625q0.25 0.15625 0.25 0.40625q0 0.171875 -0.078125 0.28125l-2.96875 8.03125q-0.09375 0.3125 -0.5 0.3125q-0.359375 0 -0.5 -0.296875l-1.984375 -6.171875l-1.953125 6.078125q-0.109375 0.390625 -0.546875 0.390625q-0.40625 0 -0.515625 -0.390625l-2.96875 -7.953125q-0.078125 -0.15625 -0.078125 -0.28125z" fill-rule="nonzero"></path><path fill="#000000" fill-opacity="0.0" d="m114.28774 109.51723l0 0c0 -5.780983 4.6864166 -10.4674 10.4674 -10.4674l200.38805 0c2.776123 0 5.4385376 1.1028137 7.4015503 3.065834c1.9630127 1.9630127 3.0658264 4.6254425 3.0658264 7.4015656l0 41.868347c0 5.7809906 -4.6864014 10.467407 -10.467377 10.467407l-200.38805 0c-5.780983 0 -10.4674 -4.6864166 -10.4674 -10.467407z" fill-rule="nonzero"></path><path stroke="#000000" stroke-width="2.0" stroke-linejoin="round" stroke-linecap="butt" d="m114.28774 109.51723l0 0c0 -5.780983 4.6864166 -10.4674 10.4674 -10.4674l200.38805 0c2.776123 0 5.4385376 1.1028137 7.4015503 3.065834c1.9630127 1.9630127 3.0658264 4.6254425 3.0658264 7.4015656l0 41.868347c0 5.7809906 -4.6864014 10.467407 -10.467377 10.467407l-200.38805 0c-5.780983 0 -10.4674 -4.6864166 -10.4674 -10.467407z" fill-rule="nonzero"></path><path fill="#000000" d="m211.03139 136.8714l0 -8.03125q0 -0.203125 0.15625 -0.328125q0.171875 -0.125 0.453125 -0.125q0.21875 0 0.390625 0.140625q0.171875 0.125 0.171875 0.3125l0 0.875q0.328125 -0.609375 0.984375 -1.015625q0.671875 -0.421875 1.5625 -0.421875q1.359375 0 2.359375 1.046875q1.015625 1.03125 1.015625 2.5l0 5.046875q0 0.234375 -0.1875 0.375q-0.1875 0.125 -0.4375 0.125q-0.21875 0 -0.421875 -0.125q-0.1875 -0.140625 -0.1875 -0.375l0 -5.046875q0 -0.9375 -0.703125 -1.671875q-0.703125 -0.75 -1.671875 -0.75q-0.890625 0 -1.578125 0.671875q-0.671875 0.671875 -0.671875 1.75l0 5.046875q0 0.203125 -0.203125 0.359375q-0.1875 0.140625 -0.421875 0.140625q-0.28125 0 -0.453125 -0.140625q-0.15625 -0.15625 -0.15625 -0.359375zm8.9097595 -2.984375l0 -2.125q0 -1.421875 1.0625 -2.453125q1.0625 -1.03125 2.5625 -1.03125q1.4375 0 2.484375 0.984375q1.0625 0.984375 1.0625 2.46875q0 0.53125 -0.125 0.859375q-0.109375 0.3125 -0.390625 0.453125q-0.28125 0.125 -0.515625 0.171875q-0.21875 0.03125 -0.609375 0.03125l-4.296875 0l0 0.703125q0 1.125 0.796875 1.796875q0.8125 0.671875 2.09375 0.671875q0.640625 0 1.125 -0.1875q0.484375 -0.1875 0.734375 -0.375q0.265625 -0.1875 0.421875 -0.1875q0.203125 0 0.359375 0.203125q0.171875 0.1875 0.171875 0.375q0 0.40625 -0.828125 0.84375q-0.8125 0.421875 -2.03125 0.421875q-1.796875 0 -2.9375 -1.0q-1.140625 -1.0 -1.140625 -2.625zm1.234375 -1.546875l3.796875 0q0.5625 0 0.75 -0.125q0.203125 -0.125 0.203125 -0.53125q0 -0.9375 -0.6875 -1.65625q-0.671875 -0.734375 -1.6875 -0.734375q-0.984375 0 -1.6875 0.6875q-0.6875 0.6875 -0.6875 1.640625l0 0.71875zm6.732071 -3.4375q0 -0.234375 0.234375 -0.390625q0.25 -0.171875 0.515625 -0.171875q0.34375 0 0.4375 0.296875l2.421875 6.765625l1.96875 -6.1875q0.09375 -0.3125 0.484375 -0.3125q0.40625 0 0.5 0.3125l1.875 6.25l2.484375 -6.828125q0.0625 -0.296875 0.421875 -0.296875q0.265625 0 0.5 0.15625q0.25 0.15625 0.25 0.40625q0 0.171875 -0.078125 0.28125l-2.96875 8.03125q-0.09375 0.3125 -0.5 0.3125q-0.359375 0 -0.5 -0.296875l-1.984375 -6.171875l-1.953125 6.078125q-0.109375 0.390625 -0.546875 0.390625q-0.40625 0 -0.515625 -0.390625l-2.96875 -7.953125q-0.078125 -0.15625 -0.078125 -0.28125z" fill-rule="nonzero"></path><path fill="#000000" fill-opacity="0.0" d="m497.54233 203.76523l0 0c0 -5.7809906 4.6864014 -10.467407 10.467377 -10.467407l200.38806 0c2.776123 0 5.4385376 1.1028137 7.4015503 3.0658417c1.9630127 1.9630127 3.065857 4.6254425 3.065857 7.4015656l0 41.868347c0 5.7809906 -4.6864624 10.467407 -10.467407 10.467407l-200.38806 0c-5.7809753 0 -10.467377 -4.6864166 -10.467377 -10.467407z" fill-rule="nonzero"></path><path stroke="#000000" stroke-width="2.0" stroke-linejoin="round" stroke-linecap="butt" d="m497.54233 203.76523l0 0c0 -5.7809906 4.6864014 -10.467407 10.467377 -10.467407l200.38806 0c2.776123 0 5.4385376 1.1028137 7.4015503 3.0658417c1.9630127 1.9630127 3.065857 4.6254425 3.065857 7.4015656l0 41.868347c0 5.7809906 -4.6864624 10.467407 -10.467407 10.467407l-200.38806 0c-5.7809753 0 -10.467377 -4.6864166 -10.467377 -10.467407z" fill-rule="nonzero"></path><path fill="#000000" d="m585.0252 227.4944q0 -2.859375 1.484375 -4.671875q1.484375 -1.8125 4.484375 -1.8125q2.8125 0 4.328125 1.59375q1.53125 1.59375 1.53125 4.53125q0 1.078125 -0.203125 1.90625q-0.203125 0.828125 -0.75 1.40625q-0.53125 0.5625 -1.34375 0.5625q-0.703125 0 -1.21875 -0.359375q-0.515625 -0.359375 -0.625 -0.875q-0.5625 0.546875 -1.0625 0.8125q-0.5 0.25 -1.28125 0.25q-1.0625 0 -1.71875 -0.5q-0.65625 -0.5 -0.65625 -1.5625q0 -1.21875 0.921875 -1.6875q0.9375 -0.46875 2.796875 -0.46875l0.828125 0l0 -0.359375q0 -0.828125 -0.453125 -1.21875q-0.4375 -0.390625 -1.40625 -0.390625q-0.734375 0 -1.25 0.234375q-0.5 0.234375 -0.5625 0.234375q-0.171875 0 -0.28125 -0.171875q-0.109375 -0.1875 -0.109375 -0.359375q0 -0.375 0.75 -0.65625q0.765625 -0.28125 1.640625 -0.28125q1.25 0 1.96875 0.640625q0.71875 0.640625 0.71875 1.796875l0 3.15625q0.0625 0.421875 0.375 0.6875q0.3125 0.265625 0.703125 0.265625q1.265625 0 1.265625 -2.921875q0 -2.578125 -1.234375 -3.953125q-1.234375 -1.375 -3.703125 -1.375q-1.375 0 -2.375 0.453125q-0.984375 0.4375 -1.546875 1.234375q-0.5625 0.796875 -0.828125 1.75q-0.25 0.953125 -0.25 2.09375q0 1.0625 0.21875 1.953125q0.234375 0.890625 0.734375 1.640625q0.515625 0.75 1.390625 1.171875q0.890625 0.4375 2.078125 0.4375q1.0 0 1.828125 -0.296875q0.84375 -0.296875 0.859375 -0.296875q0.171875 0 0.28125 0.140625q0.109375 0.15625 0.109375 0.28125q0 0.40625 -1.046875 0.734375q-1.03125 0.328125 -2.15625 0.328125q-2.203125 0 -3.71875 -1.546875q-1.515625 -1.546875 -1.515625 -4.53125zm4.03125 1.28125q0 0.625 0.390625 0.9375q0.40625 0.296875 1.0625 0.296875q0.890625 0 1.46875 -0.5q0.59375 -0.5 0.59375 -1.0625l0 -1.046875l-0.78125 0q-1.359375 0 -2.046875 0.28125q-0.6875 0.265625 -0.6875 1.09375zm9.529785 2.34375l0 -13.546875q0 -0.1875 0.15625 -0.3125q0.171875 -0.140625 0.4375 -0.140625q0.28125 0 0.453125 0.140625q0.1875 0.125 0.1875 0.3125l0 6.390625q0.3125 -0.609375 0.96875 -1.015625q0.65625 -0.421875 1.53125 -0.421875q1.375 0 2.359375 1.046875q1.0 1.03125 1.0 2.5l0 5.046875q0 0.234375 -0.1875 0.375q-0.171875 0.125 -0.4375 0.125q-0.21875 0 -0.421875 -0.125q-0.1875 -0.140625 -0.1875 -0.375l0 -5.046875q0 -0.9375 -0.703125 -1.671875q-0.703125 -0.75 -1.640625 -0.75q-0.90625 0 -1.59375 0.671875q-0.6875 0.671875 -0.6875 1.75l0 5.046875q0 0.203125 -0.203125 0.359375q-0.1875 0.140625 -0.4375 0.140625q-0.234375 0 -0.421875 -0.140625q-0.171875 -0.15625 -0.171875 -0.359375zm8.909729 -2.984375l0 -2.125q0 -1.421875 1.0625 -2.453125q1.0625 -1.03125 2.5625 -1.03125q1.4375 0 2.484375 0.984375q1.0625 0.984375 1.0625 2.46875q0 0.53125 -0.125 0.859375q-0.109375 0.3125 -0.390625 0.453125q-0.28125 0.125 -0.515625 0.171875q-0.21875 0.03125 -0.609375 0.03125l-4.296875 0l0 0.703125q0 1.125 0.796875 1.796875q0.8125 0.671875 2.09375 0.671875q0.640625 0 1.125 -0.1875q0.484375 -0.1875 0.734375 -0.375q0.265625 -0.1875 0.421875 -0.1875q0.203125 0 0.359375 0.203125q0.171875 0.1875 0.171875 0.375q0 0.40625 -0.828125 0.84375q-0.8125 0.421875 -2.03125 0.421875q-1.796875 0 -2.9375 -1.0q-1.140625 -1.0 -1.140625 -2.625zm1.234375 -1.546875l3.796875 0q0.5625 0 0.75 -0.125q0.203125 -0.125 0.203125 -0.53125q0 -0.9375 -0.6875 -1.65625q-0.671875 -0.734375 -1.6875 -0.734375q-0.984375 0 -1.6875 0.6875q-0.6875 0.6875 -0.6875 1.640625l0 0.71875zm7.0133057 2.65625q0 -1.46875 1.125 -2.03125q1.140625 -0.578125 3.3125 -0.578125l0.96875 0l0 -0.453125q0 -1.046875 -0.5625 -1.8125q-0.546875 -0.765625 -1.6875 -0.765625q-0.75 0 -1.375 0.28125q-0.609375 0.265625 -0.65625 0.265625q-0.21875 0 -0.359375 -0.203125q-0.125 -0.21875 -0.125 -0.453125q0 -0.375 0.8125 -0.671875q0.8125 -0.296875 1.75 -0.296875q1.78125 0 2.609375 1.03125q0.828125 1.03125 0.828125 2.625l0 4.9375q0 0.21875 -0.171875 0.359375q-0.171875 0.140625 -0.4375 0.140625q-0.25 0 -0.421875 -0.140625q-0.15625 -0.140625 -0.15625 -0.359375l0 -0.828125q-1.265625 1.46875 -2.859375 1.46875q-1.140625 0 -1.875 -0.640625q-0.71875 -0.640625 -0.71875 -1.875zm1.25 -0.109375q0 0.796875 0.453125 1.1875q0.453125 0.390625 1.1875 0.390625q0.890625 0 1.703125 -0.65625q0.8125 -0.671875 0.8125 -1.34375l0 -1.21875l-0.796875 0q-0.765625 0 -1.296875 0.0625q-0.515625 0.046875 -1.03125 0.203125q-0.5 0.15625 -0.765625 0.5q-0.265625 0.34375 -0.265625 0.875zm7.2183228 -1.0l0 -2.0625q0 -1.46875 0.984375 -2.5q1.0 -1.046875 2.40625 -1.046875q0.875 0 1.53125 0.421875q0.65625 0.40625 0.984375 1.015625l0 -6.390625q0 -0.1875 0.1875 -0.3125q0.1875 -0.140625 0.453125 -0.140625q0.265625 0 0.421875 0.140625q0.171875 0.125 0.171875 0.3125l0 13.546875q0 0.203125 -0.171875 0.359375q-0.171875 0.140625 -0.421875 0.140625q-0.21875 0 -0.40625 -0.140625q-0.171875 -0.15625 -0.171875 -0.359375l0 -0.828125q-0.328125 0.609375 -1.046875 1.046875q-0.703125 0.421875 -1.5625 0.421875q-1.34375 0 -2.359375 -1.09375q-1.0 -1.09375 -1.0 -2.53125zm1.234375 0q0 0.953125 0.703125 1.71875q0.703125 0.765625 1.65625 0.765625q0.90625 0 1.609375 -0.6875q0.703125 -0.6875 0.703125 -1.203125l0 -2.65625q0 -1.078125 -0.703125 -1.75q-0.6875 -0.671875 -1.59375 -0.671875q-0.96875 0 -1.671875 0.75q-0.703125 0.734375 -0.703125 1.671875l0 2.0625z" fill-rule="nonzero"></path><path fill="#000000" fill-opacity="0.0" d="m335.61057 130.4514l161.93176 94.248" fill-rule="nonzero"></path><path stroke="#000000" stroke-width="2.0" stroke-linejoin="round" stroke-linecap="butt" d="m335.6106 130.4514l151.56046 88.21167" fill-rule="evenodd"></path><path fill="#000000" stroke="#000000" stroke-width="2.0" stroke-linecap="butt" d="m485.50934 221.51817l9.506012 1.7104645l-6.182556 -7.420639z" fill-rule="evenodd"></path></g></svg>

